<svg id="Layer_1" xmlns="http://www.w3.org/2000/svg" viewBox="0 0 200 59.3"><style>.st0{fill:#79b928}.st1{fill:#fff}.st2{fill:#e72f2a}.st3{fill:none}</style><path class="st0" d="M137 0H18.5C8.2 0 0 8.3 0 18.6v40.7h118.5c10.2 0 18.5-8.2 18.5-18.5V0z"/><path class="st1" d="M42.1 18.4H42c-1.6 0-3.1.4-4.5 1.1-.5-.7-1.3-1.1-2.3-1.1-1 0-1.8.4-2.3 1.1-1.4-.7-2.9-1.1-4.5-1.1h-.2c-2.7 0-5 .9-6.9 2.7-1.9 1.8-2.8 4-2.8 6.5v3.9c0 2.6.9 4.7 2.8 6.5 1.9 1.8 4.2 2.7 6.9 2.7h.2c1.4 0 2.7-.3 4-.8v1.9c0 .7.3 1.4.8 2 .5.5 1.2.8 2 .8.7 0 1.4-.2 1.9-.7.5-.5.9-1 .9-1.6V40c1.2.5 2.6.8 4 .8h.2c2.7 0 5-.9 6.9-2.7 1.9-1.8 2.8-4 2.8-6.5v-3.9c0-2.6-.9-4.7-2.8-6.5-2-1.9-4.3-2.8-7-2.8zm0 16.9H42c-1.1 0-2-.4-2.8-1.1-.8-.7-1.2-1.6-1.2-2.7v-3.9c0-1.1.4-1.9 1.2-2.7s1.7-1.1 2.8-1.1h.2c1.1 0 2 .4 2.8 1.1.8.7 1.2 1.6 1.2 2.7v3.9c0 1.1-.4 1.9-1.2 2.7-.8.7-1.7 1.1-2.9 1.1zm-13.8 0h-.2c-1.1 0-2-.4-2.8-1.1-.8-.7-1.2-1.6-1.2-2.7v-3.9c0-1.1.4-1.9 1.2-2.7.8-.7 1.7-1.1 2.8-1.1h.2c1.1 0 2 .4 2.8 1.1.8.7 1.2 1.6 1.2 2.7v3.9c0 1.1-.4 1.9-1.2 2.7-.8.7-1.7 1.1-2.8 1.1zM64 18.4h-.2c-2.8 0-5.2.9-7.2 2.7-2 1.8-3 4-3 6.5v3.9c0 2.6 1 4.7 3 6.5 2 1.8 4.4 2.7 7.2 2.7h.2c2.8 0 5.2-.9 7.2-2.7 2-1.8 3-4 3-6.5v-3.9c0-2.6-1-4.7-3-6.5-2-1.8-4.5-2.7-7.2-2.7zm0 16.9h-.2c-1.2 0-2.1-.4-2.9-1.1-.8-.7-1.2-1.6-1.2-2.7v-3.9c0-1.1.4-1.9 1.2-2.7.8-.7 1.8-1.1 2.9-1.1h.2c1.2 0 2.1.4 2.9 1.1.8.7 1.2 1.6 1.2 2.7v3.9c0 1-.4 1.9-1.2 2.7-.8.7-1.8 1.1-2.9 1.1zm22.2-16.9H86c-1.7 0-3.3.4-4.7 1.1-.5-.7-1.4-1.1-2.4-1.1-.8 0-1.6.3-2.1.8-.6.5-.9 1.2-.9 1.9v20.7c0 .7.3 1.4.9 2 .6.5 1.3.8 2.1.8s1.5-.2 2.1-.8c.6-.5.9-1.2.9-1.9V40c1.3.5 2.7.8 4.1.8h.2c2.8 0 5.2-.9 7.2-2.7 2-1.8 3-4 3-6.5v-3.9c0-2.6-1-4.7-3-6.5-2-1.9-4.5-2.8-7.2-2.8zm0 16.9H86c-1.2 0-2.1-.4-2.9-1.1-.8-.7-1.2-1.6-1.2-2.7v-3.9c0-1.1.4-1.9 1.2-2.7.8-.7 1.8-1.1 2.9-1.1h.2c1.2 0 2.1.4 2.9 1.1.8.7 1.2 1.6 1.2 2.7v3.9c0 1-.4 1.9-1.2 2.7-.8.7-1.8 1.1-2.9 1.1zm31.5-16.1c-.6-.5-1.3-.8-2.1-.8-1.1 0-1.9.4-2.4 1.1-1.4-.7-3-1.1-4.7-1.1h-.2c-2.8 0-5.2.9-7.2 2.7-2 1.8-3 4-3 6.5v3.9c0 2.6 1 4.7 3 6.5s4.4 2.7 7.2 2.7h.2c1.7 0 3.3-.4 4.7-1.1.5.7 1.4 1.1 2.4 1.1.8 0 1.6-.3 2.1-.8.6-.5.9-1.2.9-2V21.2c0-.8-.4-1.5-.9-2zm-9.3 16.1h-.2c-1.2 0-2.1-.4-2.9-1.1-.8-.7-1.2-1.6-1.2-2.7v-3.9c0-1.1.4-1.9 1.2-2.7.8-.7 1.8-1.1 2.9-1.1h.2c1.2 0 2.1.4 2.9 1.1.8.7 1.2 1.6 1.2 2.7v3.9c0 1-.4 1.9-1.2 2.7-.8.7-1.7 1.1-2.9 1.1z"/><path class="st2" d="M181.4 0h-40.7v40.7c0 10.2 8.3 18.6 18.5 18.6h22.1c10.2 0 18.6-8.4 18.6-18.6V18.6C200 8.4 191.6 0 181.4 0z"/><circle class="st3" cx="163.6" cy="26" r=".6"/><circle class="st3" cx="177" cy="26" r=".6"/><path class="st3" d="M173.4 28.8h-.5c-.6 0-1.1.4-1.1.9l-.1 7.6c0 .4.4.6.9.6h.5c.5 0 .9-.3.9-.6l.4-7.6c0-.5-.4-.9-1-.9zm-9.9.9c-.1-.5-.6-.9-1.2-.9h-.5c-.6 0-.9.6-.9 1.1l1.3 7.4c.1.4.4.6.9.6h.5c.5 0 .8-.3.8-.6l-.9-7.6zm4.4-.9h-.5c-.6 0-1 .4-.9.9l.6 7.6c0 .4.5.6.9.6h.5c.5 0 .9-.3.9-.6l-.3-7.6c-.2-.5-.7-.9-1.2-.9zm11 0h-.5c-.6 0-1.1.4-1.2.9l-.8 7.6c0 .4.3.6.8.6h.6c.5 0 .8-.3.9-.6l1.1-7.4c.1-.5-.3-1.1-.9-1.1z"/><path class="st1" d="M184 24.1h-6.4l-4.2-7c-.3-.5-1-.7-1.6-.4l-.5.3c-.5.3-.7 1-.4 1.6l1.9 3.1 1.4 2.4 2 3.3c-.2-.2-.5-.4-.7-.6l-2.2-2.7h-6.1l-2.2 2.7c-.2.2-.4.5-.7.6l2-3.3 1.4-2.4 1.9-3.1c.3-.5.2-1.3-.4-1.6l-.5-.3c-.5-.3-1.3-.2-1.6.4l-4.2 7h-6.4c-.5 0-1 .5-1 1l.1 1.9c0 .5.5.8 1 .8h.5l1.7 10.9c.5 2.1 1.9 2.1 3.9 2.1h15.8c1.9 0 2.8-.2 3.4-2.2l1.7-10.7h.5c.5 0 1-.4 1-.8V25c0-.5-.6-.9-1.1-.9zm-21 1.6c.2-.3.6-.4.9-.2s.4.6.2.9c-.2.3-.6.4-.9.2-.2-.3-.4-.6-.2-.9zm.7 12.2h-.5c-.5 0-.9-.3-.9-.6l-1.3-7.4c-.1-.5.3-1.1.9-1.1h.5c.6 0 1.1.4 1.2.9l1 7.6c-.1.4-.4.6-.9.6zm4.7 0h-.5c-.5 0-.9-.3-.9-.6l-.6-7.6c0-.5.4-.9.9-.9h.5c.6 0 1.1.4 1.1.9l.3 7.6c.1.4-.3.6-.8.6zm5.6-.6c0 .4-.5.6-.9.6h-.5c-.5 0-.9-.3-.9-.6l.1-7.6c0-.5.5-.9 1.1-.9h.5c.6 0 1 .4 1 .9l-.4 7.6zm3.6-11.6c.2.3.1.7-.2.9-.3.2-.7 0-.9-.2-.2-.3-.1-.7.2-.9.3-.3.7-.2.9.2zm2.2 4.2l-1.1 7.4c-.1.4-.4.6-.9.6h-.6c-.5 0-.9-.3-.8-.6l.8-7.6c.1-.5.6-.9 1.2-.9h.5c.6 0 1 .6.9 1.1z"/></svg>