<svg width="147" height="90" viewBox="0 0 147 84" xmlns="http://www.w3.org/2000/svg" xmlns:xlink="http://www.w3.org/1999/xlink"><title>Group</title><defs><path d="M141.018.552c.026.18.055.358.055.546a3.768 3.768 0 0 1-7.534 0c0-.188.03-.366.056-.546h-2.408c.026.18.055.358.055.546a3.767 3.767 0 0 1-7.536 0c0-.188.03-.366.055-.546h-2.309c.026.18.054.358.054.546a3.768 3.768 0 0 1-7.535 0c0-.188.028-.366.055-.546h-2.07c.025.18.054.358.054.546a3.767 3.767 0 0 1-7.535 0c0-.188.028-.366.055-.546h-2.52c.026.18.055.358.055.546a3.768 3.768 0 0 1-7.537 0c0-.188.028-.366.054-.546h-2.22c.026.18.054.358.054.546a3.768 3.768 0 0 1-7.535 0c0-.187.03-.365.055-.545H82.53c.026.18.054.357.054.545a3.767 3.767 0 0 1-7.535 0c0-.188.03-.366.055-.546h-2.31c.027.18.055.358.055.546a3.769 3.769 0 0 1-3.768 3.766A3.766 3.766 0 0 1 65.313 1.1c0-.189.028-.366.055-.546h-2.072c.027.18.056.357.056.545a3.768 3.768 0 0 1-7.536 0c0-.188.03-.366.056-.546H53.69c.026.18.055.358.055.546a3.766 3.766 0 0 1-3.767 3.766A3.771 3.771 0 0 1 46.21 1.1c0-.189.03-.366.056-.546h-2.222c.027.18.056.357.056.545a3.769 3.769 0 0 1-7.535 0c0-.188.028-.366.055-.546h-2.407c.027.18.056.358.056.546a3.769 3.769 0 0 1-7.538 0c0-.188.03-.366.056-.546h-2.313c.026.18.055.358.055.546a3.767 3.767 0 0 1-7.533 0c0-.188.03-.366.055-.546h-2.069c.026.18.055.358.055.546a3.767 3.767 0 0 1-7.536 0c0-.188.03-.366.056-.546H5.034c.026.18.054.358.054.546A3.767 3.767 0 0 1 1.32 4.864L1 4.801v58.925l3.3-.332c9.77 0 17.701 7.93 17.701 17.7 0 1.223-.126 2.415-.36 3.566l-.06.19.153.15h3.305l.297-1.477a3.933 3.933 0 0 1 3.623-2.4c1.627 0 3.021.99 3.618 2.4L32.875 85h2.066l.3-1.477a3.926 3.926 0 0 1 3.618-2.4c1.625 0 3.023.99 3.621 2.4L42.776 85h2.316l.3-1.477a3.928 3.928 0 1 1 7.24 0L52.93 85h2.414l.3-1.475a3.927 3.927 0 0 1 7.238 0L63.179 85h2.223l.302-1.475a3.922 3.922 0 0 1 3.62-2.4c1.623 0 3.021.989 3.618 2.4l.3 1.475h2.533l.298-1.475a3.932 3.932 0 0 1 7.24 0L83.61 85h2.065l.297-1.475a3.933 3.933 0 0 1 3.621-2.4c1.63 0 3.021.989 3.62 2.4L93.509 85h2.32l.298-1.475a3.93 3.93 0 0 1 7.241 0l.298 1.475h2.413l.301-1.475a3.926 3.926 0 0 1 7.236 0l.3 1.475h2.224l.297-1.475a3.93 3.93 0 1 1 7.24 0l.298 1.475h2.902l.19-.19-.047-.15a17.732 17.732 0 0 1-.359-3.565c0-9.77 7.93-17.7 17.701-17.7l3.247.324V4.73l-.656.133a3.77 3.77 0 0 1-3.769-3.765c0-.189.028-.366.055-.546h-2.22z" id="b"/><filter x="-4.8%" y="-5.9%" width="109.5%" height="116.6%" filterUnits="objectBoundingBox" id="a"><feOffset dy="2" in="SourceAlpha" result="shadowOffsetOuter1"/><feGaussianBlur stdDeviation="2" in="shadowOffsetOuter1" result="shadowBlurOuter1"/><feColorMatrix values="0 0 0 0 0 0 0 0 0 0 0 0 0 0 0 0 0 0 0.228374094 0" in="shadowBlurOuter1"/></filter></defs><g fill="none" fill-rule="evenodd"><g transform="translate(-1 -.552)"><use fill="#000" filter="url(#a)" xlink:href="#b"/><use fill="#FFFFFE" xlink:href="#b"/></g><path d="M47.394 42.761c-1.714.002-1.874-.17-1.706-1.899.085-.872.212-1.736.292-2.609.186-2.045.465-4.076.502-6.146.038-2.09-1.102-3.482-3.218-4.055a15.733 15.733 0 0 0-3.603-.54c-3.827-.11-7.644-.142-11.457-.152-.367 0-.843.254-.998.554-.707 1.378-.769 2.941-.44 4.581.086.431.3.591.723.516.556-.1 1.126-.156 1.915-.262-.486 1.804-.865 3.5-1.407 5.121-.317.947-.829 1.825-1.376 2.642-.494.736-1.27 1.196-2.276 1.051-.6-.087-.889.13-1.027.606-.348 1.2-.67 2.41-1.004 3.615l.132 1.012c.104.044.214.077.312.133 3.007 1.68 6.411 1.275 8.387-1.004 1.195-1.38 1.972-3.036 2.411-4.845.627-2.582 1.09-5.224 1.651-7.83.055-.253.291-.598.502-.614 2.93-.214 3.604.506 3.257 3.377-.324 2.682-.677 5.357-.926 8.058-.168 1.846.744 3.344 2.314 3.776 2.635.723 4.96.36 6.73-1.454.723-.74.855-2.684.31-3.632m50.685 1.176c-.091-.205-.384-.461-.59-.496-1.092-.188-1.34-.372-1.51-1.441-.095-.615-.187-1.254-.12-1.841.24-2.06.515-4.112.843-6.147.306-1.893.697-3.761 1.06-5.681-3.455-.747-6.655-.75-9.482.82-2.774 1.54-4.245 4.21-5.434 7.11l-.282-.184c-.048-.223-.094-.446-.146-.668-.706-3.072-2.208-5.64-5.335-6.958-3.177-1.34-6.231-1.121-9.162-.214-.29.09-.606.387-.676.676-.403 1.652-.336 3.363.28 5.116.186.524.464.77 1.028.646.41-.091.864-.062 1.387-.092-.405 2.484-.826 4.853-2.19 6.804-.732 1.046-1.724 1.644-3.18 1.392-.176-.03-.394-.014-.527.073-.715.468-1.44 2.778-1.032 3.662.539 1.176 1.65 1.555 2.762 1.837.139.035.282.033.422.047 2.638.243 4.466-.845 5.675-2.924 1.255-2.16 1.805-4.632 2.265-7.141.163-.89.3-1.787.466-2.77 1.22.904 1.79 2.065 2.073 3.254.477 2.006.813 4.03 1.125 6.047.098.637.34.932.902.849 1.389-.204 2.792-.385 4.13-.732 1.344-.35 2.074-1.252 2.35-2.73.47-2.514 1.47-4.801 3-6.758.392-.504.915-.9 1.377-1.344-.173 1.709-.531 3.252-.833 4.812-.373 1.919-.6 3.868-.21 5.929.41 2.15 1.857 3.567 4.014 3.859 1.654.225 3.147-.063 4.477-.836 1.344-.782 1.779-2.372 1.073-3.976m10.666-9.354c.643-1.31 1.762-2.03 3.35-2.01 1.278.016 2.126.67 2.462 1.956.153.583.214 1.178.318 1.767.184 1.897.172 3.751-.418 5.472-.518 1.507-1.456 2.602-3.118 2.92-1.512.29-2.69-.367-3.1-1.946-.752-2.886-.716-5.667.506-8.159m1.362 14.778c1.022-.083 1.738-.124 2.444-.2 7.172-.782 11.239-6.413 9.97-13.795-.575-3.356-2.831-5.893-6.143-6.872-2.527-.746-4.98-.73-7.38-.262-6.32 1.236-9.902 6.44-8.92 12.957.57 3.777 3.052 6.636 6.724 7.621 1.186.317 2.402.406 3.305.551M60.31 42.95c-.133-.027-.218-.06-.298-.06-1.66.005-1.919-.223-1.728-1.851.363-3.093.8-6.167 1.205-9.248l.505-3.83c-2.412-.648-4.638-.587-6.86-.378-.604.057-.778.336-.84.903-.43 3.997-.939 7.976-1.334 11.982-.163 1.65-.247 3.346-.108 5.038.122 1.483 1.137 2.375 2.623 2.72 1.934.453 3.66.055 5.275-.668 1.658-.741 2.281-2.634 1.56-4.608" fill="#004A98"/><path d="M9.992 52.659v.242l.242.023c.055.005 5.546.549 12.106 5.073 6.857 4.728 8.25 13.206 8.265 13.29l.035.226h85.764l.054-.198c.019-.077 2.105-7.718 8.442-12.528 5.43-4.12 11.958-6.32 12.023-6.341l.182-.06V11.33h-.532v40.674c-1.103.39-7.005 2.573-11.994 6.359-5.902 4.48-8.2 11.367-8.578 12.618H31.089c-.276-1.401-2.035-9-8.448-13.422-5.898-4.068-10.97-4.975-12.117-5.135V11.33h-.532v41.329z" fill="#004A98"/><path d="M138.624 54.3c-1.78.494-6.28 1.958-10.868 5.14-7.091 4.914-9.608 11.766-10.287 14.09H29.617c-.56-2.35-2.613-9.043-8.64-13.664-4.604-3.529-10.71-4.772-12.991-5.13V11.328H5.97v45.19l.9.095c.076.01 7.675.862 12.879 4.852 6.614 5.07 8.042 13.157 8.056 13.238l.14.842h91.114l.169-.796c.018-.082 1.845-8.227 9.674-13.654 5.44-3.773 10.894-5.02 10.948-5.03l.789-.177V11.33h-2.016V54.3z" fill="#004A98"/><path d="M60.654 20.328c-.03 2.328-1.928 4.19-4.237 4.16-2.311-.03-4.16-1.941-4.13-4.27.03-2.328 1.929-4.19 4.239-4.16 2.31.03 4.159 1.942 4.128 4.27" fill="#EC1C24"/><path d="M38.97 57.608c.63 0 1.18.393 1.436.888l1.116-.55c-.43-.76-1.208-1.49-2.553-1.49-1.829 0-3.247 1.28-3.247 3.155 0 1.876 1.418 3.156 3.247 3.156 1.345 0 2.113-.741 2.553-1.5l-1.116-.54a1.636 1.636 0 0 1-1.437.888c-1.106 0-1.912-.851-1.912-2.004 0-1.152.806-2.003 1.912-2.003m10.632 5.05v-6.102h-1.83l-1.483 3.687-1.48-3.687h-1.82v6.102h1.298v-4.272l1.72 4.272h.567l1.72-4.272v4.272zm3.468-2.178l.952-2.625.951 2.625h-1.903zm.138-3.924l-2.361 6.102h1.483l.384-1.034h2.616l.375 1.034h1.482l-2.35-6.102h-1.629zm5.234 0v6.102h1.299v-1.876l.475-.568 1.848 2.444h1.601l-2.589-3.239 2.424-2.863h-1.6l-2.159 2.726v-2.726zm7.228 5.059c-.293 0-.576-.155-.787-.33l-.493 1.043c.274.248.823.439 1.38.439 1.089 0 1.62-.54 1.995-1.28l2.515-4.931h-1.471l-1.52 3.239-1.51-3.24h-1.471l2.25 4.428c-.24.448-.44.632-.888.632m8.619-4.007c.649 0 1.198.393 1.455.888l1.115-.55c-.43-.76-1.208-1.49-2.551-1.49-1.831 0-3.248 1.28-3.248 3.155 0 1.876 1.417 3.156 3.248 3.156 1.343 0 2.112-.741 2.55-1.5l-1.114-.54a1.644 1.644 0 0 1-1.455.888c-.961 0-1.646-.604-1.84-1.483h2.919v-1.143h-2.9c.229-.823.897-1.381 1.82-1.381m9.105 4.007c-.595 0-1.363-.256-1.784-.695l-.677.869c.45.549 1.391.978 2.515.978 1.456 0 2.508-.741 2.508-1.793 0-.914-.805-1.4-1.419-1.463.668-.12 1.327-.622 1.327-1.39 0-1.016-.989-1.656-2.416-1.656-1.07 0-1.938.41-2.433.969l.65.815c.43-.411 1.061-.632 1.655-.632.695 0 1.245.238 1.245.723 0 .448-.522.649-1.245.649h-1.234v1.144h1.234c.915 0 1.345.22 1.345.705 0 .457-.465.777-1.27.777m8.198 1.028v-4.35l-.998 1.016-.728-.765 1.888-1.895h1.113v5.994zm6.05-3.739c-.054-.573-.378-1.221-1.223-1.221-.683 0-1.06.467-1.06.88 0 .63.55.9 1.106.9.448 0 .89-.208 1.177-.56m-3.254 3.22l.566-.981c.324.306.666.468 1.196.468.99 0 1.501-.827 1.501-1.688v-.135c-.288.402-.89.772-1.546.772-1.078 0-2.049-.675-2.049-1.95 0-1.17.935-2.058 2.301-2.058 1.814 0 2.58 1.402 2.58 3.1 0 1.807-1.017 3.092-2.787 3.092-.729 0-1.339-.242-1.762-.62m9.079-1.385c0-.63-.539-.897-1.114-.897-.449 0-.88.206-1.169.564.054.575.378 1.215 1.214 1.215.692 0 1.07-.46 1.07-.882M99.88 59.66c0-1.816 1.024-3.101 2.795-3.101.73 0 1.34.252 1.77.62l-.575.98c-.323-.306-.665-.468-1.195-.468-.88 0-1.5.746-1.5 1.699 0 .045 0 .08.008.126.28-.404.882-.772 1.537-.772 1.078 0 2.04.673 2.04 1.95 0 1.167-.926 2.058-2.292 2.058-1.824 0-2.588-1.402-2.588-3.092m5.925 2.192l.71-.89c.404.423.961.658 1.59.658.711 0 1.115-.406 1.115-.891 0-.53-.395-.89-1.078-.89-.494 0-.9.145-1.259.486l-.89-.234v-3.442h4.116v1.123h-2.839v1.466c.287-.288.772-.504 1.321-.504 1.016 0 1.923.728 1.923 1.94 0 1.278-.953 2.077-2.399 2.077-1.042 0-1.797-.342-2.31-.9" fill="#004A98"/></g></svg>