<svg xmlns="http://www.w3.org/2000/svg" viewBox="0 0 12.17 12.17"><defs><style>.cls-1{fill:#fff;}</style></defs><title>Asset 9</title><g id="Layer_2" data-name="Layer 2"><g id="Layer_1-2" data-name="Layer 1"><path class="cls-1" d="M12.17,9.61a2.79,2.79,0,0,1-.09.61,3.89,3.89,0,0,1-.18.59,2.34,2.34,0,0,1-1.05.92,3.24,3.24,0,0,1-2.07.41,3.82,3.82,0,0,1-.5-.11,3.14,3.14,0,0,1-.4-.13l-.48-.17L7,11.57a7.55,7.55,0,0,1-1.51-.72A12.78,12.78,0,0,1,3.18,9,13.33,13.33,0,0,1,1.31,6.71,8.23,8.23,0,0,1,.6,5.19L.44,4.77Q.3,4.43.26,4.29c0-.09-.07-.22-.12-.41A3.7,3.7,0,0,1,0,3.39a3.55,3.55,0,0,1,0-.46A3.4,3.4,0,0,1,.44,1.32a2.28,2.28,0,0,1,.92-1A2.45,2.45,0,0,1,2,.09,2.71,2.71,0,0,1,2.56,0a.42.42,0,0,1,.18,0c.1,0,.26.25.46.65l.26.47.3.55c.09.16.18.32.27.46l.15.22a2.94,2.94,0,0,1,.18.3.61.61,0,0,1,.06.25.73.73,0,0,1-.24.43,5,5,0,0,1-.54.48,4.65,4.65,0,0,0-.53.45c-.17.17-.25.3-.25.4a.58.58,0,0,0,0,.2L3,5.06l.12.21.1.17a9.63,9.63,0,0,0,1.5,2,9.38,9.38,0,0,0,2,1.5l.17.1.2.12.18.07a.59.59,0,0,0,.19.05c.11,0,.24-.09.4-.25a4.08,4.08,0,0,0,.46-.54A3.43,3.43,0,0,1,8.81,8a.68.68,0,0,1,.43-.25.53.53,0,0,1,.24.06A2.37,2.37,0,0,1,9.79,8l.22.15.46.27.55.3.46.26c.41.2.63.35.66.46A.42.42,0,0,1,12.17,9.61Z"/></g></g></svg>