<svg xmlns="http://www.w3.org/2000/svg" viewBox="0 0 15.49 12.17"><defs><style>.cls-1{fill:#fff;}</style></defs><title>Asset 10</title><g id="Layer_2" data-name="Layer 2"><g id="Layer_1-2" data-name="Layer 1"><path class="cls-1" d="M15.49,1.38a2.33,2.33,0,0,1-.43,1.31A4.07,4.07,0,0,1,14,3.75L10,6.56l-.36.26-.47.33c-.12.08-.27.18-.45.28a2.81,2.81,0,0,1-.5.24,1.38,1.38,0,0,1-.43.07h0a1.42,1.42,0,0,1-.43-.07,2.75,2.75,0,0,1-.49-.24c-.18-.1-.33-.2-.45-.28S6.08,7,5.89,6.82l-.37-.26L3.26,5,1.49,3.75a4,4,0,0,1-1-1A2,2,0,0,1,0,1.57,1.73,1.73,0,0,1,.36.45a1.23,1.23,0,0,1,1-.45H14.1a1.36,1.36,0,0,1,1,.41A1.32,1.32,0,0,1,15.49,1.38Zm0,2.54v6.86a1.4,1.4,0,0,1-1.39,1.39H1.38a1.32,1.32,0,0,1-1-.41,1.34,1.34,0,0,1-.41-1V3.92a3.92,3.92,0,0,0,.87.75Q4,6.8,5.17,7.66c.33.24.59.43.8.56a4.27,4.27,0,0,0,.81.42,2.52,2.52,0,0,0,1,.21h0a2.48,2.48,0,0,0,.95-.21,4.74,4.74,0,0,0,.82-.42l.8-.56q1.47-1.06,4.3-3A4.52,4.52,0,0,0,15.49,3.92Z"/></g></g></svg>