<svg xmlns="http://www.w3.org/2000/svg" viewBox="0 0 156.55 114.51"><defs><style>.cls-1{}</style></defs><title>logo 4</title><g id="Layer_2" data-name="Layer 2"><g id="Layer_4" data-name="Layer 4"><path class="cls-1" d="M78.61,62.49c.08,0,.16-.14,0-.14S78.5,62.49,78.61,62.49Z"/><path class="cls-1" d="M44.07,76.61c-1.66-.22-3.31-.5-5-.81a21.68,21.68,0,0,0-4.85-.94c-.28,0-.49.43-.16.46a29,29,0,0,1,6.63,1.48c.14,0,.3-.12.24-.24,1,.17,2,.32,3,.43C44.17,77,44.35,76.65,44.07,76.61Z"/><path class="cls-1" d="M141.57,57.23c0-.26,0-.51,0-.76s0-.73,0-1.09,0-.45,0-.67a.1.1,0,0,0-.13-.11,11.38,11.38,0,0,0-.54-2.16.57.57,0,0,1,0-.13s0-.05-.07-.06a10.88,10.88,0,0,0-.6-1.3,12,12,0,0,0-1.94-3.47c-.09-.11-.31,0-.23.14a10.5,10.5,0,0,1,1.07,1.73,9.9,9.9,0,0,0-1.65-1.58,11.23,11.23,0,0,0-.84-.85s-.13,0-.12.07v0c-.24-.28-.59-.71-1-.69a.14.14,0,0,0-.13.15v0a.1.1,0,0,0,.08.06h.05A1.13,1.13,0,0,1,136,47a4.66,4.66,0,0,0-1.54-.15,3.81,3.81,0,0,0-4.11,1,.15.15,0,0,0,0,.25c-1.75,1-2.72,2.52-1.14,4a2.59,2.59,0,0,0,.34,1.28c.1.2.47,0,.36-.23a2.49,2.49,0,0,1-.3-.88,0,0,0,0,0,0-.08l0,0a1.6,1.6,0,0,1,0-.38c.05.05.16,0,.23,0a2.22,2.22,0,0,0-.08.81s0,0,0,0a3.92,3.92,0,0,1,2.4-3,2.8,2.8,0,0,0-.32.2c-.15.11,0,.33.13.21a2.13,2.13,0,0,1,1.47-.4,5.62,5.62,0,0,1,.71.16l.1,0h0a11,11,0,0,1,2.58,1.59,6.17,6.17,0,0,1,.49,5.56,8.46,8.46,0,0,0-.41-3c0-.17-.33,0-.29.11a9.51,9.51,0,0,1-.18,4.94l-.13.24a6.93,6.93,0,0,1-1.47,1.8c-.38.22-.74.46-1.1.71l-.38.17,0,0a23.51,23.51,0,0,0-6.78-.87c-.26,0-.42.48-.1.49a30.25,30.25,0,0,1,5.7.73h0a13,13,0,0,1-6-.83,18.11,18.11,0,0,1-4.9-2.58c.11-.07.18-.2.07-.27-.54-.33-1.09-.65-1.64-1l-1.34-1.16c.5.38,1,.75,1.52,1.1.11.08.33-.1.2-.19a40.39,40.39,0,0,1-3.85-3c-.49-.43-1-1-1.5-1.57l-.91-1.16c-.36-.55-.74-1.09-1.15-1.6,1.48,1.35,3,2.72,4.41,4.09.13.12.38-.1.25-.24-2.72-2.77-5.64-5.34-8.6-7.84a.19.19,0,0,0-.24,0h0l-.07,0a30.3,30.3,0,0,0-11.49-4.48,9.36,9.36,0,0,0-4.22-.71l-.06,0-.76.05a12,12,0,0,0-4,.22c-1.42.36-2.74,1.68-3.86,2.76-.62-.09-1.26.91-1.64,1.44-.39.32-.78.65-1.15,1a17.76,17.76,0,0,0-1.76,1.6,22.15,22.15,0,0,0-6.36-4.68.17.17,0,0,0-.21.09c-.56-.25-1.13-.5-1.7-.73A6.29,6.29,0,0,0,69,41.68c-.07,0-.16.09-.14.16s0,.16,0,.18,0,.17.08.17H69c.08,0,.22-.25.09-.3a27.41,27.41,0,0,1,7.46,3.94.49.49,0,0,0-.25.26,20,20,0,0,0-4.68-2.54c-.07,0-.21,0-.18.14a1.87,1.87,0,0,1,.07.22,18.26,18.26,0,0,0-2.63-.83c-.61-.81-2-1.19-3.6-1.33-.11-.42-1.23-.56-1.63-.52a20.69,20.69,0,0,0-3.34.64c-1.27.13-2.3.3-2.76.38a.33.33,0,0,0-.24.2c-.47.11-.95.22-1.42.37-.3.09-.23.51.1.42s.68-.16,1-.24c-1.47.58-2.91,1.23-4.27,1.9a.22.22,0,0,0-.12.18,20.45,20.45,0,0,0-4.38,2.1c-.23.15,0,.45.19.3l.17-.09c-1.81,1.15-3.55,2.42-5.27,3.72-.21.15,0,.43.17.28a72.68,72.68,0,0,1,8.57-5.63q.87-.33,1.77-.6c-.73.35-1.45.73-2.16,1.16a.2.2,0,0,0-.08.31c-1.16.74-2.28,1.53-3.38,2.34a28.57,28.57,0,0,0-4.63,3.21c-.12.11,0,.2.1.18l-.34.31a.16.16,0,0,0-.27-.1c-2.11,1.34-4.15,2.75-6.14,4.26h0c-.8.43-1.6.83-2.42,1.21l-1.91.84q-1.21.51-2.46,1c-.21.07-.17.36.06.28a38.6,38.6,0,0,0,3.94-1.59c.82-.34,1.63-.7,2.43-1.07a.21.21,0,0,0,.21,0,2.48,2.48,0,0,1,.26-.19l1.16-.55a36.11,36.11,0,0,1-6.07,3.25,36.31,36.31,0,0,1-8.21.15c-.11,0-.22.17-.07.2a22.91,22.91,0,0,0,6.71.24C25.11,62.33,20,61.67,20.4,53.47a16.39,16.39,0,0,1,1.71-2.57,4.17,4.17,0,0,1,3.17-1.39,2.37,2.37,0,0,1,1.61.83,5.41,5.41,0,0,1,.05,1.87,3.49,3.49,0,0,1-.85.7c-.13,0-.2.22,0,.21a2,2,0,0,0,1.4-.64c1.51-1.42.08-4.17-1.75-4.86-2.94-1.09-6.69.44-8.41,3.11a9.44,9.44,0,0,0-1.5,6.1l-.05.15a.13.13,0,0,0,.09.19,16.51,16.51,0,0,0,2.14,6,14,14,0,0,0,1.73,2.41c-.43-.29-.87-.59-1.29-.89-.1-.08-.28,0-.22.17.25.5.46,1,.68,1.54,0,.07.17,0,.14-.07-.19-.51-.94-1.56,0-.83.68.52,1.38,1,2.08,1.51l.21.13a17.09,17.09,0,0,0,2.51,1.71c.27.28.54.53.78.75a13.29,13.29,0,0,0,4.82,3c.17.06.4-.21.2-.3a18.32,18.32,0,0,1-4-2.33c-.07-.05-.13-.12-.2-.18.72.5,1.41.91,1.77,1.15a18.31,18.31,0,0,0,3.39,1.72l.95.4c.59.32,1.18.61,1.78.87h0c-.25,0-.44.36-.14.42l3.36.74a42.76,42.76,0,0,0,11,1.35l-3.08.71c-.24.05-.32.46,0,.39,1.52-.34,3-.71,4.54-1.09l2.8,0A33.5,33.5,0,0,0,56.6,76c-1.11.38-2.23.74-3.35,1.07-.41.12-.3.71.14.58,2-.6,4-1.29,5.91-2,.35-.07.69-.13,1-.21a.2.2,0,0,0,.17-.26L62,74.45c-.49.28-1,.56-1.45.83-.1,0,0,.16.07.11,1-.51,1.9-1,2.84-1.57l.17-.09a.16.16,0,0,0,.06.13c-1,.51-1.91,1-2.88,1.56,0,0,0,0,0,0l1.36-.69c-.05.07,0,.18.12.15a17.7,17.7,0,0,0,7.43-4.09c.1-.09,0-.17-.13-.09a19.8,19.8,0,0,1-7.22,3.93c2-1,4.08-2.11,6.08-3.24.1-.05,0-.17-.08-.11-.63.35-1.27.68-1.9,1l.07,0,.17-.08a.24.24,0,0,0,.13-.13A27.74,27.74,0,0,0,70.3,69.4c.25-.18.51-.35.76-.54a.11.11,0,0,0,0-.19c.46-.46.92-.92,1.35-1.42,0,0,0-.06,0,0-.54.56-1.1,1.09-1.67,1.62l-1.14.79c1-.81,1.89-1.68,2.86-2.66l0,0,1.66-1.34c.09-.08.08-.15,0-.2.79-.64,1.56-1.32,2.31-2a21.44,21.44,0,0,1-1.6,2,.21.21,0,0,0-.08.18c-.26.26-.5.52-.78.77s.14.61.42.34a14,14,0,0,0,2.46-3.08c.29-.44.55-.91.8-1.38l1.14-1.15c1.74,2.42,3.48,4.84,5.28,7.2S88.5,72.1,91,73.61A30.68,30.68,0,0,0,108.28,78c2.44.66,5.57-.09,7.87-.45a36.35,36.35,0,0,0,10-3.09,31.86,31.86,0,0,0,12.37-10.09,9.27,9.27,0,0,0,2.94-5.91c.18-.36.37-.71.54-1.08S141.78,57.07,141.57,57.23ZM16.84,56.75a8.34,8.34,0,0,1-.1-1.21l.47-1.37A15,15,0,0,0,16.84,56.75ZM138.36,55.1c0,.28,0,.57.07.85s-.16.47-.24.71c0-.15,0-.3-.05-.45A8.07,8.07,0,0,0,138.36,55.1Zm-2.84-5.6a.21.21,0,0,0-.23.09,5.75,5.75,0,0,0-.78-.31,6.65,6.65,0,0,0-.76-.23,12.69,12.69,0,0,1,1.75.23,3.63,3.63,0,0,1,.41.27l.14.15A3.65,3.65,0,0,0,135.52,49.5Zm-3.4-.54a6.22,6.22,0,0,1,1.37-.38l.26.13h-.58a.2.2,0,0,0-.17.22A4.32,4.32,0,0,0,132.12,49Zm4.78-.89-.28-.2.27.18Zm-3.05.64-.23-.15.2,0,.55.08.23.13Zm-2.65-.64c-.25.12-.5.26-.73.4l.09-.11Zm7.4,10.63c-.08.32-.15.65-.25,1a.22.22,0,0,0,.17.31c-.07.21-.15.43-.23.65a.45.45,0,0,0,0,.11c-.06.12-.14.22-.21.34a.75.75,0,0,0-.25-.64C138,59.92,138.34,59.32,138.6,58.7ZM132.26,47a.14.14,0,0,0,.15.2,9.43,9.43,0,0,0-1.58.62A3.91,3.91,0,0,1,132.26,47Zm-2.07,1.62-.1.16A4,4,0,0,0,129,49.81,2.74,2.74,0,0,1,130.19,48.57ZM129,51l.44-.42.05.07h0v.1a2.61,2.61,0,0,0-.25.76A3,3,0,0,1,129,51Zm.93.37a3.41,3.41,0,0,1-.09-.48,2.89,2.89,0,0,1,1.31-1.2A3.73,3.73,0,0,0,130,51.4Zm6.41,8.41a.35.35,0,0,0,.4-.18c.12-.29.21-.59.3-.88a12,12,0,0,0,.94-2.13,1.82,1.82,0,0,0,.07-.25c0,.15,0,.29,0,.44s-.09.27-.14.4a32.94,32.94,0,0,1-1.47,3s0,0,0,.05a.35.35,0,0,0-.38,0l-.11,0C136.16,60.11,136.26,60,136.38,59.81ZM131,62.88a.24.24,0,0,0,.38.2l.34-.15c-.62.37-1.25.72-1.91,1h0c.21-.11.34-.34.08-.48l-1.42-.74.76.06A10.1,10.1,0,0,0,131,62.88ZM115.11,74.83a1.25,1.25,0,0,0-.38-.09l-.36,0,2.11-.55c.74-.2,2.46-1,3.21-.77,0,.15,0,.29,0,.44l-3.59.78ZM97,72.91c-1.7-.51-3.39-1-5-1.6h0l-.56-.85a30.48,30.48,0,0,0,5,2.08ZM71.33,57.14l.17.27a1.27,1.27,0,0,0-.38.2l-.41.29a.53.53,0,0,0-.57-.4,8.7,8.7,0,0,0,.44-1.1,12,12,0,0,1,1.88,0c-.17.29-.33.6-.51.9h0l-.28-.38C71.52,56.8,71.21,57,71.33,57.14Zm-8-6.84c.38-.12.75-.21,1.13-.32a6,6,0,0,1,1,.5c-.71.05-1.42.11-2.14.21A.64.64,0,0,0,63.35,50.3Zm2.56,1.57c-.26.09-.51.2-.77.3A7.64,7.64,0,0,0,64.08,52C64.73,51.9,65.35,51.88,65.91,51.87ZM65,48.5c.87-.06,1.75-.07,2.63-.06a1.51,1.51,0,0,0-.16.31c-.19.59.6.52.85.2s.93-.31,1.62-.1l0,0a.87.87,0,0,0-.06.94l.07.08a1,1,0,0,0,.75.33,1.46,1.46,0,0,0-.14.38.16.16,0,0,0-.16-.13l-.48,0a18.45,18.45,0,0,0-2.54-.62A5.75,5.75,0,0,0,65,48.5ZM112.81,60l-1.08-.54a11.72,11.72,0,0,0-2-1.61,1.62,1.62,0,0,0,.1-.18l2.13,1.37C112.21,59.39,112.5,59.7,112.81,60ZM111,53.79a7.87,7.87,0,0,0-1.6-1.67,5.63,5.63,0,0,0-2.11-1.64.27.27,0,0,0-.27.11c-1.6-.86-3.3-1.54-4.6-2.15-.64-.3-1.38-.67-2.17-1,.73,0,1.48.12,2.23.2l.3.13a.19.19,0,0,0,.22-.06l.57.07a20.42,20.42,0,0,1,2.64,1.62,21.73,21.73,0,0,1,4.9,4.43ZM99.51,71.6l-.66-.3a.29.29,0,0,0,0-.16l.73.25A.78.78,0,0,0,99.51,71.6Zm-19-19.4a1.42,1.42,0,0,0-.22.28l-.09,0A20.62,20.62,0,0,1,84.39,46l.86-.61a.1.1,0,0,0,.08,0h0l.06-.05A17.85,17.85,0,0,0,82.92,48c-.1.12-.08.21,0,.26A17,17,0,0,0,80.56,52.2Zm2.91-.11c.11-.17.23-.34.33-.51a24.84,24.84,0,0,1,1.81-2.38l.57-.43a11.84,11.84,0,0,1,1.8-.85h0a5.54,5.54,0,0,1,.58-.17l.7-.2q.42-.09.87-.15a13.9,13.9,0,0,0-4.82,3.47C84.68,51.26,84.06,51.67,83.47,52.09Zm11.34,1s0,0-.07-.07l-.39-.26a11.59,11.59,0,0,1,1.75-.37c.72.31,1.43.63,2.15.93A12.35,12.35,0,0,0,94.81,53.11Zm3.92,5c.54.3,1.07.63,1.59,1A9.27,9.27,0,0,1,98.83,59l-1.18-.72C98,58.17,98.37,58.14,98.73,58.11ZM102,64.9c.13.1.25.2.39.29-1.24-.51-2.49-1-3.72-1.55A26.09,26.09,0,0,1,96,61.09,39.68,39.68,0,0,0,102,64.9Zm.32-3.86.57-.09.7.51c.45.32.87.67,1.29,1C104.6,62.32,103.61,61.76,102.36,61Zm.09-11.34a22.56,22.56,0,0,0-6-.9,4.24,4.24,0,0,0,.38-.87,1.52,1.52,0,0,0,0-.21,16.5,16.5,0,0,1,5.78,2Zm-4.06-3a7.08,7.08,0,0,0-1.48-.26.49.49,0,0,0-.19-.22,5.1,5.1,0,0,0-2-.72,3.65,3.65,0,0,1,.41-.18c.76.12,1.5.27,2.25.45a.49.49,0,0,0,.45.27l1.09.16.52.17A5.86,5.86,0,0,0,98.39,46.74ZM96.73,44l-.55-.26A14.19,14.19,0,0,1,101.69,45l.08.09a11.44,11.44,0,0,0-1.13-.25l-.1,0A8.33,8.33,0,0,0,96.73,44Zm-2.81-1.26c-.26-.1-.53-.17-.79-.25a32.84,32.84,0,0,1,3.7-.07,5.4,5.4,0,0,1,1,.1A11.78,11.78,0,0,0,93.92,42.73Zm0,2.47a.38.38,0,0,0,0,.28,14.36,14.36,0,0,0-3.3.35A17.94,17.94,0,0,1,92.52,45a.09.09,0,0,0,.07.06C93.05,45.1,93.51,45.14,94,45.2Zm-.68,14.87a.89.89,0,0,0-.07.19l-1-.63,0-.06.3-.39C92.79,59.48,93,59.78,93.28,60.07Zm-2.22-2.72-.7,1.13-1.54-1,.27-.17a16.24,16.24,0,0,1,1.54-.52C90.77,57,90.91,57.18,91.06,57.35Zm9.19,7.74c.31.11.61.21.91.33.76.3,1.51.62,2.26.91-.91-.18-1.84-.33-2.76-.46l-.47-.41A.8.8,0,0,0,100.25,65.09Zm-6.64,2.49,1,.62a.62.62,0,0,0-.25.14Zm10.51-1.44c.61.29,1.25.54,1.87.77-.72-.18-1.44-.35-2.17-.5A.48.48,0,0,0,104.12,66.14Zm.81-14.34c.77.27,1.54.55,2.29.85.41.32.79.64,1.13,1-.7-.29-1.4-.6-2.1-.91A13.88,13.88,0,0,0,104.93,51.8Zm-3.59-8.67a.38.38,0,0,0-.33.14l-.76-.26a6,6,0,0,0-.91-.47c.72.18,1.43.39,2.14.62A.7.7,0,0,1,101.34,43.13Zm-6.4-1.39c.62.07,1.24.17,1.86.27-.22,0-.43,0-.66,0-.68,0-1.69,0-2.7,0l0,0a4.07,4.07,0,0,0-2.49-.53c.25-.06.51-.1.76-.14C92.82,41.42,93.94,41.62,94.94,41.74Zm-3.61.16c-.25.08-.5.18-.74.28a7.89,7.89,0,0,0-2.49.62.2.2,0,0,0-.1-.12A8.28,8.28,0,0,1,91.33,41.9Zm-2.14,1.5a5.48,5.48,0,0,1,1-.12l0,0a.16.16,0,0,0,0,.13A13.86,13.86,0,0,0,87,44.69,17.6,17.6,0,0,1,89.19,43.4Zm-2,2.46a.44.44,0,0,0,.18-.18,4.15,4.15,0,0,1,.34-.24l.27-.18a.28.28,0,0,0,.16,0,.52.52,0,0,0,.44-.36c.65-.24,1.32-.43,2-.61a.49.49,0,0,0,.16.43,24.83,24.83,0,0,0-2.85,1.69l-.23,0a.7.7,0,0,0-1.11,0c-.16.16-.31.33-.47.5l-.42.16A14.83,14.83,0,0,1,87.15,45.86Zm-7.34,5c-.2.48-.38,1-.53,1.45,0,0,0,0-.08,0a2,2,0,0,0-.09-.26c0-.16.07-.32.11-.48s-.18-.18-.25-.06l-.06.13-.1-.15.09-.2c.34-.43.7-.84,1.06-1.24-.06.21-.13.42-.18.64A.13.13,0,0,0,79.81,50.87Zm-3.63,5.24c-.2-.24-.39-.48-.59-.71l.21.13a.74.74,0,0,0,.41.08c.09.07.16.15.24.22A1.19,1.19,0,0,0,76.18,56.11Zm1-1.68A3.86,3.86,0,0,0,76.63,53c.23.33.46.66.67,1,1,1.51.6,1.52-.18,1.08l-.06,0A.91.91,0,0,0,77.21,54.43Zm-.64-4c.36.18.74.35,1.11.52a5.47,5.47,0,0,1,.53.66.29.29,0,0,0,0,.09A8.94,8.94,0,0,0,76.57,50.45Zm1.57,3.3a1.31,1.31,0,0,0,0,.28L78,53.78A.35.35,0,0,0,78.14,53.75Zm.13-3.52a.38.38,0,0,0,.25,0l-.11.18A.86.86,0,0,1,78.27,50.23Zm-2.91-1.15-.6-.35c-.3-.33-.6-.65-.91-.95l1,.52c.29.22.57.45.85.69h0A.27.27,0,0,0,75.36,49.08ZM78.7,55ZM68.06,52a7.86,7.86,0,0,1,2.28.7,13.51,13.51,0,0,0-2.61-.49A.81.81,0,0,0,68.06,52Zm5.67,7.24c.2-.44.41-.87.62-1.3a.13.13,0,0,0,.11.11h0c0,.17.09.33.12.5l-.35.34A3.58,3.58,0,0,0,73.73,59.22ZM79,55.91a.29.29,0,0,0,0-.32h0a.53.53,0,0,0,.38-.36s0,0,0-.06l.12.11-.09.35c-.14.63.41.91.9.76a.87.87,0,0,0,.25.39l.11.1a.27.27,0,0,0-.09,0L79.58,57A6.08,6.08,0,0,0,79,55.91Zm21.09,16.35,2,.48a1,1,0,0,0-.11.17c-.71-.12-1.4-.27-2-.41A.58.58,0,0,0,100.12,72.26Zm5.55-1a1.21,1.21,0,0,0-.31-.72l-.11-.12c1.1.39,2.22.75,3.36,1.06C107.63,71.42,106.65,71.36,105.67,71.26Zm13-11.5c-.6-.55-1.26-1.07-1.9-1.61l-.14-.13,0,0c1,.75,2,1.5,2.88,2.11.52.35,1,.69,1.58,1C120.31,60.69,119.49,60.24,118.68,59.76Zm.88-1.55c-.57-.32-1.13-.65-1.7-1h-.06l-.87-.6a2.16,2.16,0,0,0-.24-.35l1.65.87C118.74,57.49,119.15,57.86,119.56,58.21Zm1,14.39c.56-.23,1.11-.46,1.65-.66s1.28-.5,1.91-.76h0l1.36.09c.17,0,.32-.26.1-.29l-.31,0,.94-.19c-.58.52-1.17,1-1.79,1.52l-.07,0a.44.44,0,0,0-.25.21c-.27.2-.52.41-.8.59l0,0a3.72,3.72,0,0,0-1.62.37.39.39,0,0,0-.27,0l-.86.17C120.42,73.41,120.58,73,120.55,72.6Zm4.86-9.42a.74.74,0,0,0-.16-.1l-.76-.34a16.21,16.21,0,0,0,2.12.62.46.46,0,0,0,.37-.14,22.22,22.22,0,0,0,2.27.73A13,13,0,0,1,125.41,63.18Zm-9.12-7.58-.44-.7,0,0a.23.23,0,0,0,.31.06l1.1,1.11Zm-4.69-5.74a9.53,9.53,0,0,0-3.08-1.76L108.4,48a.24.24,0,0,0,0-.2,8.75,8.75,0,0,0-2.09-2.43l.49.28A20.7,20.7,0,0,1,111.6,49.86ZM89,41.36a14.4,14.4,0,0,0-1.57.65.36.36,0,0,0-.22,0c-.2.1-.39.21-.58.32l.09-.08A5.09,5.09,0,0,1,89,41.36Zm-9.92,7.07-.36.51c-.08-.16-.16-.32-.25-.47-.19-.35-.37-.7-.55-1a.11.11,0,0,0,0-.09h0c-.11-.23-.23-.46-.35-.69A13.41,13.41,0,0,1,79.08,48.43Zm-6.43-4.16a19.8,19.8,0,0,1,1.86,1,21.81,21.81,0,0,1,1.95,1.35c.15.3.32.6.49.9A15.13,15.13,0,0,0,71.77,44C71.87,43.78,72.31,44.11,72.65,44.27Zm-1.12,2.52.11.06c-.18.1-.29.31-.11.45s.53.46.79.7c-.53-.27-1.07-.52-1.6-.78a.18.18,0,0,0-.19.07,2.11,2.11,0,0,0-.14.35l-.25,0c0-.2,0-.38-.3-.46-.06,0-.14,0-.14,0v.07a29,29,0,0,0-7.45-1.26,22.2,22.2,0,0,1,6.36,0A26.33,26.33,0,0,1,71.53,46.79Zm-19.27,18a.73.73,0,0,0,0,.75h0c-.35.15-.77.37-1.23.61-.74.28-1.48.55-2.23.81l-.8.15A48.19,48.19,0,0,1,52.26,64.83ZM47.9,64c.31-.25.64-.5,1-.75.54-.3,1.08-.59,1.59-.91a1.15,1.15,0,0,0,.32-.29c.35-.21.71-.41,1.07-.6a.81.81,0,0,0,.23.47C50.71,62.64,49.31,63.35,47.9,64Zm5.87,4.62a4.17,4.17,0,0,0,.84.16c-1.11.3-2.24.57-3.37.81C52.09,69.33,52.93,69,53.77,68.63Zm.67,2.21c.12,0,.25,0,.37,0a.48.48,0,0,0,.32-.15c1.23-.32,2.45-.7,3.66-1.12-1.46.54-2.94,1.07-4.43,1.5L53.89,71ZM55.9,56c.9-.3,1.79-.59,2.69-.87a1.11,1.11,0,0,0,.82-1.29l.51-.12a1,1,0,0,0,.46-.3c.35-.08.71-.12,1.06-.17a1.05,1.05,0,0,0-.17.63c-1,.49-2,1-3,1.59-.79.15-1.57.34-2.37.56A0,0,0,0,0,55.9,56Zm-.14-2.67c.34-.16.69-.3,1-.45.55-.16,1.1-.33,1.66-.47a6.9,6.9,0,0,0-.63.42C57.14,53,56.44,53.12,55.76,53.3Zm5.41-3.21a34.72,34.72,0,0,0-12.29,4.36c.29-.22.57-.44.87-.65a35.69,35.69,0,0,1,6.58-3.12c.19-.07.15-.34-.06-.27a31.32,31.32,0,0,0-4.09,1.77l.33-.21a27.24,27.24,0,0,1,4.72-2.17c.22-.08.71-.25,1.35-.44a16.69,16.69,0,0,1,4.75.28C62.63,49.76,61.9,49.91,61.17,50.09Zm3.91-7.91a6.57,6.57,0,0,1,3,.75l-.52-.08a21.71,21.71,0,0,0-2.6-.6Zm2.24,2.07a21.14,21.14,0,0,0-4.21,0h-.35l.59-.25a.34.34,0,0,0,.12-.12l1.45-.06A17.83,17.83,0,0,1,67.32,44.25Zm-2.83-2.54c-.72,0-1.46,0-2.19,0C63.27,41.16,64,41.16,64.49,41.71Zm-6.66,1.54c.69-.26,1.39-.49,2.09-.72a21.52,21.52,0,0,1,2.89-.09A46.42,46.42,0,0,0,57,43.59Zm-.53,2.17a26.28,26.28,0,0,1,3.34-.94.17.17,0,0,0,.09.27l-.54.18A26,26,0,0,1,56,46.13C56.44,45.88,56.87,45.64,57.3,45.42Zm-2,1.19A37.56,37.56,0,0,0,60.82,45a.38.38,0,0,0,.24.07,24.54,24.54,0,0,1,3.7.12c-.86,0-1.71.1-2.56.21-.23,0-.31.4,0,.38a28.42,28.42,0,0,0-7.08.92Zm-1,3.46,1.66-.29a31.46,31.46,0,0,0-5.18,2.7A37.77,37.77,0,0,0,47.31,55c-.59.26-1.16.55-1.74.83a.36.36,0,0,0,0-.11l.4-.31c.46-.31.93-.62,1.39-1,1.35-1,2.66-2,4-3,.3-.22.35-.33.18-.31l1.06-.81a.48.48,0,0,0,.21-.41c.24-.11.49-.2.73-.29C53.54,49.94,53.77,50.16,54.28,50.07ZM45.55,72.21a.45.45,0,0,0,.07.38c-1.28-.09-2.56-.22-3.83-.37-.7-.08-1.39-.17-2.07-.28-.88-.23-1.75-.47-2.62-.75-.09-.11-.21-.2-.31-.3C39.64,71.56,42.63,72.37,45.55,72.21Zm-9.76-8.14c-.42.05-.85.11-1.27.13,1-.51,2-1.05,3-1.59ZM43,67.25c.62-.19,1.23-.41,1.83-.64a3,3,0,0,0,.22.58c-.17.13-.35.25-.52.39a.65.65,0,0,0-.49-.23Zm9.28-20,.58-.24h0l1-.18-.3.29c-.8.25-1.6.51-2.39.81C51.59,47.72,51.94,47.5,52.3,47.27ZM49.77,49.1l.4-.22c-.06.36.14.71.59.62a47.64,47.64,0,0,0-6.4,3.82C46.15,51.89,47.92,50.45,49.77,49.1Zm-1,2.69c.31-.15.61-.31.92-.45C47.74,52.58,45.86,53.83,44,55,45.53,53.91,47.14,52.83,48.73,51.79ZM44.86,65.14l0,.07a.5.5,0,0,0,0,.13,27.23,27.23,0,0,1-2.73.9l.45-.27C43.31,65.73,44.09,65.45,44.86,65.14ZM43.26,55c-1.12.8-2.21,1.64-3.24,2.52l-.61.35A43.18,43.18,0,0,1,43.26,55Zm-5.19,1.51c1.54-1.13,3.09-2.23,4.68-3.27l-.19.17v0c-.81.64-1.61,1.28-2.43,1.91-.28.22-.59.44-.91.67ZM37.92,58c1-.62,1.95-1.29,2.89-2-1.06.87-2.08,1.78-3.08,2.71,0,0,0,0,0,0a46.91,46.91,0,0,1-9.93,4.06.15.15,0,0,0-.07,0l-1.31.22L26.17,63a1.87,1.87,0,0,0-.41-.34C30.13,62.3,34.19,60.32,37.92,58Zm-6.45,5.54-.7.36a1.78,1.78,0,0,0-.27.17l-1-.12.13,0,.45-.17Zm-3.12,3.6c.46.18.92.37,1.37.57l.91.39a.6.6,0,0,0-.39.37l-.58-.15c-.67-.36-1.34-.73-2-1.11Zm-3.79-2.62a.41.41,0,0,0,.47-.31h.09a15.33,15.33,0,0,0,2.16,1.28l-1.4.11-.14,0-1-.4-.9-.91ZM23.05,62.6l.41,0a.38.38,0,0,0,.07.25L23,62.77c-.17,0-.37.23-.17.32s.64.29,1,.43a.81.81,0,0,0-.39.33l-.64-.65-.43-.45c-.12-.17-.25-.33-.36-.49A2.72,2.72,0,0,0,23.05,62.6ZM21,62.09a17.43,17.43,0,0,0,2.69,3.2c-.84-.54-1.68-1.1-2.51-1.67-.24-.26-.47-.53-.7-.8l-.1-.21c.21,0,.5-.18.35-.37a13.13,13.13,0,0,1-1.11-1.71.43.43,0,0,1,0-.05C20,61,20.51,61.56,21,62.09ZM23.51,48.8a.17.17,0,0,0,.07-.16,4.14,4.14,0,0,1,2,.11c-2.49-.14-4.79,1.85-5.77,4.17a.57.57,0,0,0-.41.47c0,.33,0,.71,0,1.14v0c0,.53,0,1.14.07,1.77a14.67,14.67,0,0,1-.23-1.78c0-.21-.21-.22-.35-.14a11.07,11.07,0,0,1,2.81-4.2C22.24,49.77,22.88,49.33,23.51,48.8Zm-.68,0a10.46,10.46,0,0,0-2.16,1.67c-.23.19-.45.39-.67.59a20.45,20.45,0,0,1,1.18-1.79A13.7,13.7,0,0,1,22.83,48.79ZM18.5,61.6a18.66,18.66,0,0,1-1.16-2.81,16,16,0,0,1,2.21-8.88c.4-.18.78-.33,1.15-.47-.32.39-.61.8-.89,1.22a.16.16,0,0,0-.26,0A14.81,14.81,0,0,0,18,54.29c-.07.21-.12.42-.19.62a.25.25,0,0,0-.08.17v.11c-.13.49-.25,1-.34,1.49,0,.12.07.17.16.17,0,.3,0,.61,0,.91s0,.34,0,.51a.19.19,0,0,0,.16.2,7.35,7.35,0,0,0,1.16,3.05l-.1,0A.22.22,0,0,0,18.5,61.6Zm.14-3.51a10.68,10.68,0,0,1-.34-1.89A12.54,12.54,0,0,1,18.63,55,17.24,17.24,0,0,0,18.64,58.09Zm3.29,7.83a17.64,17.64,0,0,1-2.16-2.3,12.87,12.87,0,0,1-1.1-1.72A36.7,36.7,0,0,0,22,65.83.11.11,0,0,0,21.93,65.92Zm5.4,3.64c-1.12-.92-2.24-1.83-3.31-2.8-.24-.21-.47-.43-.7-.65a.29.29,0,0,0,0-.16L26.15,68a.28.28,0,0,0,.14.17l.29.14c1.31,1,2.63,1.9,4,2.82C29.44,70.62,28.37,70.1,27.33,69.56Zm4.48,1.36a.27.27,0,0,0-.35.23c-1-.61-1.93-1.23-2.88-1.87.65.29,1.3.56,2,.81a.19.19,0,0,0,.11.22c.4.23.82.43,1.23.64Zm-.15-2.76c-.83-.38-1.68-.74-2.52-1.1l2.08-.23q.74.15,1.47.24c-.25.37-.24.82.37.93s1.07.15,1.59.2l.77.09a1.07,1.07,0,0,0-.15.22C34.07,68.37,32.87,68.26,31.66,68.16Zm3.73,3.55c.5.19,1,.36,1.52.53l-.43,0c-.84-.29-1.67-.6-2.49-1C34.46,71.46,34.92,71.6,35.39,71.71ZM61,73.94a24.48,24.48,0,0,1-6.64,1.44,24.3,24.3,0,0,0,3-.77c.13,0,.11-.22,0-.17a23.83,23.83,0,0,1-4.64,1c-.52,0-1-.1-1.57-.18-.08,0-.19.13-.08.16l.39.09h-.21a.16.16,0,0,0-.16,0l-.17,0c-1.12,0-2.23,0-3.33,0-.53,0-1.06-.1-1.6-.18,0,0-.05,0,0,0,.25,0,.49.08.74.11A37.62,37.62,0,0,1,35,73.39a40.29,40.29,0,0,0,5.83,1,34.56,34.56,0,0,0,3.79.68.48.48,0,0,0,.49-.45l1.6.22c-.14.17.23.44.5.45h.46c1,0,2.07,0,3.29.1.15,0,.09-.07.19-.17a16.11,16.11,0,0,0,5.42-1c.82-.17,1.57-.38,2.37-.62l-.5.18c-.26.09-.21.47.07.37l.72-.27c.09.07.25,0,.49-.18,1.26-.46,2.52-.92,3.77-1.41Zm2.2-14.32c-2.23,1-4.48,1.94-6.69,3,2.51-1.33,5-2.67,7.55-4a.88.88,0,0,0,.33-.36l.83-.2c.41,0,.81,0,1.23.06a12.47,12.47,0,0,0-2.69,1.5A.66.66,0,0,0,63.24,59.62Zm1.82,11.57-1.23.49c1-.56,2-1.14,3-1.76C66.26,70.35,65.66,70.77,65.06,71.19Zm3.78-2.71s0,0-.07,0A48.1,48.1,0,0,1,64,71.33a20.81,20.81,0,0,0,2.18-1.47c1-.48,1.92-1,2.85-1.52Zm2.91-2.25c-.11.09-.22.18-.34.26-1.31.86-2.66,1.62-4,2.33l.11-.13a23.9,23.9,0,0,0,2.23-1.93l.07-.06a25.16,25.16,0,0,0,2.82-1.47Zm6.83-6v0c.05-.13,0-.17-.14-.16l0-.05a1,1,0,0,0,.29-.54l.07-.11c.06-.11.16-.27.25-.44l0,0,.09.14,0,0,.09.34a.76.76,0,0,0,0,.16Zm.48.61.49-.51a14.14,14.14,0,0,0,1.47,3Zm2.87,3.67a.24.24,0,0,0,.26-.14c.24.38.49.76.74,1.14s.43.74.65,1.1Zm3.71,4.42a1.26,1.26,0,0,0,.56-.17,31.71,31.71,0,0,0,3.11,3A24.05,24.05,0,0,1,85.64,68.92Zm5.67.31-.4-.11a.41.41,0,0,0-.36,0L89.79,68C90.28,68.41,90.79,68.83,91.31,69.23Zm.87,4.24-1.26-.71a1.13,1.13,0,0,0,.35-.09,65.46,65.46,0,0,0,9.19,3.93A31.08,31.08,0,0,1,92.18,73.47Zm10.43,1-2.17-1a15.61,15.61,0,0,0,4.66.53c2,.14,4,.15,5.92.15h0c.8,0,1.6-.09,2.42-.1-.59.2-1.26.39-1.9.56C108.55,74.6,105.55,74.72,102.61,74.5Zm7.82,3a.22.22,0,0,0-.24-.13l-.78,0a8,8,0,0,1-.85-.17,36.59,36.59,0,0,0,5.75-.34,1.5,1.5,0,0,0,.87-.54l.33,0c1.82.45,5-.84,6.35-1.41A.26.26,0,0,0,122,75l-.73.35c-.18.08-.2.33,0,.37-1.1.32-2.2.6-3.31.85A29.37,29.37,0,0,1,110.43,77.46Zm11-1.83c2.44-1.06,4.93-2.09,7.34-3.26-.47.29-.95.57-1.44.83A31.31,31.31,0,0,1,121.48,75.63Zm10.13-5.14a.25.25,0,0,0-.12,0c-.64.27-1.27.56-1.9.85a29,29,0,0,0,7.7-6.53.55.55,0,0,0,.22.1A34.54,34.54,0,0,1,131.61,70.49Z"/><path class="cls-1" d="M24.92,14.74l5.35,9.67.93-.51.91,1.65L27.88,27.9,27,26.25l.93-.52-2.34-4.22-3.46,1.92,2.34,4.22.92-.51.92,1.65L22,31.13l-.91-1.65L22,29,16.69,19.3l-.93.51-.91-1.65,4.23-2.34L20,17.47l-.93.51L21,21.48l3.46-1.92-1.94-3.5-.92.51-.92-1.65,4.24-2.34.91,1.65Z"/><path class="cls-1" d="M34.74,24.48,33.5,21.63l2.85-1.24,1.24,2.85Z"/><path class="cls-1" d="M51.05,16.5l.59,1.81-3.22,1.05-6.23-5.55-.77.25,1.65,5.06,1-.33.58,1.79-4.52,1.47-.59-1.79.93-.3L37,9.43l-.92.3L35.54,8l6.4-2.08a6.06,6.06,0,0,1,1.53-.29,3.51,3.51,0,0,1,1.38.21A2.92,2.92,0,0,1,46,6.57,4.22,4.22,0,0,1,46.75,8a7.53,7.53,0,0,1,.39,1.94,3.09,3.09,0,0,1-.22,1.35,2.53,2.53,0,0,1-.73.92,4.31,4.31,0,0,1-1.08.6l4.77,4.07ZM39.65,8.6l1.14,3.51L43,11.39a2.21,2.21,0,0,0,1-.61,1.8,1.8,0,0,0,.44-.87A1.77,1.77,0,0,0,44.34,9a1.62,1.62,0,0,0-.53-.76,2.08,2.08,0,0,0-.94-.42A2.56,2.56,0,0,0,41.59,8l-2,.63Z"/><path class="cls-1" d="M54.15,17.85l-.68-3,3-.68.68,3Z"/><path class="cls-1" d="M81,4.18l-1.8.05a2,2,0,0,0-.33-1.14,2.21,2.21,0,0,0-.73-.67,3.31,3.31,0,0,0-.9-.31c-.31-.06-.59-.09-.83-.12L75.34,2l.12,4.17,3-.08,0,1.89-3,.08.13,5,1.12,0,0,1.88-4.9.13,0-1.86v0l1,0-.29-11-1,0,0-1.88L80.45,0Z"/><path class="cls-1" d="M96.32,14.07,96.14,16l-3.36-.32L89.26,8.08,88.46,8,88,13.3l1.06.1-.18,1.88-4.74-.45L84.28,13l1,.1,1-11-1-.09L85.49.07l6.7.63A5.63,5.63,0,0,1,93.71,1a3.64,3.64,0,0,1,1.18.74A3,3,0,0,1,95.61,3a4,4,0,0,1,.14,1.62,7.39,7.39,0,0,1-.4,1.93,3,3,0,0,1-.75,1.15,2.4,2.4,0,0,1-1,.55,4.43,4.43,0,0,1-1.23.13L95.1,14ZM89,2.29,88.66,6,91,6.18A2.24,2.24,0,0,0,92.11,6a1.72,1.72,0,0,0,.75-.62,1.89,1.89,0,0,0,.3-.87,1.73,1.73,0,0,0-.2-.91,2.15,2.15,0,0,0-.69-.76A2.63,2.63,0,0,0,91,2.46l-2-.19Z"/><path class="cls-1" d="M110.65,17.27l1,.24-.44,1.84-5.12-1.22.43-1.83,1.13.27-.12-2.6-4.26-1-1.36,2.25,1,.24-.43,1.83-4.08-1,.44-1.84,1,.25,7.51-11.52,2.33.55Zm-6.21-6,3,.72-.22-5.21Z"/><path class="cls-1" d="M123.08,23.9a.64.64,0,0,1-.16.19c-.12.09-.2.05-.25-.12-.32-1.48-.57-2.64-.74-3.45l-.39-1.79c-.08-.37-.13-.62-.16-.75s-.08-.39-.16-.76-.21-1-.38-1.76-.42-1.94-.74-3.43l-2.9,7.49,1,.38-.68,1.76-3.79-1.47.68-1.76,1,.38,4-10.33-1-.38.67-1.74,3.36,1.3L124,16,126,11l-1-.38.68-1.76,3.81,1.48-.68,1.76-1-.39Z"/><path class="cls-1" d="M142.41,19.25l-4.1,1.05-1.14,8.64.92.51-.94,1.71-4.37-2.41.94-1.71.67.37.91-6.34L133,21.6l-2.13,3.86,1,.55-.94,1.71-4.24-2.34.94-1.71.85.47,5.33-9.65-.86-.47.9-1.63,4.24,2.34-.9,1.63-1-.55-2,3.56,6-1.31-1.13-.62.9-1.64,4.29,2.37-.9,1.64Z"/><path class="cls-1" d="M22.66,94.71l-.6-.31.65-1.25,2.51,1.3-.65,1.26L24,95.4l-.62,3.71L26,96.47l-.59-.31.65-1.25,2.51,1.3L28,97.46l-.6-.31-4.23,4.17-1.43-.74Z"/><path class="cls-1" d="M32.1,103.9l.65.27-.54,1.31-2.61-1.09.54-1.3.66.27,1.62-3.91-.65-.28.54-1.3L34.92,99l-.54,1.3-.65-.27Z"/><path class="cls-1" d="M45.4,102.64,45,104l-.67-.21-1.74,5.37-1.34-.44-1.27-5L39,106.51l.67.22-.43,1.34-2.69-.87.44-1.34.67.22,1.3-4-.67-.21.44-1.35,2,.66,1.27,5,.92-2.84-.67-.22.43-1.34Z"/><path class="cls-1" d="M54.8,105,54.33,107,53,106.71l.16-.68-.69-.16L51.48,110l.69.16-.32,1.38-2.75-.63.31-1.38.69.16.94-4.13-.68-.16-.16.69-1.38-.32.47-2.06Z"/><path class="cls-1" d="M63.67,112.15l-.21,1.4-2.8-.42.21-1.39.66.09-.11-.73-2.15-.32-.32.67.66.1-.2,1.4-2.8-.42.21-1.4.68.11,2.5-5.35,2.14.32.85,5.84Zm-2.46-2.51-.32-2.18h-.06l-.94,2Z"/><path class="cls-1" d="M72.62,109.72l0-.36a.65.65,0,0,0-.17-.51.69.69,0,0,0-.49-.23l-1.41-.09a.65.65,0,0,0-.51.17.74.74,0,0,0-.24.49L69.65,112a.65.65,0,0,0,.17.51.74.74,0,0,0,.49.24l1.41.08a.65.65,0,0,0,.51-.17.74.74,0,0,0,.24-.49v-.28l-1.41-.09.09-1.41,2.82.18-.1,1.69a2.21,2.21,0,0,1-.22.82,2.09,2.09,0,0,1-.5.64,2.23,2.23,0,0,1-.7.41,2.11,2.11,0,0,1-.83.11l-1.41-.08a2.08,2.08,0,0,1-1.46-.72,2.12,2.12,0,0,1-.41-.7,2.09,2.09,0,0,1-.11-.83l.17-2.82a2,2,0,0,1,.22-.81,2.13,2.13,0,0,1,1.2-1.06,2.09,2.09,0,0,1,.83-.11l1.41.09a2,2,0,0,1,.81.21,2.13,2.13,0,0,1,.65.5,2.23,2.23,0,0,1,.41.7,2.11,2.11,0,0,1,.11.83l0,.35Z"/><path class="cls-1" d="M83.2,107.39l0,2.12-1.41,0v-.71l-1.41,0v1.41l1.41,0,0,1.42H80.43v1.41h1.42v-.71l1.41,0,0,2.12-5,.06V113.1H79l0-4.24h-.7l0-1.41Z"/><path class="cls-1" d="M97.55,109a4.09,4.09,0,0,1,1.44.23,2.73,2.73,0,0,1,.88.52,1.86,1.86,0,0,1,.44.63,2.84,2.84,0,0,1,.15.54,1.79,1.79,0,0,1-.06.8,1.82,1.82,0,0,1-.39.69,2.42,2.42,0,0,1-.66.51,2.46,2.46,0,0,1-.88.28,3.7,3.7,0,0,1-.93,0,3.39,3.39,0,0,1-.76-.17l0,.31-1.39.2-.31-2.09,1.4-.21a3.2,3.2,0,0,0,.4.3,1.76,1.76,0,0,0,.4.18,1.18,1.18,0,0,0,.43.08,2.4,2.4,0,0,0,.52,0,1.09,1.09,0,0,0,.6-.24.47.47,0,0,0,.2-.44.58.58,0,0,0-.19-.35,1,1,0,0,0-.37-.21,1.79,1.79,0,0,0-.47-.11l-.5,0a4.33,4.33,0,0,1-1.42-.2,2.75,2.75,0,0,1-.87-.48,1.58,1.58,0,0,1-.45-.6,2.18,2.18,0,0,1-.17-.58,1.62,1.62,0,0,1,.06-.82,1.94,1.94,0,0,1,.39-.72,2.4,2.4,0,0,1,.65-.53,2.7,2.7,0,0,1,.87-.29,4,4,0,0,1,.9,0,2.69,2.69,0,0,1,.73.17l0-.3,1.39-.21.31,2.1-1.41.2a4.07,4.07,0,0,0-.38-.28,1.44,1.44,0,0,0-.37-.19,1.43,1.43,0,0,0-.42-.09,2.3,2.3,0,0,0-.51,0,.91.91,0,0,0-.61.3.58.58,0,0,0-.17.46C96.09,108.78,96.59,109,97.55,109Z"/><path class="cls-1" d="M109.19,103.85l.48,2.07-1.38.31-.16-.69-.69.16.94,4.13.69-.15.32,1.37-2.76.63-.31-1.38.69-.15-.94-4.14-.69.16.15.69-1.37.31-.47-2.06Z"/><path class="cls-1" d="M118.25,105.71l.4,1.27.68-.22.43,1.35-2.69.86-.43-1.34.67-.22-.41-1.26L114.11,104l-.55.18-.43-1.35,2.69-.86.43,1.34-.51.17,1.39,1.07.5-1.68-.51.16-.43-1.34,2.69-.87.43,1.35-.54.17Z"/><path class="cls-1" d="M129.66,102l.82,2-4.55,1.92-.55-1.3.65-.27-1.65-3.91-.65.28-.55-1.3,2.6-1.1.55,1.3-.65.27,1.65,3.91,1.3-.55-.28-.65Z"/><path class="cls-1" d="M135.77,93.46l1,1.87-1.25.66-.33-.62-1.25.66.66,1.24,1.25-.66.66,1.25-1.25.66.66,1.25,1.25-.66-.33-.62,1.25-.66,1,1.87L134.71,102l-.66-1.25.62-.33-2-3.74-.62.33-.66-1.25Z"/><path class="cls-1" d="M53,85.06q1.35,0,1.83,3.27c.36.06.43.34.24.84l-.35.19a27,27,0,0,1-.38,5.09c-.33.32-.62.33-.88,0a23.6,23.6,0,0,0,.47-5l-4.33.84A11.57,11.57,0,0,0,48.53,94q-.54.46-.9,0a30,30,0,0,1,.95-3.52l-.41.08c-.27-.38-.17-.71.29-1l.5-.16Q51.26,85.06,53,85.06Zm-3.1,4.31a19.36,19.36,0,0,0,4-.78c-.05-1.79-.43-2.69-1.14-2.69Q51.18,86.61,49.89,89.37Z"/><path class="cls-1" d="M59.21,90.17l.17-.12a2.07,2.07,0,0,1,1.74-.73c.86,0,.74,1.1-.36,3.41-.19.62,0,.63.55,0l1.81-2.1c.13-.24.31-.26.53-.06a16.28,16.28,0,0,1-2.42,3.22,1.15,1.15,0,0,1-.78.4A.64.64,0,0,1,59.8,94a.8.8,0,0,1,0-.8c.23-.63.5-1.34.82-2.12s.15-.94-.51-.47a10.46,10.46,0,0,0-2.42,3.24l-.07.05c-.44.31-.66.25-.66-.17l.64-1.44.63-1.43c.2-.59,0-.68-.58-.26a10.52,10.52,0,0,0-2.41,3.25l-.07.05c-.44.31-.67.25-.67-.17l.64-1.44,1-2.31c.18-.52.4-.79.67-.81.43,0,.46.25.09.91a2.06,2.06,0,0,1,1.73-.73C59.11,89.28,59.29,89.56,59.21,90.17Z"/><path class="cls-1" d="M64.61,89.2c1.13-.36,1.7-.24,1.73.35a2.17,2.17,0,0,1-1,1.74A3.13,3.13,0,0,1,63,92a1.09,1.09,0,0,0,.46,1.24c.41.23,1,0,1.88-.65l1.78-2c.12-.24.3-.26.52-.06A9.49,9.49,0,0,1,66,93c-1,1.15-1.92,1.49-2.83,1s-1.18-1.29-.79-2.49A3.33,3.33,0,0,1,64.61,89.2ZM65,90.55c.59-.53.69-.78.29-.78a2.33,2.33,0,0,0-1.22.44,2,2,0,0,0-.85,1.05A2.41,2.41,0,0,0,65,90.55Z"/><path class="cls-1" d="M68.46,91l.15-.27c-.43,0-.65-.25-.69-.59a1.68,1.68,0,0,1-.76,1.2c-.29.1-.46,0-.5-.36a3.12,3.12,0,0,0,1.07-1.77l.3,0a1.3,1.3,0,0,0,.86.89c.22-.79.49-1.08.8-.88s.32.47,0,.8v0l-.17.4h0l-.31.71c-.93,1.88-1.09,2.42-.49,1.64l1.82-2.1c.13-.24.3-.26.53-.06a16.07,16.07,0,0,1-2.43,3.22c-.82.49-1.17.32-1.06-.52a1.81,1.81,0,0,1,.22-.84Z"/><path class="cls-1" d="M72,89.67l-.64,1.44c-.93,1.88-1.09,2.42-.48,1.64l1.81-2.1c.13-.24.31-.26.53-.06a16.28,16.28,0,0,1-2.42,3.22c-.83.49-1.18.32-1.07-.52a1.81,1.81,0,0,1,.22-.84l1.3-2.9Q72,89,72,89.67Zm.62-2.23c.2.22.18.44-.08.66a.44.44,0,0,1-.69,0A.41.41,0,0,1,72,87.4.44.44,0,0,1,72.65,87.44Z"/><path class="cls-1" d="M75.15,89.91c.08-.17,0-.22-.35-.16a3.1,3.1,0,0,0-2,2c-.2.8-.1,1.32.3,1.55s1,0,1.89-.65l1.77-2c.12-.24.3-.26.52-.06A9.49,9.49,0,0,1,75.57,93c-1,1.15-1.92,1.49-2.83,1A1.72,1.72,0,0,1,72,91.65a3.72,3.72,0,0,1,2.28-2.35c1.14-.44,1.73-.37,1.76.22a1.14,1.14,0,0,1-.15.75c-.11.17-.28.19-.49.07S75.06,90.07,75.15,89.91Z"/><path class="cls-1" d="M78.53,89.33c1-.25,1.52-.18,1.47.22.48-.36.73-.32.74.12l-.64,1.44c-.93,1.88-1.09,2.42-.48,1.64l1.81-2.1c.13-.24.31-.26.53-.06a17,17,0,0,1-2.5,3.32c-.61.34-1,.34-1.09,0s.06-.87.53-1.58a3.33,3.33,0,0,1-2.34,1.77c-.86.09-1-.62-.43-2.13S77.51,89.57,78.53,89.33Zm-1.71,2.92q-.58,1.47.72.51A5.42,5.42,0,0,0,79.22,91c.25-.52.26-.86,0-1s-.6-.06-1.1.27A4.16,4.16,0,0,0,76.82,92.25Z"/><path class="cls-1" d="M82.57,90.05a2.07,2.07,0,0,1,1.74-.73c.86,0,.74,1.1-.36,3.41-.19.62,0,.63.55,0l1.81-2.1c.13-.24.31-.26.53-.06a16.28,16.28,0,0,1-2.42,3.22,1.15,1.15,0,0,1-.78.4A.65.65,0,0,1,83,94a.83.83,0,0,1,0-.8c.23-.63.5-1.34.82-2.12s.15-.94-.51-.47a10.31,10.31,0,0,0-2.41,3.24l-.08.05c-.44.31-.66.25-.66-.17l.64-1.44,1-2.3c.18-.53.4-.8.67-.81Q83.13,89.06,82.57,90.05Z"/><path class="cls-1" d="M95.57,85.11c1.52.09,2.13.73,1.83,1.94-.25.27-.57.27-.94,0a.61.61,0,0,0-.16-.9c-.32-.29-.8-.28-1.44,0a5.43,5.43,0,0,0-2,2.14,7.59,7.59,0,0,0-1.21,3,1.79,1.79,0,0,0,1.29,2c1,.42,2.07,0,3.3-1.16q.58-.22.72.45-1.77,2.2-4,1.68a2.42,2.42,0,0,1-2.19-2.48,8.17,8.17,0,0,1,1.4-4.25A4.4,4.4,0,0,1,95.57,85.11Z"/><path class="cls-1" d="M101,86c.08.44-.66,2.16-2.19,5.16-.93,1.88-1.09,2.42-.49,1.64l1.82-2.1c.13-.24.3-.26.53-.06a16.07,16.07,0,0,1-2.43,3.22c-.82.49-1.17.32-1.06-.52a1.81,1.81,0,0,1,.22-.84l2.76-6.62Q100.92,85.29,101,86Z"/><path class="cls-1" d="M100.24,92.18c-.51,1.08-.34,1.34.49.77a10.16,10.16,0,0,0,2.68-3.4l.07,0c.44-.31.66-.25.67.17l-.65,1.44Q102.06,94,103,92.75l1.81-2.1c.13-.24.31-.26.53-.06a15.84,15.84,0,0,1-2.42,3.22c-1.24.55-1.54.1-.88-1.34A2.54,2.54,0,0,1,100,94c-.85,0-1-.67-.49-2.15l1-2.18c0-.51.24-.67.56-.49a.53.53,0,0,1,.3.72l-.74,1.43A6.27,6.27,0,0,0,100.24,92.18Z"/><path class="cls-1" d="M105.43,91.06a6.13,6.13,0,0,0-.57,1.37c-.26.77-.07,1.12.56,1s1.21-.73,1.73-2a1.81,1.81,0,0,1-.64-1.14.73.73,0,0,1,.55-1.07c.44-.06.72.07.85.37a2.13,2.13,0,0,1,.06,1.45c.15.26.59.1,1.33-.46.13-.24.3-.26.53-.06-.67.83-1.17,1.27-1.52,1.32s-.55,0-.6-.14c-.53,1.74-1.36,2.59-2.49,2.54s-1.5-.76-1.11-2.13a5.06,5.06,0,0,1,.55-1.31l2.09-5c.49-.36.77-.33.85.11s-.41,1.55-1.4,3.57Z"/><path class="cls-1" d="M68.81,24.93c.23.34.25.59.06.74a6.48,6.48,0,0,1-4,.32l-.4,2.32.36,0,3-.2c.24.09.29.24.16.46a.69.69,0,0,1-.58.35,17.6,17.6,0,0,0-3,.21L64,31.16a1.55,1.55,0,0,0,1.47.94h.18A5.52,5.52,0,0,0,68,31.29c.22.21.2.45-.07.73-1.93.94-3.25,1-4,.35l-.21-.29-.14.74c-.17.21-.32.26-.46.16a.9.9,0,0,1-.28-.61l.57-2.32.14-.87-.3.05q-.21-.8.48-1l.4-2.22H64l-.72.18-.15-.44c.25-.43,1.23-.56,2.94-.38A4.34,4.34,0,0,0,68.81,24.93Z"/><path class="cls-1" d="M70.57,31.29a2.22,2.22,0,0,0,.12.39q.42,1.11,1.41,0l1.55-1.78c.11-.21.26-.23.45,0a6.55,6.55,0,0,1-1.23,1.78c-.68.79-1.17,1.21-1.46,1.26a1.16,1.16,0,0,1-.78-.12,1.08,1.08,0,0,1-.5-.68c0-.07,0-.15,0-.23a5,5,0,0,0-.84,2c-.13.3-.3.31-.5,0a.93.93,0,0,1,0-1,10,10,0,0,1,1.17-1.62,9.85,9.85,0,0,1-.13-2.07c0-.18.07-.28.19-.3l.64-.16a7.87,7.87,0,0,0-.16,2,23.25,23.25,0,0,1,2.37-2.5c.33,0,.43.12.31.42A19.62,19.62,0,0,0,70.57,31.29Z"/><path class="cls-1" d="M75.72,29.26c.07-.14,0-.18-.3-.13a2.67,2.67,0,0,0-1.71,1.68c-.17.68-.08,1.12.26,1.32s.88,0,1.6-.55l1.51-1.68c.11-.21.26-.23.45,0a8.32,8.32,0,0,1-1.45,2c-.83,1-1.64,1.27-2.41.88a1.48,1.48,0,0,1-.68-2,3.2,3.2,0,0,1,2-2c1-.38,1.47-.32,1.5.19a1,1,0,0,1-.13.63c-.09.14-.24.16-.42.06S75.65,29.41,75.72,29.26Z"/><path class="cls-1" d="M79.69,25.89q.09.55-1.87,4.4c-.79,1.6-.93,2.07-.41,1.39L79,29.9c.11-.21.26-.23.45,0a13.39,13.39,0,0,1-2.06,2.74c-.7.42-1,.27-.91-.44a1.51,1.51,0,0,1,.19-.72L79,25.79C79.39,25.48,79.63,25.51,79.69,25.89Z"/><path class="cls-1" d="M79,31.2c-.43.93-.29,1.14.42.66A8.67,8.67,0,0,0,81.72,29s0,0,.06-.05q.57-.39.57.15l-.54,1.23c-.82,1.64-1,2.11-.42,1.39l1.55-1.78c.11-.21.26-.23.45,0a13.39,13.39,0,0,1-2.06,2.74q-1.6.7-.75-1.14a2.19,2.19,0,0,1-1.78,1.33c-.73,0-.87-.57-.43-1.84l.88-1.85q.07-.64.48-.42a.46.46,0,0,1,.26.61l-.63,1.23A5.55,5.55,0,0,0,79,31.2Z"/><path class="cls-1" d="M84.19,28.7c.34,0,.48.12.42.32a2.45,2.45,0,0,0-1,1.55c-.09.57,0,.91.2,1l2.3-1.83q.28-.15.39,0a9.83,9.83,0,0,1-2.4,2.29,2,2,0,0,1-.45,2.74c-.88.75-1.49.76-1.82,0s.13-1.69,1.39-2.88a1.77,1.77,0,0,1-.29-1.17,4.77,4.77,0,0,1,.3-1.06A2.86,2.86,0,0,1,84.19,28.7Zm-1.87,5.71c.12.5.45.46,1-.11a1.35,1.35,0,0,0,.11-1.89C82.57,33.25,82.2,33.92,82.32,34.41Z"/><path class="cls-1" d="M87.13,29.06l-.55,1.23c-.79,1.6-.93,2.07-.41,1.39l1.55-1.78c.11-.21.26-.23.45,0a14.07,14.07,0,0,1-2.07,2.74c-.7.42-1,.27-.91-.44a1.64,1.64,0,0,1,.19-.72L86.49,29C86.91,28.65,87.12,28.68,87.13,29.06Zm.52-1.9c.18.19.16.38-.06.56a.38.38,0,0,1-.59,0,.35.35,0,0,1,.07-.57A.37.37,0,0,1,87.65,27.16Z"/><path class="cls-1" d="M88.16,30.25a6.36,6.36,0,0,0-.26,2.13,2.55,2.55,0,0,0,1.72-1.76,2.4,2.4,0,0,1-.35-1.07c0-.55.13-.86.47-.91a.6.6,0,0,1,.53.42,1.79,1.79,0,0,1,0,1.23q.2.33,1.14-.39c.11-.21.26-.23.45,0-.57.7-1,1.08-1.3,1.12s-.45,0-.45-.06a2.25,2.25,0,0,1-1.24,1.68c-.72.42-1.17.59-1.34.52s-.29-.44-.33-1.12a4.45,4.45,0,0,1,.25-1.9l.37-1.18c.42-.31.67-.23.76.22Z"/><path class="cls-1" d="M92.69,28.66c1-.31,1.46-.21,1.48.3a1.83,1.83,0,0,1-.89,1.48,2.69,2.69,0,0,1-1.93.64.93.93,0,0,0,.39,1.05c.35.19.88,0,1.61-.55l1.51-1.68c.11-.21.26-.23.45,0a8.47,8.47,0,0,1-1.46,2c-.83,1-1.63,1.27-2.41.88s-1-1.1-.68-2.13A2.86,2.86,0,0,1,92.69,28.66ZM93,29.81c.51-.45.59-.67.26-.66a2,2,0,0,0-1,.37,1.73,1.73,0,0,0-.72.9A2,2,0,0,0,93,29.81Z"/><path class="cls-1" d="M155.57,41v1.25h-2.52V41h.63V37.17h-.63V35.92h1.89v5Z"/><path class="cls-1" d="M154.66,48.52a1.79,1.79,0,0,1,.73.14,2,2,0,0,1,.61.41,1.91,1.91,0,0,1,.4.6,1.83,1.83,0,0,1,.15.73v2.52a1.78,1.78,0,0,1-.15.74,1.91,1.91,0,0,1-.4.6,2,2,0,0,1-.61.41,1.79,1.79,0,0,1-.73.14H154a1.84,1.84,0,0,1-.74-.14,1.94,1.94,0,0,1-.6-.41,1.91,1.91,0,0,1-.4-.6,1.78,1.78,0,0,1-.15-.74h1.26a.61.61,0,0,0,.18.45.65.65,0,0,0,.45.19h.63a.61.61,0,0,0,.44-.19.58.58,0,0,0,.19-.45v-.73a1.89,1.89,0,0,1-.63.1H154a1.84,1.84,0,0,1-.74-.14,1.94,1.94,0,0,1-.6-.41,1.91,1.91,0,0,1-.4-.6,1.78,1.78,0,0,1-.15-.74,1.83,1.83,0,0,1,.15-.73,1.91,1.91,0,0,1,.4-.6,1.94,1.94,0,0,1,.6-.41,1.84,1.84,0,0,1,.74-.14Zm0,2.52a.61.61,0,0,0,.44-.19.58.58,0,0,0,.19-.45.58.58,0,0,0-.19-.44.61.61,0,0,0-.44-.19H154a.65.65,0,0,0-.45.19.6.6,0,0,0-.18.44.61.61,0,0,0,.18.45A.65.65,0,0,0,154,51Z"/><path class="cls-1" d="M154.66,63.63a1.8,1.8,0,0,1,.73.15,2,2,0,0,1,.61.41,1.91,1.91,0,0,1,.4.6,1.83,1.83,0,0,1,.15.73,1.81,1.81,0,0,1-.15.74,1.91,1.91,0,0,1-.4.6,1.85,1.85,0,0,1-1.34.55H154a2,2,0,0,1-.74-.14,1.94,1.94,0,0,1-.6-.41,1.91,1.91,0,0,1-.4-.6,1.81,1.81,0,0,1-.15-.74V63a1.83,1.83,0,0,1,.15-.73,1.91,1.91,0,0,1,.4-.6,1.94,1.94,0,0,1,.6-.41,1.85,1.85,0,0,1,.74-.15h.63a1.8,1.8,0,0,1,.73.15,2,2,0,0,1,.61.41,1.91,1.91,0,0,1,.4.6,1.83,1.83,0,0,1,.15.73h-1.26a.58.58,0,0,0-.19-.44.61.61,0,0,0-.44-.19H154a.65.65,0,0,0-.45.19.6.6,0,0,0-.18.44v.74a1.9,1.9,0,0,1,.63-.11Zm0,2.52a.6.6,0,0,0,.44-.18.58.58,0,0,0,.19-.45.58.58,0,0,0-.19-.44.61.61,0,0,0-.44-.19H154a.65.65,0,0,0-.45.19.6.6,0,0,0-.18.44.61.61,0,0,0,.18.45.64.64,0,0,0,.45.18Z"/><path class="cls-1" d="M156.55,75.6a1.73,1.73,0,0,1-.13.69,1.54,1.54,0,0,1-.36.57,1.66,1.66,0,0,1,.36.58,1.72,1.72,0,0,1,.13.68,1.81,1.81,0,0,1-.15.74,1.91,1.91,0,0,1-.4.6,1.85,1.85,0,0,1-1.34.55H154a2,2,0,0,1-.74-.14,1.94,1.94,0,0,1-.6-.41,1.91,1.91,0,0,1-.4-.6,1.81,1.81,0,0,1-.15-.74,1.72,1.72,0,0,1,.13-.68,1.66,1.66,0,0,1,.36-.58,1.54,1.54,0,0,1-.36-.57,1.73,1.73,0,0,1-.13-.69,1.83,1.83,0,0,1,.15-.73,1.91,1.91,0,0,1,.4-.6,1.94,1.94,0,0,1,.6-.41,1.85,1.85,0,0,1,.74-.15h.63a1.8,1.8,0,0,1,.73.15,2,2,0,0,1,.61.41,1.91,1.91,0,0,1,.4.6A1.83,1.83,0,0,1,156.55,75.6ZM154,75a.65.65,0,0,0-.45.19.6.6,0,0,0-.18.44.61.61,0,0,0,.18.45.64.64,0,0,0,.45.18h.63a.6.6,0,0,0,.44-.18.58.58,0,0,0,.19-.45.58.58,0,0,0-.19-.44.61.61,0,0,0-.44-.19Zm.63,3.78a.6.6,0,0,0,.44-.18.58.58,0,0,0,.19-.45.58.58,0,0,0-.19-.44.6.6,0,0,0-.44-.18H154a.64.64,0,0,0-.45.18.6.6,0,0,0-.18.44.61.61,0,0,0,.18.45.64.64,0,0,0,.45.18Z"/><path class="cls-1" d="M4.72,35.92V37.8H3.46v-.63H2.2v1.27H3.46v1.25H2.2V41H3.46v-.64H4.72v1.89H.31V41H.94V37.17H.31V35.92Z"/><path class="cls-1" d="M2.61,51.05a3.55,3.55,0,0,1,1.24.39,2.22,2.22,0,0,1,.71.57,1.68,1.68,0,0,1,.31.61,2.85,2.85,0,0,1,.07.49,1.68,1.68,0,0,1-.16.71,1.78,1.78,0,0,1-.43.55,2.08,2.08,0,0,1-.65.37,2.39,2.39,0,0,1-.82.14,3,3,0,0,1-.82-.1,2.92,2.92,0,0,1-.65-.24v.27H.15V52.92H1.41a3.22,3.22,0,0,0,.32.32,2.2,2.2,0,0,0,.32.21,1.47,1.47,0,0,0,.37.13,3.15,3.15,0,0,0,.46,0,1.09,1.09,0,0,0,.57-.14.43.43,0,0,0,.23-.37.47.47,0,0,0-.12-.32.89.89,0,0,0-.3-.24,1.84,1.84,0,0,0-.41-.16l-.43-.1a3.85,3.85,0,0,1-1.23-.35,2.39,2.39,0,0,1-.7-.54,1.35,1.35,0,0,1-.33-.59,2.15,2.15,0,0,1-.07-.53,1.72,1.72,0,0,1,.15-.72A1.79,1.79,0,0,1,.68,49a1.94,1.94,0,0,1,.65-.39,2.28,2.28,0,0,1,.8-.14,3.2,3.2,0,0,1,.8.09,2.44,2.44,0,0,1,.62.25v-.27H4.81V50.4H3.54q-.15-.16-.3-.3a1.25,1.25,0,0,0-.3-.21,1.4,1.4,0,0,0-.36-.13,2,2,0,0,0-.45,0,.84.84,0,0,0-.58.18.5.5,0,0,0-.2.39C1.35,50.67,1.77,50.93,2.61,51.05Z"/><path class="cls-1" d="M5,61.11V63H3.78v-.63H3.15v3.78h.63v1.26H1.26V66.15h.63V62.37H1.26V63H0V61.11Z"/><path class="cls-1" d="M2.55,73.71a2.53,2.53,0,0,1,1,.2,2.53,2.53,0,0,1,1.34,1.34,2.53,2.53,0,0,1,.2,1V77.5a2.53,2.53,0,0,1-.2,1,2.57,2.57,0,0,1-.54.8,3,3,0,0,1-.8.54,2.52,2.52,0,0,1-1,.19H0V78.75H.66V75H0V73.71Zm0,5A1.37,1.37,0,0,0,3,78.66a1.56,1.56,0,0,0,.4-.27,1.56,1.56,0,0,0,.27-.4,1.38,1.38,0,0,0,.1-.49V76.23a1.38,1.38,0,0,0-.1-.49,1.56,1.56,0,0,0-.27-.4,1.56,1.56,0,0,0-.4-.27,1.38,1.38,0,0,0-.49-.1H1.92v3.78Z"/></g></g></svg>