<svg xmlns="http://www.w3.org/2000/svg" viewBox="0 0 121.12 121.84"><defs><style>.cls-1{fill:none;}.cls-2{}</style></defs><title>logo1</title><g id="Layer_2" data-name="Layer 2"><g id="Layer_4" data-name="Layer 4"><path class="cls-1" d="M118.45,69.34a.29.29,0,0,0,.27.16h0a.29.29,0,0,0,.26-.21l.21-.65a33.05,33.05,0,0,0,1.25-4.84,25,25,0,0,0,.06-5l0-.61c-.06-1-.07-2-.09-3a38,38,0,0,0-.58-7l-.09-.46a31.35,31.35,0,0,0-2.65-8.74c-.43-.82-.83-1.64-1.22-2.46a50.51,50.51,0,0,0-2.61-4.91,45.7,45.7,0,0,0-2.73-3.72c-.63-.8-1.29-1.63-1.89-2.48a.3.3,0,0,0-.39-.09.31.31,0,0,0-.14.37,5.14,5.14,0,0,0,.84,1.31,2.43,2.43,0,0,1,.8,1.66A.31.31,0,0,0,110,29a.37.37,0,0,0,.15,0c.25.55.49,1.11.74,1.66.69,1.54,1.4,3.14,2.19,4.68a69.41,69.41,0,0,1,3.74,9.65c.14.44.3.89.46,1.35.84,2.45,1.8,5.22,1.78,7.71a14.82,14.82,0,0,1-.41,3.24A58.52,58.52,0,0,0,96.73,15.15h0c.41.17.84.34,1.23.55l.28.15.51.41c1.07.86,2.17,1.75,3.36,2.53a.91.91,0,0,0,.19.13.32.32,0,0,0,.14,0,.3.3,0,0,0,.16-.55l-.14-.09a2.25,2.25,0,0,1-.45-.66,2.65,2.65,0,0,0-.67-.89,9.66,9.66,0,0,0-2-1.05l-.8-.37-.68-.54a28.44,28.44,0,0,0-4.07-2.6,14.21,14.21,0,0,0-3.19-2.75,6.42,6.42,0,0,0-.83-.35,3.17,3.17,0,0,1-1.11-.57c-.21-.18-.41-.37-.61-.56a10,10,0,0,0-1.37-1.16l-.56-.39a6.61,6.61,0,0,0-3-1.42,8.48,8.48,0,0,0-1.1,0,3.79,3.79,0,0,1-1.75-.27c-.13-.06-.31-.14-.53-.22s-.8-.33-1.2-.54h.27a5.42,5.42,0,0,0,2.88-.38.28.28,0,0,0,.13-.29A.29.29,0,0,0,81.71,3a9.81,9.81,0,0,0-3.41-.48l-.32,0a2.85,2.85,0,0,1-1.13-.07,3.07,3.07,0,0,1-.5-.2A3.07,3.07,0,0,0,75.25,2a6.65,6.65,0,0,0-1.73.27,8,8,0,0,1-1.19.23A13.39,13.39,0,0,1,68,1.87c-.83-.2-1.68-.42-2.52-.54A12.83,12.83,0,0,1,64,1,12.31,12.31,0,0,0,62.51.63a7.54,7.54,0,0,0-3.38.54l-.63.2a34.68,34.68,0,0,1-6.9,1.24c-.44,0-.89.07-1.34.09-.68,0-1.4.07-2.1.17A12,12,0,0,0,47,3.13a10.68,10.68,0,0,1-1.3.26c-2.27.25-4.3,1.47-6.26,2.64l-.52.31A58.65,58.65,0,0,0,14.55,24.17l-.25.1a5.36,5.36,0,0,0-1.87,1.09,11.76,11.76,0,0,0-2.31,4.81l-.09.32c0,.05,0,.1,0,.15A58.41,58.41,0,0,0,1.59,59.1a31.08,31.08,0,0,0-.48,3.67.35.35,0,0,0-.05.2l0,.21q0,.82,0,1.56a.3.3,0,0,0,.25.29c.46,3.52,1,7,1.77,10.34l.3,1.4c.74,3.51,1.43,6.83,3.21,10a76.5,76.5,0,0,0,5.33,7.83c1.18,1.59,2.41,3.24,3.51,4.9,3.25,4.88,8.6,8.43,12.89,11.29a34.47,34.47,0,0,0,10.58,5l.06,0h0l.37.1c4.85,3.61,11.48,5.4,20.15,5.4q3.26,0,6.88-.33a57.22,57.22,0,0,0,16.43-3.86,91.2,91.2,0,0,0,10.77-5.1,58.56,58.56,0,0,0,5.33-3.62,48.77,48.77,0,0,1,6.31-4.15.31.31,0,0,0,.14-.37.3.3,0,0,0-.34-.19l-.63.15-.72.17a13.52,13.52,0,0,1,2.54-3.16,18.92,18.92,0,0,0,2.09-2.4c.76-1.09,1.44-2.25,2.1-3.37s1.47-2.51,2.32-3.68a59.6,59.6,0,0,0,3.63-6l.1-.19a13.4,13.4,0,0,0,1.35-4.69c.11-.72.22-1.46.4-2.21.14-.6.33-1.21.52-1.79a19.54,19.54,0,0,0,.63-2.27,13.49,13.49,0,0,0,.13-2.6,15.88,15.88,0,0,1,0-1.69.3.3,0,0,0-.58-.11c-.24.77-.47,1.55-.71,2.33a86.48,86.48,0,0,1-4.74,13.16,58.37,58.37,0,0,0,4.8-16.56A4.94,4.94,0,0,0,118.45,69.34ZM93.55,12.76l0,0-.3-.21.19.1A.6.6,0,0,0,93.55,12.76Zm-9-5.24.75.45a57.63,57.63,0,0,0-6-2.45A20.59,20.59,0,0,1,84.5,7.52Zm13.27,99.59a30.25,30.25,0,0,1-9.25,5.18,58.83,58.83,0,0,0,13.17-9.94A26.42,26.42,0,0,1,97.77,107.11Z"/><path class="cls-2" d="M52,53.73V53.5a.05.05,0,0,1,0,0,.92.92,0,0,1,.09-.25,4.46,4.46,0,0,0,.48-1,1.81,1.81,0,0,0,.06-.61,1,1,0,0,1,0-.43,1,1,0,0,0,0-.41c0-.17,0-.35,0-.53a.11.11,0,0,1,.12-.12h.62l-.1.16a1.72,1.72,0,0,0-.33,1c0,.23,0,.46,0,.69s.05.42.08.63h.75l1.21,0h2.26l.73,0,.53,0,.87,0h6l1.12,0h2.1c0-.07-.09-.13-.09-.18,0-.3,0-.59,0-.88s0-.57,0-.85a.24.24,0,0,1,.14-.21v2.13l.14,0v-1c0-.22,0-.45,0-.67a.3.3,0,0,1,.14-.31.11.11,0,0,0,0-.06l0-.18c0-.18-.06-.36-.07-.54S69,49,69,48.62c0-.15,0-.31,0-.47v-.24h0l-.09,1.5h0a.9.9,0,0,1-.12-.46,5.43,5.43,0,0,0,0-.7c0-.2,0-.39,0-.59s0-.55,0-.83l0-1.07a4.64,4.64,0,0,0,0-.53c0-.15.11-.2.19-.32v.93s0,.08,0,.08,0-.05,0-.09v-2.4s0,0,0,0,0,0-.06,0,0,0,0,.07-.07.2-.1.3l-.11,0c0-.33.05-.66.07-1h0c.09.13,0,.31.1.45s.1,0,.12-.08a1.89,1.89,0,0,0-.13-.87c0,.12-.1.08-.14.1s-.06-.18-.08-.26a.16.16,0,0,1,0-.18.23.23,0,0,0,.06-.28c0-.09-.09-.17-.13-.25-.06.12,0,.27-.1.37a.62.62,0,0,1-.14-.32,2.75,2.75,0,0,0,0-.4c0-.16,0-.31,0-.47s0-.56,0-.84,0-.76,0-1.14,0-.75,0-1.12c0-.1,0-.2,0-.29h0v4.55h-.53v-1.4h-.09c0,.11,0,.22,0,.32s0,.37-.05.55l.05-.05v.49a.69.69,0,0,1-.05.13h0c0-.08-.14-.15-.15-.24s0-.41,0-.62,0-.29,0-.44h0v.59l0,.39a.29.29,0,0,1-.1.27.16.16,0,0,1-.14,0s0,0,0-.08V37.49c0-.2,0-.4,0-.6s0-.48,0-.72,0-.14-.16-.11a.92.92,0,0,1,0,.16c0,.32,0,.64,0,1s0,.38,0,.57,0,.32,0,.49,0,.31,0,.46l0,1.19c0,.12,0,.25,0,.37l0,.82c0,.18,0,.35,0,.53a2.48,2.48,0,0,1,0,.27.28.28,0,0,1-.2-.33c0-.18,0-.36,0-.54a.31.31,0,0,0-.06.13v.38c0,.18-.1.25-.26.21a.13.13,0,0,1,0-.06V41c0-.31,0-.62,0-.93s0-.53,0-.79,0-.74,0-1.11c0-.09,0-.18,0-.28s0-.07,0-.09a1.89,1.89,0,0,1-.06-.18,1.08,1.08,0,0,1,0-.18V36.32c0-.21,0-.42,0-.63v-.4s0-.07-.07-.06-.08,0-.08.05,0,.21,0,.32,0,.4,0,.61,0,.46,0,.69,0,.56,0,.84,0,.54,0,.81,0,.38,0,.57,0,.52,0,.78,0,.43,0,.64v.74c-.13,0-.14,0-.14-.09,0-.28,0-.56,0-.84a.29.29,0,0,0,0-.09h0s0,.06,0,.08v1.29s0,.06,0,.06h-.33V40.54a1.93,1.93,0,0,1,0-.34c0-.13,0-.26,0-.38s0-.08-.09-.06V41.3a1,1,0,0,1-.1.54c-.11,0-.14,0-.13-.13V41c0-.16,0-.32,0-.48s0-.43,0-.64,0-.66,0-1c0-.16,0-.32,0-.48V38c-.12,0-.08.09-.08.13,0,.22,0,.44,0,.66s0,.58,0,.86,0,.56,0,.83l0,.78a.67.67,0,0,1-.15.56c-.11,0-.11,0-.1-.15a.09.09,0,0,0,0-.05c0-.2,0-.41,0-.61l0-.7,0-1c0-.43,0-.87,0-1.3,0-.24,0-.48,0-.71s0-.61,0-.92v-.36c-.07,0-.07.05-.07.1s0,.37,0,.55,0,.53,0,.8l-.17,0-.07.12c.16,0,.17,0,.18-.13,0,0,0,0,0,.06s0,.34,0,.51L65,39c0,.33,0,.66,0,1s0,.47,0,.7,0,.29,0,.43,0,.28,0,.42a.34.34,0,0,1-.2.32c0-.07,0-.14,0-.19s-.12.16-.2.19a1.33,1.33,0,0,1-.4,0l-.77,0H63.2l0-.36h0a2.7,2.7,0,0,1,0,.28.08.08,0,0,1,0,.06l-.12,0-.67,0h-.81v-1c0-.07,0-.14,0-.22s0-.29,0-.44a.17.17,0,0,0,0-.05l0,.05a.06.06,0,0,0,0,0c0,.11,0,.21,0,.32,0,.32,0,.63,0,.95,0,.13,0,.26,0,.4H60.1V37.4h0s0,0,0,.06c0,.23,0,.46,0,.69s0,.32,0,.48v.54c0,.2,0,.4,0,.6s0,.56,0,.85v1.24l-.44,0-.72.06a4.38,4.38,0,0,1-.51,0c-.25,0-.51,0-.77,0s-.72,0-1.07.06l-.62,0H54.46c-.16,0-.32,0-.47,0s-.49.08-.74.13c0,.16,0,.31,0,.45s0,.1-.09.09c-.07-.16-.15-.32-.22-.49l-.44.15v-1.7c0-.26,0-.52,0-.77s0-.58,0-.87,0-.36,0-.54,0-.58,0-.87,0-.45,0-.67,0-.62,0-.93,0-.63,0-.94,0-.64,0-1,0-.64,0-1V32.8l0-1.2v-.36h.13v2.82h.11c0-.22,0-.43,0-.64s0-.4,0-.61,0-.65,0-1,0-.74,0-1.1,0-.48,0-.72,0-.46.07-.69l.06-.44H53a2,2,0,0,1,.13.95.31.31,0,0,0,.06-.26c0-.18,0-.31.25-.31,0-.28.08-.56.13-.86,0,0,.1,0,.11.07a4.36,4.36,0,0,1,0,.51.77.77,0,0,0,.18.54,1,1,0,0,0,.1-.21c0-.2,0-.39,0-.59s0-.29,0-.43.15,0,.15.1,0,.16,0,.23c0,.41,0,.82,0,1.23l.06,1c0,.25,0,.5,0,.74v.3h0V30.17h0c0,.14,0,.28,0,.41,0-.27.06-.54.08-.81a5.29,5.29,0,0,1,.05-.8h0v2.85h0c0-1,.09-1.95.13-2.92h.09v.79h0l.27-1.51c.1,0,.12,0,.12.11v.62c0,.2,0,.4,0,.6s0,.16,0,.25,0,.44,0,.66,0,.45,0,.68,0,.66,0,1v.74c0,.25,0,.51,0,.77,0,0,0,.06,0,.09s0,0,.05,0a.14.14,0,0,0,0-.06v-.43c0-.29,0-.58,0-.88v-.84c0-.19,0-.39,0-.58s0-.36,0-.54,0-.43,0-.65,0-.23,0-.34l0-.61V28.2l.39,0c0,.14,0,.27,0,.4,0,.34,0,.68,0,1s0,.44,0,.66l0,.75s0,0,0,.06h0v-.77c0-.18,0-.36,0-.55s0-.5,0-.75,0-.44,0-.66a.14.14,0,0,1,0-.07l.39-.19v2.39h0a.36.36,0,0,0,0-.1c0-.17,0-.34.07-.51l.12-.8c0-.23.07-.46.11-.7l0,0h0c0,.41,0,.83.11,1.24a.11.11,0,0,0,0-.07c0-.17,0-.33,0-.5s0-.46,0-.69,0-.12.13-.1c.05.29.11.58.17.88h0L57.53,28c.07,0,.12,0,.12.11l0,.64c0,.29,0,.58,0,.86,0,0,0,.05,0,.08h0V27.92h0c.05.14.11.28.16.44l.17-.22c0,.46.08.9.12,1.34h0l.15-.83h0v.18l0,.2c0,.13,0,.13.07.17l-.09-1h0s.05.11.08.17l.06-.16,0,.11.12.62a.29.29,0,0,0,0,.09.08.08,0,0,0,.06,0s0,0,0,0c.06-.2.11-.4.16-.6l.18-.65a1,1,0,0,1,0,.24l.06.77c0,.2,0,.41,0,.61s0,.47,0,.7a.41.41,0,0,0,.05.09h0V28.38h0l.19.21c0-.15.06-.28.09-.41s.1,0,.1.08,0,.34,0,.51,0,.32,0,.47,0,.26,0,.39h0l.06-.2v.34c0,.31,0,.62,0,.93v.8c0,.28,0,.57,0,.85s0,.63,0,.94c0,0,0,.06,0,.08s0,.25,0,.37v.47a.31.31,0,0,1,0,.07.7.7,0,0,1,0,.12c0,.13,0,.25,0,.38s0,.18,0,.27,0,.27,0,.4,0,0,0,.06h0v-7l.09,0c0,.24.1.46.15.69,0-.11,0-.23.06-.34s0-.43.07-.64a.43.43,0,0,0,0-.07l0,0v1h0c.06-.35.07-.7.13-1.05h.05l.12,1h0v-.08c0-.31,0-.61,0-.92,0-.07,0-.12.12-.11a2,2,0,0,1,0,.24c0,.21,0,.41,0,.61s0,.58,0,.87v.9s0,.05.06.07,0-.05,0-.07c0-.23,0-.46,0-.69s0-.61,0-.91V27.93c.12,0,.13,0,.13.09,0,.29,0,.59,0,.89v.73s0,0,0,.07,0-.05,0-.07l0-.38a.34.34,0,0,1,0,.11.56.56,0,0,0,0,.12.35.35,0,0,0,.05.08l0,0a7.86,7.86,0,0,1,.2-1.67.2.2,0,0,1,0,.07V29.4a.41.41,0,0,0,0,.22h0V27.84h0L62,28l0-.06h0c0,.32,0,.63.06.95v1c.09,0,.11,0,.1-.1s0-.15,0-.22,0-.31,0-.47v-.62h.12c0,.56.07,1.11.11,1.66a.76.76,0,0,0,0-.15l.06-1,0-.85s0-.1.06-.11.06.06.08.1l.09.25h0c0-.17.08-.34.13-.51h0L63,29.22h0a1.6,1.6,0,0,0,.05-.21l.12,0c0,.66.07,1.31.1,2h0c.06-.95.13-1.9.19-2.85h.15v2.32h.09V28.91h.12v1.24l0,0s.05-.05.05-.07v-.31c0-.38,0-.76,0-1.14v-.59H64a1.8,1.8,0,0,1,0,.22l.09,1.09c0,.11,0,.12.13.11l.06-1.29h.08v3l0,0s0-.05,0-.07a2.26,2.26,0,0,0,0-.26c0-.22,0-.45,0-.67s0-.35,0-.53v-.59c0-.16,0-.31,0-.47s0-.14.14-.13l.09.74h0v-.59s0-.05,0-.08l0,0,.07.27c0-.47,0-.47.08-.51s.05.15.07.22h0v-.82h.1c0,.26.07.52.11.77h0l.12-.27h0v1.48h0c0-.23.06-.47.08-.71h.09v.63a1,1,0,0,0,0,.3,1,1,0,0,0,0-.17c0-.38.06-.77.08-1.15s0-.71.08-1.06h.09c0,.18,0,.35,0,.53v1.1h0s0,0,0-.07v-.79a0,0,0,0,0,0,0l.09,0v1.55h0v-.7h0s0,0,0,.05,0,.3,0,.44l0,.78h.1V27.78l0,0s0,0,0,.07a1.21,1.21,0,0,1,0,.19c0,.38,0,.75,0,1.12,0,.18,0,.35,0,.52a2.71,2.71,0,0,0,0,.29s0,0,0,.05h0V29h.12v2.88l.13-.07c0-.05,0-.1,0-.13a.31.31,0,0,0,0-.19c0-.21,0-.41,0-.62v-.69c0-.27,0-.53,0-.79s0-.53,0-.8V28.3h.13L67,35.46h.12v-.31l0-.75,0-1.18c0-.28,0-.56,0-.84v-.08s0-.1,0-.12,0-.1,0-.14,0,.08,0,.07,0,0,0,0c0,.17,0,.33,0,.49s0,.45,0,.68v.55c0,.33,0,.66,0,1s0,.38,0,.57a2.86,2.86,0,0,0,.07.28,1.71,1.71,0,0,0,0-.32c0-.12,0-.24,0-.36s0-.41,0-.62l0-1c0-.16,0-.31,0-.46l0-.75s0-.08.06-.09v0h-.06c0-.06,0-.12,0-.15s0-.13,0-.19,0-.26,0-.39,0-.37,0-.55c0-.37,0-.74,0-1.11V29.6a.27.27,0,0,0,0,.15v.93c0,.2,0,.39,0,.59s0,.41,0,.62c0,.05,0,.09-.06.14S67,32,67,31.91c0-.26,0-.52,0-.79s0-.59,0-.88,0-.56,0-.84,0-.46,0-.69,0-.2.17-.21V28l.06.06a.5.5,0,0,1,0,.12c0,.26,0,.52,0,.78s0,.58.05.87c0,0,0,.07,0,.11h0a4.72,4.72,0,0,1,.12-1.06c.06-.35.09-.71.17-1.05h0v3.84l.09,0c0-.23,0-.46,0-.68,0,0,0,0,0-.08s0-.13,0-.21c0-.26,0-.52,0-.78s0-.56,0-.84v-.3h.12L68,30.05h0V29c.08,0,.11,0,.11.08l0,.53c0,.14,0,.29,0,.44s0,.31,0,.47l0,.05V28.89h.11v2.53h.12V28.21h0c.07.35.15.7.23,1.05h0c0-.1,0-.19.06-.3,0,.09,0,.15.08.22h0v-.45h0s0,0,0,.06a.34.34,0,0,1,0,.1c0,.24,0,.48.07.73a3.89,3.89,0,0,0,0,.47,3.08,3.08,0,0,1,0,1.09,4.5,4.5,0,0,0-.08.51,5,5,0,0,0,0,.67,5.55,5.55,0,0,1,0,1c0,.1,0,.19,0,.29s0,.22,0,.33l-.06.69c0,.25,0,.5,0,.74s0,.52,0,.78a.78.78,0,0,0,0,.21h0l.42-6.27a.06.06,0,0,1,0,.06c0,.17,0,.35,0,.53V32c0,.42,0,.83,0,1.24s0,.61,0,.92,0,.46,0,.7,0,.42,0,.63,0,.53,0,.8,0,.36,0,.54,0,.4,0,.59,0,.38,0,.57,0,.62.06.93a10.05,10.05,0,0,1-.09,1.34l0,.63c0,.1,0,.21,0,.31v.58a.09.09,0,0,0,.09.1.36.36,0,0,1,.28.31,1.29,1.29,0,0,1,0,.28c0,.22,0,.44,0,.67v.23s0,0-.06.09l0-.1a.9.9,0,0,0,0,.23l0,.63c0,.13,0,.26,0,.39s0,.37,0,.56,0,.4,0,.61,0,.4,0,.6a1.65,1.65,0,0,1,0,.31h0v-.33s0,0,0-.05a.25.25,0,0,0,0,.14v.74c0,.19,0,.39,0,.58s0,.37,0,.55,0,.42,0,.62,0,.29,0,.43a3.1,3.1,0,0,0,.1.53.75.75,0,0,1-.06.55.58.58,0,0,0,0,.19c0,.37.09.75.13,1.12a5.88,5.88,0,0,1,.07,1,2.48,2.48,0,0,1-.17,1,.74.74,0,0,1-.36.38c-.28.11-.57.19-.85.28s-.47.13-.7.21a6.66,6.66,0,0,0-.73.31c-.28.14-.56.29-.83.46a6.2,6.2,0,0,0-.92.7,5.48,5.48,0,0,0-.65.71c-.11.16-.23.31-.33.47a4.83,4.83,0,0,0-.32.59,8,8,0,0,0-.32.75c-.07.21-.11.43-.17.65a4.65,4.65,0,0,0-.15,1c0,.27,0,.53,0,.8s0,.34,0,.51,0,.39,0,.58,0,.42.05.63.06.45.08.68l.12,1.06c0,.31.09.63.13.94s.08.59.11.88.08.67.11,1,.09.85.14,1.27c0,.26.07.52.1.78s.06.6.1.9,0,.43.07.64,0,.36.05.53l.09.91c0,.38.06.75.1,1.12s0,.51.08.76c0,.4.06.8.1,1.2,0,.16,0,.32,0,.48s0,.53,0,.79c0,.07,0,.13,0,.2s0,.41,0,.61,0,.6,0,.9l0,1.45c0,.24,0,.49,0,.74s0,.62-.07.93,0,.77-.1,1.15-.11.87-.17,1.3-.15.87-.22,1.3-.09.63-.15,1-.12.62-.18.94c-.13.65-.25,1.31-.38,2-.07.32-.13.64-.21,1-.12.48-.25,1-.38,1.42-.05.19-.09.39-.14.58l-.15.58a2.43,2.43,0,0,1-.24.67,2.38,2.38,0,0,1-.4.49,2.16,2.16,0,0,1-.82.5h-.45l-.09,0a2,2,0,0,1-1.08-.48,1.21,1.21,0,0,1-.37-.47c-.16-.42-.31-.85-.45-1.28s-.19-.67-.28-1-.21-.87-.31-1.32-.22-1-.32-1.47-.16-.78-.23-1.17c0-.15-.05-.3-.08-.45-.06-.33-.13-.65-.18-1s-.11-.65-.15-1-.08-.56-.11-.84,0-.56,0-.84,0-.46,0-.69,0-.25,0-.38,0-.55,0-.82,0-.49,0-.73,0-.55,0-.83,0-.49,0-.74,0-.52,0-.79,0-.48,0-.73,0-.78,0-1.17.07-.91.11-1.36.11-.87.16-1.3.09-.79.13-1.19.07-.76.11-1.14c0-.18,0-.35.05-.53s.07-.59.11-.89,0-.43.08-.65L57.65,68c0-.26.08-.52.11-.78s.07-.65.11-1S58,65.41,58,65l.06-.62c0-.25.07-.49.1-.74s0-.32.07-.47.08-.53.11-.79,0-.39,0-.58c0-.38,0-.75,0-1.12a5.85,5.85,0,0,0-.12-.73c-.05-.24-.11-.48-.17-.72a4.22,4.22,0,0,0-.18-.45,8,8,0,0,0-.36-.79c-.17-.29-.36-.57-.56-.85a4.49,4.49,0,0,0-.84-.9l-.4-.31a3.45,3.45,0,0,0-.83-.48,5.48,5.48,0,0,0-.56-.23l-.87-.35-.87-.34a.88.88,0,0,1-.47-.46C52.09,54,52.06,53.84,52,53.73Zm7.67-19.17v1.2s0,0,0,0c0-.36,0-.72,0-1.07a.38.38,0,0,0,0-.1.77.77,0,0,0,0-.15c0-.2,0-.41,0-.61v-.25h0v.23c0,.14,0,.27,0,.4S59.68,34.43,59.69,34.56Zm3.37,2.66v1.65s0,0,0,0a.3.3,0,0,0,0-.13v-1.5s0,0,0-.06a1.67,1.67,0,0,0,0-.63Zm3.3-4.13v1.68h0s0-.05,0-.08v-.82c0-.24,0-.48,0-.72,0,0,0,0,0-.06a.79.79,0,0,0,0-.13c0-.24,0-.49,0-.74v-.3h0c0,.06,0,.12,0,.17s0,.2,0,.3S66.36,32.85,66.36,33.09Zm-7.59,32-.1,0c0,.07.06.14.14.09a.16.16,0,0,0,0-.07l.15,0a.25.25,0,0,0,0-.07s0,0,0-.06.15,0,.18-.07L59,64.8,59,65c-.1,0-.12.08-.18.12ZM62,80.47h0s.09,0,.12,0,0,.06,0,.09l.11,0-.07-.08s0,0-.06,0l-.28-.05v0c-.06.07,0,.11,0,.15a.42.42,0,0,1,0,.12l.18,0L62,80.57l0,.06,0,0Zm.17-.23h0l.15.1a.67.67,0,0,1,.06.12s.06,0,.09,0,.09-.07.07-.13L62.51,80h.06l-.07-.15-.08,0,.14-.12c0-.06,0-.11,0-.18s-.06-.14-.09-.21l-.05,0c.07-.11-.1,0-.11-.11l-.17.09,0,.06s0,.09,0,.11a.07.07,0,0,0,.11,0s.05-.09.11,0l0,0s0,0,0,0l.14.06-.11.15h0l0,0c0,.12-.11.11-.18.12s0-.08,0-.08-.06,0-.1,0l0-.13h0a.14.14,0,0,0,0,.06c.08,0,0-.08,0-.11H62l-.08.12,0,0-.12.2.07.07-.08,0v0h.25l-.1.1,0,0,0,0ZM59.53,85l-.08,0s0,0,0,0,0,.1,0,.16a2,2,0,0,0,0,.24,1.24,1.24,0,0,0,1,.87.8.8,0,0,0,.67-.14,1.67,1.67,0,0,0,.37-.38,1.2,1.2,0,0,0,.21-.79,1,1,0,0,0-.22-.51,1.67,1.67,0,0,0-.59-.56,1,1,0,0,0-.28-.08,1.09,1.09,0,0,0-.26,0,1,1,0,0,0-.55.32A1.33,1.33,0,0,0,59.53,85ZM68,30.41h0v.12c0,.34,0,.69,0,1s0,.68,0,1c0,.49,0,1,0,1.45,0,.07,0,.14,0,.21l0,.59c0,.16,0,.33,0,.49s0,.06.07,0,0-.1,0-.15l0-.65c0-.19,0-.37,0-.56s0-.33,0-.5,0-.28,0-.42l0-1,0-.63c0-.32,0-.65,0-1ZM61.7,33.88,61.52,38c.06,0,.09,0,.09-.06v-.24c0-.31,0-.62,0-.94l0-.7c0-.14,0-.29,0-.43l0-.35c0-.25,0-.5,0-.75s0-.35,0-.52S61.78,33.87,61.7,33.88ZM60.46,82a2.22,2.22,0,0,1-.15-.23l-.34,0v.08l.08,0h0c-.1.05-.06.1,0,.14s-.07.08-.06.1.14.09.19.07a.29.29,0,0,1,.22.06l0-.19Zm3.12-1.49s0-.07-.08-.11-.06-.07-.09-.07-.17.08-.26.1h0s.06.07,0,.08,0,.18,0,.28v0l0-.06,0,0c0,.11.14.07.17.14v0c0-.06,0-.12-.07-.19v0h0l.14,0-.1,0a1.56,1.56,0,0,1,0,.16C63.44,80.7,63.59,80.65,63.58,80.48ZM67.87,34h0a.32.32,0,0,0,0,.09v.66c0,.4,0,.8,0,1.2v.44s0,0,0,.06a.14.14,0,0,0,0-.06v-.56c0-.25,0-.5,0-.76Zm-13.43-.59,0,0s0,0,0,.06,0,.28,0,.42,0,.55.05.82,0,.27,0,.4,0,.2,0,.3a.12.12,0,0,0,0,.08h0C54.51,34.8,54.48,34.11,54.44,33.43Zm2.19,2.27h0v1.59c0,.54,0,1.07,0,1.6v1.59h0v0c0-.78,0-1.56,0-2.34s0-1.31,0-2a.12.12,0,0,1,.07-.13s0,0,0,0h-.07Zm9.48-.58a22.77,22.77,0,0,0,0-2.74Zm-.68-.58h0v2.68h0ZM55.06,41.29v0l-.24,0a0,0,0,0,0,0,0l.3.09v.38h.12c0-.11,0-.22,0-.33l0,0,.06-.08h0l-.1,0v-.65h0a.15.15,0,0,0,0,.07c0,.14,0,.28,0,.43A.41.41,0,0,1,55.06,41.29ZM60.82,31s0,0,0,0a.6.6,0,0,0,.11.06s0,0,0-.05a.39.39,0,0,0,0-.15s0-.06,0-.08l0-.05h-.07l0-.06-.23.06s0,0,0,0-.07.11,0,.16,0,.07,0,.13ZM61,67.26c.09-.08,0-.18,0-.26l-.1-.09,0,0,0-.08a1,1,0,0,1-.21.07s-.06,0-.07,0,0,.09,0,.13,0,.06,0,.12.11-.09.18,0Zm1-31.77h0V31.55h0Zm-9,3.24c0-.11,0-.22,0-.34,0-.28,0-.57,0-.85,0-.06,0-.12.08-.15s.05-.06,0-.11-.13-.17-.1-.29,0,0,0,0v.25l-.06,0a.14.14,0,0,0,0,.07s0,.07,0,.1v1c0,.18,0,.35,0,.53a2.62,2.62,0,0,1,0,.28h0v-.5Zm10.87-7.09h0v3.72h0ZM57.11,53.22l.1,0,.06,0a.64.64,0,0,1,0-.07,1.67,1.67,0,0,1,0-.18h0l0-.13,0-.08c.07-.05.05-.11,0-.18h-.06l-.05,0s-.06,0,0,.07a.06.06,0,0,1,0,0,.44.44,0,0,0,0,.32l-.08,0Zm7.07-17.95h0V31.79h0Zm-11.55-.92h0c0,.18,0,.36,0,.54v.46c0,.17,0,.34,0,.5s0,.27,0,.37a.84.84,0,0,1,0,.1c0,.23,0,.46,0,.69a.23.23,0,0,1,0,.11.12.12,0,0,0,.06.16ZM64,37.64h0V34.72h0Zm-2,50.75.12-.14-.06,0a.75.75,0,0,0-.14.12l-.12-.09,0,.23h0a.62.62,0,0,0,0-.12l.15.1-.08,0c.06.1.11.07.15,0l.07,0c0-.07,0-.13.07-.19l-.11,0v.11Zm.86-51h0v2.73h0Zm3.76-6.22h0v2.42h0c0-.41,0-.82,0-1.23S66.54,31.51,66.54,31.12ZM60.8,36.77l0,0-.11-.1,0,0,.07,0a.37.37,0,0,0-.39.17s.07,0,.09,0,.06,0,.09,0,0,0,.06,0S60.71,36.76,60.8,36.77Zm0,35.94a.4.4,0,0,0-.4.18l.09,0,.08,0,0,0,.2-.1a.47.47,0,0,0-.1-.1ZM55.39,36.44h0V34.26h0Zm3.26,29.82a2,2,0,0,1,.17-.15s0-.07,0-.09a1,1,0,0,0-.18-.09l-.06.06a.47.47,0,0,1,0,.12C58.57,66.19,58.57,66.25,58.65,66.26Zm-.06-36.39a.47.47,0,0,1,0,.12c0,.08,0,.14.06.15a1.29,1.29,0,0,0,.17-.15.1.1,0,0,0,0-.09l-.18-.09ZM56.07,41.54l-.09,0a.65.65,0,0,1-.27-.08.42.42,0,0,0-.32-.11C55.4,41.46,55.69,41.56,56.07,41.54ZM56,38.05h0l0,.06,0,.08A.13.13,0,0,0,56,38a.53.53,0,0,0-.2.31H56l.06.06s0-.11,0-.11S56,38.1,56,38.05Zm1,15.84h-.12c.12.09.17,0,.24-.06l0-.08.16-.09,0,0a.25.25,0,0,0,0-.1H57v0l0,0C56.93,53.7,56.92,53.79,57,53.89Zm10.46-17.6h0V34.57h0Zm-5.56,1.35h0v-1.7h0Zm2.35-2.29h0V37h0Zm-.08,3h0v1.41h0ZM60.87,82.87s0-.11.1-.06a1,1,0,0,0-.07-.17c-.07-.09-.07-.09-.11-.07l.05,0-.08,0s0,.08,0,.12S60.85,82.81,60.87,82.87ZM59,64.59l-.16.09v0s0,.08.06.1.06,0,.1,0l0,0s.05,0,0-.07S59,64.62,59,64.59ZM60.3,31.13h0v1.24h0ZM57.73,80.94l-.18-.07a1.17,1.17,0,0,1,.05-.11h0l-.13.23.12.1C57.54,80.93,57.7,81,57.73,80.94Zm-3.16-44.3h0V37.7h0Zm3.2,48,0,0,.15-.08v0l.07,0a.51.51,0,0,0-.16-.13s-.06,0-.1.07l.09,0ZM59,34c0-.06,0-.16-.17-.12l0,.07-.1,0c.06.08.18-.07.19.08Zm0,36.19s0-.07,0-.12-.06-.08-.11-.09a.44.44,0,0,1,0,.1l-.07,0s0,0,.06,0S58.93,70.16,59,70.23ZM52.73,37.31l0,0s-.07.08-.07.12,0,.05.07.07l.14-.12Zm9.74,20.85-.08.1a.08.08,0,0,0,0,.05l0,0c.07,0,.12,0,.16-.1ZM60.71,88.27h0s0,.09,0,.13h0v-.27l-.09,0s0,0,0,.06Zm-2.15,0c-.07,0-.17,0-.24.12h.1s0,0,0-.09a.62.62,0,0,1,.08.12A1.31,1.31,0,0,0,58.56,88.23Zm-.13-33.11,0,.09h.13c0-.05,0-.11,0-.17h0v0L58.53,55C58.55,55.1,58.5,55.12,58.43,55.12ZM66.7,38.73h0v.84h0Zm-9-8.33v0l.1,0a.3.3,0,0,1,0-.1s0,0,.06,0l-.06,0,0-.06a1.89,1.89,0,0,0-.06.18Zm2.17,57.92h0a.27.27,0,0,0,0-.09s-.18,0-.21,0,0,0,0,0a0,0,0,0,0,.06,0l.06,0Zm-.82-18.4L59,70s0,0,.08,0,0,0,0,0l.11,0h0v0S59.22,70.05,59.1,69.92Zm.08-36h0a.32.32,0,0,1,0-.07l-.13-.1-.16.06a.11.11,0,0,0,.08,0h0l.1,0S59.18,33.94,59.18,34Zm7.5,4.7h0v-.78h0ZM63,87.08a.76.76,0,0,0,0,.15h.11c0-.06,0-.11,0-.15Zm-1.7,1.71c0-.05.12-.07.09-.15l-.07,0C61.26,88.66,61.33,88.72,61.34,88.79Zm-4-7.57.16-.06v0l-.07-.06C57.45,81.11,57.42,81.15,57.39,81.22Zm-.87-39.6-.16,0c0,.08,0,.1.06.1S56.51,41.71,56.52,41.62Zm.72,12h0a2.34,2.34,0,0,0,0-.26l-.08.07A2,2,0,0,1,57.24,53.58Zm3.08,34.88.13-.1-.19,0Zm-1.71,2.69h0l0,0-.08-.07c0,.08,0,.19.08.2A1,1,0,0,0,58.61,91.15Zm2.06-23.88v0l.2,0-.07,0s0-.09,0-.14Zm0-36.12v0l.19,0-.06,0s0-.1,0-.15ZM59,89.85c0,.06,0,.09,0,.11l.16-.06v0Zm.18-36.07v0H59a1,1,0,0,1,0,.11ZM62.94,88l0-.11-.12,0A.12.12,0,0,0,62.94,88Zm-4.46,1.84,0,0,.07,0,.09-.06-.18,0v0h.05Zm0-36.11,0,0,.15-.11-.18,0v0h.05A.35.35,0,0,1,58.48,53.73ZM67.42,32l-.1,0,0-.09h0l-.06.16c.06,0,.1,0,.09.06Zm-4,49,0,0s0,0,.06,0a.14.14,0,0,1,.14,0h0v0ZM57.09,53.51l0,0a1.8,1.8,0,0,1-.08-.21l0,0Zm1.45,11.71c0-.07.05-.13.08-.19S58.48,65.12,58.54,65.22Zm-2.87-31.1.25,0C55.71,34,55.71,34,55.67,34.12Zm3.48,55.63v0l-.09-.06,0,.1Zm1.15-59.1h0v.4h0Zm-1.15,23v0l-.09-.06a.49.49,0,0,1,0,.11Zm-.22,24.55h-.14v0l.14.07Zm2.31,10,.15.09a.41.41,0,0,0-.1-.13Zm1.33-7.63h-.12a.78.78,0,0,0,0,.14ZM55.18,54l.16,0-.15-.09A.28.28,0,0,1,55.18,54ZM59,78.14v0l.09.07a.38.38,0,0,1,0-.12ZM57.48,82l-.17,0v0C57.36,82,57.41,82.12,57.48,82Zm3.84-29.46h0s0,.06.06.07.05,0,.05-.05,0,0,0-.08h0a.15.15,0,0,0,0,.07Zm4.47-14.24a.37.37,0,0,1,.06.1.36.36,0,0,0,.08-.09ZM55,53.9h-.17l.09.09ZM64.67,33s0-.09-.12,0,0,0,0,0ZM60.2,64.7l0,0c.06,0,.12,0,.15-.07Zm1.67-3.47h0a.74.74,0,0,1,.08-.15h-.09S61.88,61.18,61.87,61.23Zm5.71-28.64,0,0,.14.13,0,0ZM57,52.8l0,0a.6.6,0,0,0,.08-.08s0,0,0-.09Zm3.31,12.26v0h.14s0-.06,0-.09Zm-.54-11.33c.09-.1.09-.12,0-.17l0,.07A1,1,0,0,1,59.75,53.73Zm4.42-22.19.11-.07v0s-.06,0-.08,0S64.18,31.51,64.17,31.54ZM59.79,89.75l0,.09h0c.06-.12.06-.12,0-.17ZM66.68,40h0v-.36h0ZM59.2,65.45l-.15,0a.69.69,0,0,1,0,.1ZM57.55,32.1a.05.05,0,0,1,0,0l.12.08v-.11S57.59,32.16,57.55,32.1Zm.1,52.05.11-.1,0,0-.11,0A.81.81,0,0,0,57.65,84.15Zm4.59-23,.17.07v0C62.38,61.18,62.32,61.19,62.24,61.2ZM58.52,84.47l.08-.06-.11-.09C58.5,84.38,58.51,84.42,58.52,84.47Zm1.19-51.26h0v.25h0Zm.95,55.57a1,1,0,0,1,0,.17l.08-.14Z"/><path class="cls-2" d="M62.17,80.24c-.07-.08,0-.08,0-.11s.05.1,0,.12Z"/><path class="cls-2" d="M62,80.47l-.11,0,0,0s0,0,.06,0l.07,0Z"/><path class="cls-2" d="M69.5,30.64v2.21h0a.24.24,0,0,1,0-.08V30.7a.25.25,0,0,1,0-.07Z"/><path class="cls-2" d="M57.88,50.17a2,2,0,0,1,.65-.07h2.72l1,0h.9l1.37,0L65.63,50l1.08,0,.75,0,.39,0c0,.06,0,.1-.08.1l-.77,0h-.48l-1,0h-.68l-.71,0h-.78l-.58,0h-2l-.82,0H58C57.89,50.29,57.87,50.27,57.88,50.17Z"/><path class="cls-2" d="M52.81,49.85c0-.28,0-.55,0-.82s0-.64,0-1,0-.37,0-.56,0-.38,0-.58,0-.44,0-.67,0-.44,0-.67a.92.92,0,0,1,.08-.27.12.12,0,0,1,.15-.06l.27.08s0,0,0,.06a.58.58,0,0,1-.09.41,1.19,1.19,0,0,0-.15.72c0,.21,0,.43,0,.65s0,.52,0,.79,0,.39,0,.59,0,.53,0,.8a1,1,0,0,1-.05.25.56.56,0,0,1,0,.12C53,49.86,53,49.88,52.81,49.85Z"/><path class="cls-2" d="M54.28,43.35a1,1,0,0,1,.78-.37h.67l.47,0h2l.68,0,.52.05A37.6,37.6,0,0,1,54.28,43.35Z"/><path class="cls-2" d="M53.51,45.57l.18-.12a.57.57,0,0,1,.29-.08h1.71l.54,0,1,0q.38,0,.75,0a1.11,1.11,0,0,1,.3.08l0,.11-.64,0-1,.06-.86,0-.92,0h-.92a1.15,1.15,0,0,1-.26,0S53.56,45.61,53.51,45.57Z"/><path class="cls-2" d="M68.05,42.91c0,.05,0,.1,0,.16H63.17a.5.5,0,0,1,.36-.22l.92,0,.69,0h1.37c.36,0,.73,0,1.1,0a1.32,1.32,0,0,1,.32.07Z"/><path class="cls-2" d="M53.43,50.36a.38.38,0,0,1,.32-.23l.72,0h1.67c.32,0,.63.07.94.1a1.2,1.2,0,0,1,.2,0,.11.11,0,0,1,0,.08.1.1,0,0,1-.06,0H53.43Z"/><path class="cls-2" d="M62.73,45.39A38.63,38.63,0,0,1,68,45.22a.24.24,0,0,0,0,.09c0,.06,0,.1-.1.1l-.82,0H62.73Z"/><path class="cls-2" d="M55,50.49c0,.19-.06.38-.08.57a.09.09,0,0,1-.1.1c-.24,0-.48,0-.72,0a1.93,1.93,0,0,1-.42-.06,1.55,1.55,0,0,1-.32-.14v0Z"/><path class="cls-2" d="M53.22,43.51c0,.13,0,.23,0,.33a.38.38,0,0,1-.17.27.86.86,0,0,0-.23.35l-.14-.07a4.48,4.48,0,0,1,.19-.44,1.28,1.28,0,0,1,.14-.23c.06-.09,0-.13,0-.19s-.18-.19-.11-.34a.35.35,0,0,1,.37-.22l.28,0s.11,0,.11.08a.14.14,0,0,1,0,.09Z"/><path class="cls-2" d="M67.2,51.15s0-.13,0-.22a.14.14,0,0,1,.14-.13h.95s.1,0,.11,0,0,.11-.06.14l-.88.41C67.35,51.45,67.2,51.34,67.2,51.15Z"/><path class="cls-2" d="M62.44,80.14c-.08.08-.11,0-.17,0A.12.12,0,0,1,62.44,80.14Z"/><path class="cls-2" d="M62.23,79.94l-.13-.08v0s.08,0,.11,0A.54.54,0,0,1,62.23,79.94Z"/><path class="cls-2" d="M29.27,30.71,27.93,32.3a.23.23,0,0,1-.24,0c-.08-.08-.08-.2-.14-.25s-.12,0-.13,0l.15-.16,0,0-.09-.07c.09-.18,0-.21-.16-.31s-.05-.05-.08-.12-.17-.09-.27-.12a2.92,2.92,0,0,0-.91-.27c-.16.15-.3.32-.45.49a5.17,5.17,0,0,0-.39.53c.06.06.06.16.09.23s.09.09.15,0c0,.41.17.37.24.72a.33.33,0,0,1,.1.06c.11.1.19.25.31.34l.1.08,0,0a.46.46,0,0,1,.38-.2l.09.06a.38.38,0,0,1,.15.34,2.32,2.32,0,0,1-.22.3,1.55,1.55,0,0,1-.42.39.61.61,0,0,1-.16.28l-.12.13a.14.14,0,0,1-.16,0l-.08-.08c-.17-.34.2-.54-.23-.8l.16,0c-.19-.31-.37-.62-.59-.91a4.57,4.57,0,0,1-.29-.36.31.31,0,0,1-.05-.12.69.69,0,0,1-.05-.13h0s0-.13,0-.17L24.54,32v0a1.3,1.3,0,0,1-.48-.58l-.11,0v-.16l-.13,0s0-.07,0-.11-.28-.48-.33-.62l0,0c-.32-.27-.41-.67-.7-.95h0l0,0a1.85,1.85,0,0,1-.36-.64h-.11c0-.34-.45-.55-.5-1l0-.06c.06-.08.21-.18.31-.12l.05-.1c.38.12.69.4,1.08.51a.28.28,0,0,1,.22.11c.4.06.68.35,1.08.42.07,0,.11.08.17.11v0l.12.06h0a.61.61,0,0,0,0,.06c.13.1.41.09.58.18l.09-.11a.56.56,0,0,0,.19.28c.25.21.55.23.81.45.09.08.28.07.39.08a.92.92,0,0,0,.19.24c.35.29.79.25,1.13.53.18-.05.19.12.32-.09l.07.07h.07c.14-.21.31,0,.5,0ZM22.73,28l-.14-.12-.12.14.15.12Zm.07.83c-.21.05.13.1.14.09ZM23,29l-.21.13h.08Zm-.15-.39a1,1,0,0,1,.17-.11Zm.1.07s-.1-.08-.1-.08Zm-.05-.19.05.19c.08-.13.17,0,.24-.13C23.05,28.67,23,28.4,22.87,28.51Zm2.43,1.87V30.3c-.31,0-.58-.34-.88-.32l0-.06a.26.26,0,0,0-.15,0h0l-.1-.08,0,0a1.47,1.47,0,0,0-.6-.23s.17.21.2.24.12.3.3.42c0,.18.21.14.06.31a.91.91,0,0,1,.17.09c.13.11.18.34.28.48a.27.27,0,0,1,.12.06c.08.06.1.17.19.24l.07,0v0H25v-.09a1.65,1.65,0,0,0,.36-.34.78.78,0,0,0,.14-.27c.07,0,.22-.18.27-.24C25.45,30.55,25.56,30.47,25.3,30.38Zm-1.12-1.55-.11,0,0,.07.06.08Zm.09,2.24-.12,0-.06.07.06.05Zm.26-1.46h-.1l0,.06,0,.07Zm.21-.26-.07.12.15.13-.08-.16Zm0-.41-.05.07.09.08.1,0Zm.64.4-.11.14a.34.34,0,0,0,.15-.09Zm.39.59-.13.18.11.06h.1Zm.32,4-.06,0,0,.07.1.08Z"/><path class="cls-2" d="M35.53,25.28a1.14,1.14,0,0,1-.44.31c-.23,0-.19.11-.48,0a1.41,1.41,0,0,1-.43.1l-.08-.17-.23,0c-.48-.36-.47-.21-.8-.69a1.56,1.56,0,0,0-.73-.65c-.07-.05,0-.14-.09-.19l-.13.06a.69.69,0,0,0-.1-.25.11.11,0,0,0-.16,0V24c-.16,0-.1-.11-.24,0s-.18,0-.26,0l0,.07h0a.31.31,0,0,1-.07.09c-.11.09-.23.06-.29.11a1.52,1.52,0,0,1-.17.3l.16.19c.35.41.65.87,1,1.28a6.65,6.65,0,0,0,.83.85.73.73,0,0,0,.23-.16c.2-.16.33-.07.48.11-.16.15-.28.34-.45.47-.44.36-1,.77-1.43,1.12a.27.27,0,0,1-.18-.1.51.51,0,0,1-.1-.21,1,1,0,0,1,.37-.14v-.07a.09.09,0,0,0-.1,0c0-.05.16-.33,0-.5s-.18-.14-.26-.24a.23.23,0,0,1-.05-.21c-.24-.24-.5-.49-.72-.75a2.71,2.71,0,0,1-.3-.45A3.88,3.88,0,0,1,29.6,25a2.06,2.06,0,0,0-.48-.45l0,0L29,24.34a.68.68,0,0,0-.23-.18l.05,0L28.77,24c-.19-.24-.35-.52-.55-.75a1.69,1.69,0,0,0-.59-.51c-.46.16-.39.43-.86,0a1.25,1.25,0,0,1,.24-.27c.1-.09.24-.13.33-.21l.05-.09.27-.17s0,0,0,0c.25-.2.59-.25.84-.46s.46-.58.75-.82c.13-.11.72-.31.76-.39v0a.23.23,0,0,0,.14.07l.08.08.1-.1a1.73,1.73,0,0,1,1.31.67c.22.26.71.93.56,1.28l-.12,0a.37.37,0,0,1,.09.2c0,.23-.13.45-.24.64,0,0,0,0,0,0a1,1,0,0,1,.43-.06s.11-.09.18-.06,0,.09,0,.09a.39.39,0,0,0,.28,0c.19.06.36.28.59.28l.11.14s0,.13,0,.16.17,0,.2,0A3.25,3.25,0,0,1,34,24a1.05,1.05,0,0,1,.15.24c.3.17.45.49.72.69s.59.05.65.13A.37.37,0,0,1,35.53,25.28Zm-7.39-2.64-.2-.13.1.12.05.06Zm.31.06c-.08-.1-.26-.08-.39-.08.07,0,.25.14.31.1h0v0s.07,0,.09,0Zm-.06.23-.07.06.08.1.07-.06Zm.94-1.51c-.15.13-.22.27-.38.4a1.44,1.44,0,0,1-.37.19,2.18,2.18,0,0,1,.76.69c.34.41.61.87,1,1.28l.09.11.71-.56c0-.16.1,0,0-.28l.1,0a1.76,1.76,0,0,0,.06-.46h0a2.43,2.43,0,0,0-.45-.91C30.49,21.54,29.78,21.06,29.33,21.42Zm-.67,1.19-.07.06.08.09.07-.05ZM29.93,24h-.06v.13h.06Zm.33.68-.1.08.07.11.11-.09Zm.14-4.22-.11.07.08.1.11-.09ZM31.11,22l0,.06.07.06,0,.06a1.2,1.2,0,0,1,.2.48c0-.1.13-.13.08-.19l-.11-.07,0-.08c.11-.09,0-.12,0-.2S31.14,22.07,31.11,22Zm.49,4.11-.09.07.06.1.11-.07Zm.64,1.15-.11.07.08.1.1-.08Zm.64-.24-.09.07.07.1.1-.08Zm1.8-1.8-.1.08.08.1.1-.08Z"/><path class="cls-2" d="M38.59,15.54c0,.05.11.08.17.11.15.26.34.55.49.82a3.43,3.43,0,0,1,.35.82c0,.14-.12.17-.2.24-.72-.39-1-1.89-2-1.49,0,.13,0,.23.09.33a.34.34,0,0,1,0,.2.14.14,0,0,1,.08.05s0,.11,0,.15a4.76,4.76,0,0,1,.39.64c.26.47.48.95.74,1.42a6.82,6.82,0,0,0,.43.62.8.8,0,0,0,.13.43,6.73,6.73,0,0,0,.4.63l-.12,0,0,0h0a0,0,0,0,1,0,0l0,.06a.11.11,0,0,1,.13,0c0,.06,0,.13,0,.18s0,0,.07,0v0A.08.08,0,0,1,40,21a.36.36,0,0,1,0,.1h.15c0,.05-.08.15,0,.2s.08.07.12.16a.41.41,0,0,0,.42,0c.1-.06,0-.06.15-.12a.38.38,0,0,1,.44.05h0c-.08.23.25.34-.24.61-.12.07-.27.09-.39.16a.66.66,0,0,0-.24.23.37.37,0,0,0-.29,0c-.07,0-.11.1-.16.13s-.16,0-.24,0l-.86.57c-.1,0-.23,0-.28-.13a.21.21,0,0,1,.07-.23h-.09l.3-.35,0-.07s0,0,0,0,0-.16.09-.22a6.57,6.57,0,0,1-.16-.67c-.16-.11-.23-.29-.38-.42a.33.33,0,0,0-.06-.26c-.07-.14-.18-.25-.26-.4l-.15-.3H38a1.85,1.85,0,0,1-.29-.4,3.1,3.1,0,0,1-.25-.56.92.92,0,0,1-.2-.25c-.19-.35-.33-.72-.52-1.07s-.35-.51-.51-.79a1.16,1.16,0,0,1-.1-.28l-.15.05a1.57,1.57,0,0,0-.47.49c.08.17,0,.32.15.46a.14.14,0,0,0,0,.18.2.2,0,0,0,.08.08l0,.07h0l0,.2.39.64,0,.09h0a.39.39,0,0,1-.17.39.16.16,0,0,1-.09,0l-.23-.11L34.94,18l-.15.08c.12-.41,0-.45-.21-.78a.94.94,0,0,1-.06-.15.68.68,0,0,1,.28-.3c.13-.06.29-.09.4-.15l.38-.21s.13,0,.12,0,0,0,0-.06a5.17,5.17,0,0,1,.48-.27.14.14,0,0,1,.06-.12c.06,0,.09,0,.14,0s.09-.07.12-.07,0,0,.08,0l0-.1h0l0,0c.44-.24,1.23-.65,1.24-.64h.16a.64.64,0,0,1,.06-.11l.24-.1a.52.52,0,0,1,.17.16C38.6,15.24,38.54,15.45,38.59,15.54Zm-3.14,2.27-.05-.08-.07,0,0,.08ZM36.68,16l0-.07,0,.07,0,.08Zm.18,1.28,0,0,0,.06a.5.5,0,0,0,.08.12Zm.58-.69,0-.06-.06,0,0,.07Zm.05,1.69-.05-.08-.07.05,0,.07Zm0-1.6-.06,0,0,.05.06.27Zm.08,1.74-.06,0,.13.19a.44.44,0,0,1,0-.15Zm.44-.38,0,0-.05,0,0,.05Zm.21.5,0-.07,0,0,0,.07Zm.95-1.83,0-.09-.08.05,0,.09Zm.06,4.9,0,0-.06,0,0,.05Zm0-4.73,0-.07-.06,0,0,.07Zm.29,3.68,0-.06-.06,0,0,.07Z"/><path class="cls-2" d="M47.2,19.37a1.33,1.33,0,0,0-.39.21,2.21,2.21,0,0,0-.81.17c-.36.12-.69.28-1,.41l-.18.06-.09-.16.06-.09h0v0l0-.12.1,0c.11,0,.13-.18.24-.22a.24.24,0,0,1,.12,0l0-.08c.12-.1.28-.15.35-.3a.92.92,0,0,1,0-.29l-.21-.66.08,0A5.83,5.83,0,0,1,45,17.4a2.37,2.37,0,0,0-.08-.34,1.18,1.18,0,0,0-.29-.42c.06,0,.14-.08.11-.16s-.1-.18-.13-.28l-.21-.11.14-.05,0,0a2.53,2.53,0,0,1-.13-.22.33.33,0,0,1,0-.17,1.2,1.2,0,0,1-.15-.3.45.45,0,0,1,0-.26,1.57,1.57,0,0,1-.23-.49,2.11,2.11,0,0,0-.45-.91l0,0c-.09-.07-.11-.24-.23-.13-.2-.22-.53,0-.81,0v-.07a.2.2,0,0,1-.18-.11v0l.06-.06h0s0,0,0,0h0v0l-.13-.07a.42.42,0,0,1,.13-.07c.12-.05.26.07.32.05s0-.15,0-.17a9,9,0,0,0,2-.68,3,3,0,0,1,.73-.15l0,.07c.09.25-.09.42-.22.62a.22.22,0,0,0-.11,0c-.13,0-.21.17-.3.24s0,.13-.11.17l.06,0,0,.08a.09.09,0,0,1,.09.07c0,.09,0,.2-.06.28l0,0,.07,0a7.34,7.34,0,0,1,.28,1,2.54,2.54,0,0,1,.37.71c.11.33.23.7.34,1,0,0-.11.1-.1.14s.15,0,.16,0a3.57,3.57,0,0,0,.1.35,3.82,3.82,0,0,0,.48,1c-.11.22,0,.45.1.67.41.47,1.16-.49,1.41.33A2.64,2.64,0,0,1,47.2,19.37Zm-4.31-6.19-.07,0,0,.09.06,0Zm1-.18-.07,0,0,.09.07,0Zm.48,1.2-.08,0,0,.1.09,0Zm0-.7-.08,0,0,.07.09,0Zm0-.54-.07,0,0,.09.07,0Zm.2.22-.09,0,0,.09.08,0Zm.24-.27-.12,0ZM45,16,45,16l0,.06.08,0Zm.46,1.32-.06-.06-.1,0,.06.06Zm.2-.11-.06-.09-.09,0,.07.09Zm.07.47-.06,0,0,.09h.07Zm.1.63-.1,0,0,.09.08,0Zm.22-.43-.08,0L46,18l.06,0Zm.16.86-.1,0,0,.1.09,0Z"/><path class="cls-2" d="M55.61,15.88s-.08,0-.08,0l.06.05a.27.27,0,0,1,0,.12s0,.1,0,.1a2.83,2.83,0,0,1-.88,1.21,4.46,4.46,0,0,1-1.07.47,3,3,0,0,1-1.59-.21l-.1,0c0-.19,0-.1-.25-.22l0,0,0,0,.07.05c-.26.27.24.46-.49.58,0-.1,0-.22,0-.32a1.25,1.25,0,0,0-.1-.27.52.52,0,0,0,.12-.17s-.06-.08-.08-.13h0l0-.1,0,0h0a2.43,2.43,0,0,0,0-.27s-.15,0-.21,0a8.12,8.12,0,0,0-.09-.89h0l-.1,0,0-.19h.05a.84.84,0,0,1-.08-.19c0-.11.22-.35.33-.37a.48.48,0,0,1,.26.09c0,.08,0,.16,0,.24.13.16,0,.3.24.45a.25.25,0,0,0,0,.12c0,.2.35.56.35.61s.08.09.15.08l.09,0,0,.06c.07.23.26.18.41.33.2,0,.41.11.63.11s.32,0,.47,0,.44-.12.51-.32.51-.05.44-.47c.13-.07.11,0,.12-.18l0,0,.05-.06v0a1.62,1.62,0,0,1,0-.22v-.05c0-.08,0-.17,0-.26s-.1-.06-.14-.06l.11-.15a1.45,1.45,0,0,0-.7-.5c-.18-.26-.56-.24-.84-.33l-.06,0c-.18,0-.32-.15-.5-.08a6.46,6.46,0,0,1-1.59-.7.43.43,0,0,0-.12-.11s-.09,0-.09-.05,0-.09,0-.11l.19,0a.72.72,0,0,0-.27-.09,2.26,2.26,0,0,1-.31-.83,2.11,2.11,0,0,1,0-.83l.14-.13v0c0-.1.08-.21.09-.31.23-.29.42-.59.8-.68l0-.16a1.2,1.2,0,0,0,.5,0c.27,0,.54-.17.81-.22a1.56,1.56,0,0,1,.37,0c0,.25.37,0,.45.27l.16,0c0-.07,0-.12-.06-.19a.4.4,0,0,1,0-.18l.28-.05c.21,0,.39,0,.42.25v.05a.69.69,0,0,0,0,.28.81.81,0,0,0,.2.39l-.12,0a.7.7,0,0,1,.12.3,1.07,1.07,0,0,1,0,.31,2.26,2.26,0,0,1,.13.33c0,.15,0,.43-.2.46a.77.77,0,0,1-.42-.1l.08-.08c-.22-.31-.12-.58-.45-.89v0c0-.12-.18-.17-.27-.24s-.33-.2-.52-.18a.9.9,0,0,0-.51-.05,2.6,2.6,0,0,0-.79.33c-.24.14-.3.56-.37.81v0a2.09,2.09,0,0,0,.08.23.24.24,0,0,1-.05.18,1.39,1.39,0,0,0,.71.54c.05,0,.08.1.14.14l.06-.13c.12.29.21.11.35.24a.24.24,0,0,1,.12,0,1.86,1.86,0,0,1,.83.18h.05c.24-.05.45.13.67.21a2.38,2.38,0,0,1,1.4,1.69c0,.2-.09.34-.07.41s.17.12.21.14Zm-4.88-3.83-.11,0,0,.12c0,.06,0,.12,0,.19Zm.13-.66a.58.58,0,0,0-.18.25l0,.14Zm.28,2.17v-.07h-.07v.07Zm.2,3.41a1.76,1.76,0,0,0-.28-.26l.15.28Zm.08-3.51-.06-.19-.08.26h.08Zm3,1.13-.4,0,.2.13.11,0Zm-.19-3.11-.12,0,0,.12c0,.14.11.31.14.44Zm0-.42-.07-.17-.06.06,0,.13Zm.09,3.33,0-.12-.12,0,0,.12ZM55,16.51l0-.09-.1,0,0,.08Zm.05.29,0-.1H55l0,.1Zm0-.66v-.06H55v.06Zm.1.57v-.07l-.07,0v.06Zm.11-.47v-.08h-.09l0,.08Z"/><path class="cls-2" d="M63.53,10.43a.34.34,0,0,0,.09.18c0,.3,0,.65,0,1a3.21,3.21,0,0,1-.1.88c0,.14-.2.08-.3.11-.43-.7.1-2.12-1-2.28-.1.09-.08.21-.08.33a.24.24,0,0,1-.07.19.11.11,0,0,1,0,.09s-.06.09-.08.12a4.8,4.8,0,0,1,0,.75c0,.54-.06,1.07-.06,1.6a3.68,3.68,0,0,0,.06.75.88.88,0,0,0-.11.45,5.85,5.85,0,0,0,0,.73l-.12,0v.05h0l0,0,0,0a.09.09,0,0,1,.08.1c0,.07-.05.12-.05.18s0,.05,0,.08l0,0a.09.09,0,0,1,.05.08.26.26,0,0,1,0,.1l.14.07c-.05,0-.14.08-.14.15s0,.1,0,.19.11.23.35.23.08,0,.19,0a.34.34,0,0,1,.35.26h0c-.18.16.06.42-.5.41-.14,0-.28,0-.42-.06a.74.74,0,0,0-.33.09.34.34,0,0,0-.27-.12c-.07,0-.14,0-.2,0s-.14-.07-.22-.1l-1,.07a.39.39,0,0,1-.18-.26c0-.09.09-.13.17-.16l-.08-.05.44-.15,0-.05s0,0,0,0,.07-.15.2-.15a5.46,5.46,0,0,1,.19-.66,3.48,3.48,0,0,1-.12-.56.39.39,0,0,0,.08-.25c0-.16,0-.31,0-.47s0-.23,0-.35l.06,0a1.37,1.37,0,0,1,0-.49A3.08,3.08,0,0,1,60.8,13a.89.89,0,0,1,0-.32c0-.39.08-.79.08-1.18s0-.62,0-.94a1,1,0,0,1,0-.29l-.15,0a1.63,1.63,0,0,0-.65.19c0,.18-.17.27-.1.47a.14.14,0,0,0-.12.14.29.29,0,0,0,0,.11l-.07,0,0,0-.08.19,0,.75-.06.06h0a.38.38,0,0,1-.34.25h-.1l-.14-.21,0-1.54H59c.31-.3.21-.4.22-.78a1,1,0,0,1,0-.17.8.8,0,0,1,.4-.11c.14,0,.29.06.42.06h.43s.11.07.11,0,0,0,0,0,.55,0,.55,0a.12.12,0,0,1,.11-.07c.07,0,.08,0,.14,0a.65.65,0,0,1,.14,0s0,.06.05.06l0-.1,0,0h.06c.49,0,1.38.05,1.39.06l.14.08a.36.36,0,0,1,.11-.06l.25,0a.41.41,0,0,1,.07.22C63.69,10.18,63.53,10.33,63.53,10.43Zm-3.85.4v-.09h-.09v.09ZM61,16v0H61v0Zm.13-4.93h-.06v.07a.76.76,0,0,0,0,.15Zm0,1.18v-.08H61.1v.09Zm0,.16h-.06v.22s.05-.13.05-.15Zm.45-2.54V9.84l-.07,0V10Zm.06,3V12.8h0v.07Zm.07-.53v-.06h-.07v.06Zm.08,2.95v-.08h-.08v.08ZM62,10.9H61.9v0l-.08.26Zm0-.09v-.08h-.08v.08Zm1.42.95v-.1h-.09v.1Zm0,.19v-.08h-.08V12Z"/><path class="cls-2" d="M78.18,14.63H78a.29.29,0,0,1,0,.09l0,.11c-.25.19-.37.35-.73.22a1.21,1.21,0,0,1,0-.73,1.1,1.1,0,0,0,0-.62,3.28,3.28,0,0,0-.59-.89,1.11,1.11,0,0,0-1.17.21c-.28.08-.22.46-.46.64a.63.63,0,0,0-.21.41c-.61.66-.46,1.16-.75,1.93a1.09,1.09,0,0,0-.1.8,2.43,2.43,0,0,0,0,1c-.1,0-.09,0-.09,0h0c.12.14.1.31.22.42a.83.83,0,0,0,.43.48c.61.22,1.12-.16,1.56-.68l.08-.23.07,0a.31.31,0,0,1,.1-.15.76.76,0,0,1,.25-.43l.51.18c0,.18,0,.24,0,.31S77,17.83,77,18h-.07v0c0,.05,0,.13-.08.23s-.07.08-.13.13,0,0,.08.13l-.18.1,0,0a4.15,4.15,0,0,1-1.31.83A1.69,1.69,0,0,1,74,19.15a1.37,1.37,0,0,1-.9-.89,2.45,2.45,0,0,1-.36-1c0-.26-.06-.48,0-.74-.07-.09,0-.14,0-.23a.43.43,0,0,0,0-.1,4.71,4.71,0,0,0,.13-1c.39-1.45,1.13-3,3-3.23a2.17,2.17,0,0,1,2,1.09l0,.12s.1,0,.11,0a.67.67,0,0,1,0-.55h.54l-.06.24c.08,0,0,.08.05.15v0l0,.07v.07h0c0,.08.07.13,0,.16h0a3.19,3.19,0,0,0-.24,1.1l-.08,0,0,.07Zm-5,2,0-.12v0l-.06,0v0l0,.05v0l.06.16Zm0-.43-.07,0,0,0,.06,0Zm.31-1.09h-.05l0,.05.06,0Zm.22,0h0l0,0,0,0ZM74,18.8l-.21-.07-.06.12.1,0Zm-.1-4.33-.07,0,0,.07.07,0ZM74,14.2l-.18.12.08,0Zm.49-.84h-.13l0,.16.07,0Zm.74-.75,0-.15-.1.06-.08.05Zm2,.2h0l0,.06h0Zm.22.3-.07,0,0,.08.07,0Zm.13.67,0-.18-.07,0v.05Z"/><path class="cls-2" d="M84.39,21.66s0,0,0,0-.06-.11-.12-.14-.1.06-.12.09a1.51,1.51,0,0,0-.07.67l-.22.21-.11.28-.45.46-.08-.06c-.07,0-.15,0-.2,0s-.23-.2-.37-.27c-.39-.21-.88-.26-1.32-.49a5.35,5.35,0,0,1-.56-.36c-.13-.1-.22-.26-.35-.36a.69.69,0,0,1-.25,0s-.07-.08-.13-.11l-.17-.07-.08,0c-.1-.06-.23,0-.34-.1a.31.31,0,0,1-.14-.12.37.37,0,0,1,0-.17c.09-.16.27-.18.42-.22a1.45,1.45,0,0,0,.47,0l.12-.21.07,0a1,1,0,0,1,.07-.28.4.4,0,0,1,.14-.11.6.6,0,0,1,.11-.34,3.24,3.24,0,0,1,.17-.32s0,0,0,0,0,.18.07.19h0s0,0,0,0a1.7,1.7,0,0,1,.1-.14c0-.06-.1-.08,0-.17s.23.07.27,0-.14-.17-.19-.2,0,0,0,0c.14-.26.24-.52.37-.78.26-.48.5-1,.76-1.44a6.79,6.79,0,0,1,.42-.67c0-.06.08-.2.11-.29l.07,0c-.05-.26.25-.41,0-.71l0,0c-.1-.05-.28-.18-.2-.32a.75.75,0,0,1,.11-.13.2.2,0,0,0,0-.17,5.77,5.77,0,0,0,.85.45l1.27.67V16c-.15.15-.25.26-.46.14a.56.56,0,0,0-.3-.08v.14a.52.52,0,0,0-.11-.07s-.06.07-.11.09c-.28.62-.56,1.24-.88,1.84l-.46.81a.47.47,0,0,0-.15.19c-.08.14-.13.32-.21.48a1.12,1.12,0,0,1-.16.22c-.18.33-.31.7-.49,1s-.25.36-.33.55l-.06.1a1.15,1.15,0,0,0,.06.29.33.33,0,0,1,.15.05s0,0,0,0,0,.05,0,.06a5.87,5.87,0,0,0,.67.43.66.66,0,0,0,.81-.05,3.23,3.23,0,0,0,.71-.72.94.94,0,0,0,.06-.15l-.11-.06c.08-.12.24,0,.29-.14s0-.24.1-.35a.32.32,0,0,0,.13.1c.12.06.24.1.36.17a.27.27,0,0,1,.17.19Zm-3.07-1.14-.07-.05,0,.09.08,0Zm.1,1.45-.07,0,0,0,.07,0Zm.19.16-.09-.05,0,.08.09.05Zm.4-3-.07,0,0,.07.06,0Zm.13-.58-.08-.06,0,.07.07,0Zm.48-.25-.07,0,0,.07.07,0Zm.1-1-.07,0,0,.08.06,0Zm.42-.92-.06,0,0,.08.06,0Zm-.09-.63.15-.34-.07,0,0,.08Zm.37,6.38-.09-.05-.27.22.33-.11Zm1.27-6.22-.08,0,0,.06.09,0Z"/><path class="cls-2" d="M94.3,22.91c-.23-.17-.42-.1-.64.05l-.11.27s-.13,0-.11,0h-.07l.08,0a1.21,1.21,0,0,1-.2.33,1.72,1.72,0,0,1-.33.33.32.32,0,0,1-.08.22c-.15.19-.39.43-.55.63L91,26.33l0,0c-.53.63-1,1.19-2,1.07a2.26,2.26,0,0,1-.92-.48,5.91,5.91,0,0,1-.85-.88c.11-.21-.31-.37,0-.58a1,1,0,0,1,0-.17h-.14c-.16-.44.16-.66.21-1a.27.27,0,0,0,.19-.08c.08-.1.1-.25.2-.37l0,0a1,1,0,0,0,.15-.14c.18-.23.27-.52.45-.74a.92.92,0,0,1,.32-.27,1.09,1.09,0,0,1,.19-.33c.12-.15.27-.27.39-.42a.84.84,0,0,0,.17-.37l.14,0,1-1.27L90.43,20a.28.28,0,0,1,.26.08c0-.1-.14-.19-.2-.23s-.09-.08-.08-.13h0l-.09-.09,0,0c0-.05,0-.17,0-.25a.33.33,0,0,1,.11-.09h.19l1.9,1.54a.25.25,0,0,1,0,.25.7.7,0,0,1-.17.13c-.61,0-.48-.82-1.39.31a1.07,1.07,0,0,0-.25.61.25.25,0,0,0-.33.1,4.12,4.12,0,0,1-.44.65.61.61,0,0,1-.11.23c-.11.12-.24.19-.35.32s-.33.51-.53.76a.91.91,0,0,1-.42.32.36.36,0,0,1-.06.32.85.85,0,0,1-.28.22l0,.09H88.1l0,.06a1.24,1.24,0,0,0,.29,1.21,1.18,1.18,0,0,0,1.3.33s0,0,0-.06.36-.22.49-.38.06-.16.12-.23.28-.17.38-.3a.34.34,0,0,0,0-.23h.16s-.08-.08-.11-.14c.14,0,.13,0,.21-.12l.1-.1,0,0c.16-.17.35-.33.49-.51.27-.34.52-.79.76-1.15l.1,0v0c0-.14.17-.23.27-.35s.09-.19.16-.28.23-.22.33-.35a.43.43,0,0,0,.11-.42A.54.54,0,0,0,93.2,22a.37.37,0,0,1,0-.35.57.57,0,0,1,.3-.15,4.65,4.65,0,0,0,.63.53c.12.1.66.46.51.69S94.4,22.84,94.3,22.91Zm-6.85,2.34,0,0,0,0,0,0Zm0-.42,0,0,0,0,0,0Zm.1.7,0,0,0,0,0,0Zm.08-.62-.06-.05,0,.06.06,0Zm.21.09L87.77,25l0,0,.05.06Zm.22-.22,0,0-.05.06,0,0Zm.25-.1-.06-.05,0,0,.06,0Zm.09-.78-.06,0,0,0,0,0Zm1-1.21-.06-.05,0,0,.06.05Zm0-.42,0,0,0,0,0,0Zm.09.7,0,0,0,0,0,0Zm.08-.63,0,0-.06.06.06,0Zm.2.09,0,0,0,0,0,0Zm.23-.21,0,0,0,.06,0,0Zm.25-.11-.05-.05,0,.05,0,0Zm.08-.78-.06,0,0,0,.06.05Zm.93,4-.17.06,0,.06,0,0ZM93.21,23l0,0,0,0,0,0Zm.17-.12,0,0Zm.17-.78,0,0,0,0,.05,0Zm.73.36,0,0,0,0,0,0Z"/><path class="cls-2" d="M96.19,33.69l.1-.06v.12c-.92.26-1.61-.37-2.25-.93a.15.15,0,0,0,0-.14,1.3,1.3,0,0,0-.22-.19c-.21-.3-.44-.6-.68-.88s-.49-.6-.76-.89a.38.38,0,0,1,.13-.18l.1-.07.06.1a.28.28,0,0,1,.29.07v.05c.29.12.65-.11.87-.28s.42-.42.66-.61a2.54,2.54,0,0,1,.34-.23.75.75,0,0,1,.24-.32L95.4,29c.11-.08.16-.2.28-.28s.29-.18.44-.29a.69.69,0,0,0,.2-.29,5.05,5.05,0,0,0,.75-.53,8.3,8.3,0,0,0,.91-.86c0-.2-.24-.38-.3-.6l.08-.05a.22.22,0,0,1,.08-.18.11.11,0,0,1,.1,0l.06-.05a4.19,4.19,0,0,1,.46.48c.21.27.41.56.63.83s.21.25.33.37a.09.09,0,0,0,0,.08c.07.09.21.13.28.21a.34.34,0,0,1,.07.15l.12,0c0,.62.57.83.56,1.47a3.71,3.71,0,0,0-.19.89l-.11-.06c0,.09,0,.23-.07.3a.17.17,0,0,1-.14,0c-.08.06,0,.21,0,.27l-.13-.06a2.08,2.08,0,0,1-1.65.53l-.12.13-.11,0,0,0h0l-.06,0,.15.17h-.14a1.68,1.68,0,0,1-.65,1.62l-.38.32A.63.63,0,0,1,96.19,33.69Zm-2.36-2.07-.06-.07-.09.08,0,.07Zm2.75.25a.61.61,0,0,0,.18-.11c.31-.25.27-.64.25-1a4,4,0,0,0-.33-.47c-.11-.12-.23-.26-.33-.39a.5.5,0,0,1-.14.15l-.08.07a.17.17,0,0,0-.13,0c-.07.06-.11.15-.18.2a.16.16,0,0,1-.11,0,2.19,2.19,0,0,0-.34.46l-.09,0a.61.61,0,0,0-.14.07s0,.13,0,.16L95,31a.22.22,0,0,1-.1.18c-.1.08-.23.08-.32.15a.23.23,0,0,0-.07.11l-.12.1s-.09.07-.07.09.06.09.13.11c-.2,0-.14,0-.32,0,0,0,0,0-.06,0s0,.08,0,.1l.57.66c.29,0,.48.23.7.16v-.06a2.22,2.22,0,0,0,1-.4A.82.82,0,0,0,96.58,31.87Zm-.11-2.51-.06-.07-.1.09.06.06Zm0,3.12-.06-.08-.08.07.07.07Zm.18-3.82-.09-.06s0,0-.07,0a.06.06,0,0,0,0,.09s.13,0,.16,0A.25.25,0,0,1,96.69,28.66Zm-.09,3.86,0-.05,0,0,0,.05Zm0,.5,0-.06,0,0,0,.06Zm.32-.17-.07-.08-.06.06.06.08Zm2-5.05a.54.54,0,0,0-.18.11.19.19,0,0,1-.18.06,3.15,3.15,0,0,1-.83.76c-.06.08-.1.17-.17.21a.2.2,0,0,1-.14.06.22.22,0,0,1-.06.14.17.17,0,0,1-.17,0l-.38.4a1.14,1.14,0,0,1,.16.15c.09.12.16.26.26.38.36.44,1.15,0,1.49-.28C99.79,29,99.6,28.85,98.94,27.8Zm-1.89,4.36,0,0-.06,0,0,.06Zm1.42-1.34-.07-.08-.07.06.06.08Zm1.21-2.52-.06-.06-.11.07.06.07Zm0,2.34.1-.13,0-.13-.12.06Zm.44-.6-.05-.07,0,0,0,.07Z"/><path class="cls-2" d="M32.45,102.18l-.26-.24c-.38-.31-.77-.6-1.16-.91,0-.08.08-.29.12-.35a.13.13,0,0,1,.13,0c.11.09.3.21.42.07s.14-.31.26-.45a.41.41,0,0,1,.2-.14l.07,0a1.33,1.33,0,0,0,0-.21l.06.06a.49.49,0,0,1,.13-.27,1,1,0,0,1,.25-.22c.16-.21.26-.43.43-.63a2.23,2.23,0,0,1,.22-.21c.28-.39.62-.72.91-1.11h-.08c-.72.54-1.44,1-2.13,1.59-.31,0-.35.38-.68.41A1.72,1.72,0,0,1,31,100a2,2,0,0,1-.29-.18c-.19-.16-.14-.19,0-.35s0-.15.05-.23l.16-.15a1.16,1.16,0,0,0,.23-.44s0,0,0,0,.25-.14.33-.23h0l-.18,0H31.2a2.15,2.15,0,0,1,.1-.27l0,0,0-.14a0,0,0,0,1,0-.06v-.07a.81.81,0,0,0,.14-.12c.23-.28.24-.66.49-.93-.06-.27.09-.31.24-.48s.09-.11.07-.19.1,0,.17-.06l-.1-.1V96L32.24,96l0,0a8,8,0,0,1-.73.9,2.47,2.47,0,0,0-.31.46l0,0a13.65,13.65,0,0,0-1.5,2s.21.25.24.37-.12,0-.14,0,0,.08-.07.12l-.08,0a2,2,0,0,0-.21-.19c-.2-.17-.45-.31-.66-.48a1.31,1.31,0,0,1-.2-.21.24.24,0,0,1,.06-.11c.23-.28.61.06.76-.12a.41.41,0,0,0,.07-.25c.19-.06.27-.25.44-.32A.15.15,0,0,1,30,98a.71.71,0,0,1,.18-.12v0l.06-.07h0l-.06,0a8.27,8.27,0,0,0,.56-.61c.22-.26.45-.53.66-.82l0,0,.12-.15,0,0a2.44,2.44,0,0,0,.16-.23.27.27,0,0,1,.24-.08A8.48,8.48,0,0,1,33,94.3a.32.32,0,0,0,.13-.1.45.45,0,0,0,.09-.39l-.1,0,0-.12-.07,0L33,93.52c.11,0,.19-.15.25-.22s.13,0,.18.07a.4.4,0,0,0,.14.22c.17.14.41.17.58.32a.75.75,0,0,1,.06,1.16,18.54,18.54,0,0,0-1.27,2.52l-.06.07a.54.54,0,0,0-.13.37h0l.1-.12c.23-.12.4-.1.52-.36.46-.13.67-.63,1.06-.87a12.87,12.87,0,0,0,1.28-.91c.09,0,.14-.09.2-.15l0-.09,0,0,.12.1c.24.21.53.34.76.54a1.14,1.14,0,0,1,.31.41l0,.06c-.07.08-.15,0-.21.16l-.11-.09c-.06,0-.21-.13-.31,0a.21.21,0,0,0,0,.14h0s0,.08,0,.1l-.13.09-.1-.1-.06,0a.88.88,0,0,0,.07.23,20.05,20.05,0,0,1-1.6,2c-.43.51-.91,1-1.34,1.48-.14.17-.79.9-.56,1.1a.24.24,0,0,1,.09.17.88.88,0,0,1-.12.15.15.15,0,0,1,0,.11S32.49,102.17,32.45,102.18Zm-3.11-3-.09-.08-.05.06.09.08Zm.38-.55,0-.05-.07.08.05,0Zm.45-.68h-.12l-.1.19Zm.23-.24-.06-.05,0,.06.05,0Zm.54,2h0a.11.11,0,0,1,0-.11l-.14,0,.15.12Zm.14-.5-.06,0-.05.06.06.05Zm.15.27-.06,0-.05.07.05.06Zm.12-.73-.06,0-.05.06.06,0Zm.13.13-.07-.06,0,0,.06,0Zm.08-1.08,0,0-.05,0,.06.05Zm.11.79,0,0-.08.1,0,0Zm.07-.88-.06-.06-.07.06.08.06Zm.09,3.53-.11-.09-.08.1.11.09Zm.1-.48-.08-.06-.06.08.07.06Zm0-2.38-.1-.08H32ZM32,95.76l-.06,0,0,0,0-.06ZM32.09,98,32,98,32,98l.08.07Zm0-2-.07,0,0,0L32,96Zm0,4.88L32,100.8l0,0,.07.06Zm.13-2.16-.08-.07-.06.07.06.07Zm0,3-.06,0-.06.08,0,0Zm.1-6.45-.05,0-.07-.06.05-.06Zm0,2.52,0,0-.07.06,0,.05Zm.29,2.37-.1.07-.23.33c.08-.08.17-.15.25-.24A.48.48,0,0,0,32.63,100.16Zm-.19-4.25-.07-.08,0,0Zm0-.43,0,0-.05.11Zm0,.31,0-.09h0s0,0,0,0a.07.07,0,0,1,0,.1Zm.25,1.61c-.07-.07-.17.08-.25,0s0,0,.05.06.18-.09.24,0S32.74,97.4,32.73,97.4Zm0-1.06,0,0-.05,0,.05.05Zm-.09-.24v0Zm.15,1L32.68,97l-.07.07.07.07Zm.15-2.45-.07-.07,0,.06.07.06Zm.44,5.41a1,1,0,0,0-.32.24,2.32,2.32,0,0,0-.14.23ZM33,94.85l-.06,0-.05.06.05,0ZM33,98.09,33,98l-.08.1.06.05Zm.07-2.31L33,95.71l-.07.08.08.06Zm.12-1.48-.07,0,0,0,.07,0Zm.21,5-.06,0,0,0,.06,0Zm0-5.4s0-.12,0-.14l-.14,0,0,.18Zm.16,1.58-.08-.07-.06.07.08.06Zm.54,1.6-.65.51a.7.7,0,0,1,.33-.17Zm-.5,2.24-.06-.05-.06.07.06,0ZM34,94.25l-.07-.06,0,.06.06.06Zm.11,4L34,98.19l-.09,0,.06.07Zm.18.48-.06,0-.06.07.06,0Zm.18-.47-.07-.06-.06.06.07.06Zm.11-1.08h0Zm.24.31,0-.24-.12-.11Zm.35.34-.06,0-.07.06.08.06Zm.11-1.47-.07,0-.07.06.07.07Zm.23-.15,0,0,0,.13Zm.19.86,0,0-.07.08s.09,0,.12,0Zm.46-1.24-.1-.08-.08.09.09.08Z"/><path class="cls-2" d="M40.53,104.63a1.58,1.58,0,0,0-.31.4c0,.1-.09.23-.15.33-.2.34-.46.65-.64,1a.85.85,0,0,0-.17-.14c-.23-.12-.5-.13-.74-.27s-.67-.34-1-.52c-.79-.45-1.56-.9-2.38-1.29a.29.29,0,0,1,0-.2.37.37,0,0,1,.43-.13v0a2,2,0,0,0,.49,0l0-.06a4.17,4.17,0,0,1,.29-.44,18.75,18.75,0,0,0,.86-1.67l.05,0,.06-.1c.31-.51.52-1.06.79-1.57a12.88,12.88,0,0,0,.86-1.59c.07-.26-.67-.44-.46-.8a.62.62,0,0,1,.18-.18,1.22,1.22,0,0,1,.34.14c.29.18.56.38.85.56a1.51,1.51,0,0,1,.45.31l.1,0a1.28,1.28,0,0,0,.37.29c.28.17.59.28.86.45a1.51,1.51,0,0,1,.43.37.25.25,0,0,1,.17,0c.13.08.23.23.36.32s0,.13-.07.22a.17.17,0,0,0,0,.17.18.18,0,0,0-.12,0c0,.05,0,.16-.07.31s0,.31-.16.44v.14c-.11,0-.14.14-.2.24a.8.8,0,0,1-.15.17l-.1-.05h0l0,.09c-.24-.25-.09-.45,0-.71s.05-.23.13-.36.08-.11,0-.15l-.15-.33h.05a1.34,1.34,0,0,0-.56-.62,2.53,2.53,0,0,0-.44-.21l-.09-.06a4.23,4.23,0,0,1-.48-.23l-.19.16c0,.2-.23.44-.32.62a1,1,0,0,0-.17.49l-.06,0a.16.16,0,0,1,0,.16c0,.08-.13.13-.17.22s-.16.36-.25.53a1.37,1.37,0,0,1-.19.22.32.32,0,0,0,.12.14c.17.11.38.07.54.22.31,0,.37-.29.5-.52a1.42,1.42,0,0,1,.25-.3l.35.21-.12,0h0a.16.16,0,0,1,.07.07l-.39.84,0-.1c0-.07,0,0,0,0l0,0,.07.07c.08.09,0,0,0,.11s0,.06,0,.1a1.07,1.07,0,0,1-.27.16.69.69,0,0,1-.13.5c-.1.18-.24.34-.33.54a.34.34,0,0,1-.32.06c-.35-.21.51-1,.12-1.26l-.61-.32c-.08.14-.19.27-.27.41a.59.59,0,0,0-.12.35l-.1.14,0,0c-.32.56-.6,1.15-.95,1.69a.63.63,0,0,0,.3.34c.27.16.55.25.83.41a1.43,1.43,0,0,0,.56.16c.06-.1.15,0,.24-.05s.4-.2.54-.22.14-.16.19-.25a1,1,0,0,1,.08-.14l-.06-.06c.15-.06.16-.1.23-.24s.19-.21.32-.14a.29.29,0,0,1,.08.29Zm-4.07-.56-.07,0,0,.06,0,0Zm0-.18-.06,0,0,.06.06,0Zm1-1.41-.07,0,0,.07.06,0Zm.5.23-.05,0,0,.07.06,0Zm0-1.34,0,0,0,.07,0,0Zm.12.8-.05,0Zm0-.84,0,0,0,.06,0,0Zm.06.18,0,0,0,.06.07,0Zm.08-.9-.06,0,0,0,.06,0Zm0,.26-.05,0,0,.06,0,0Zm.1-.46s0,0,0,0,.06.11.08.15Zm.08-.15-.07,0,0,0,0,0Zm.32-.3-.07,0h0l.06,0Zm0,.12,0,0,0,.07,0,0Zm0,.66-.06,0,0,.07.07,0Zm.27,4.84-.06,0,0,0,.07,0Zm.08-5.39,0,0,0,.06,0,0Zm.06,5.85-.09-.07,0,.06.1,0Zm0-.35-.05,0,0,.07,0,0Zm0-5.56,0,0,0,.06,0,0Zm0,5.94-.05,0Zm.06-5.66,0,0,0,.07,0,0Zm.05-1-.07,0,0,0,0,0Zm0-1.25,0,0,0,.07,0,0Zm0,.87,0,0,0,.06,0,0Zm0,.25,0,0,0,.07,0,0Zm0-.58-.11-.08h0s0,.06.05.08Zm0,1,0,0,0,0,.06,0Zm0,5.82-.05,0,0,0,.07,0Zm.06-6.74-.06,0,0,.07.06,0Zm0,.42-.06,0,0,0,0,0Zm.12-.48-.05,0,0,0,.05,0Zm0,6.84,0,0,0,.05,0,0Zm0-6.34,0,0,0,.05,0,0Zm0-.45-.06,0,0,.06.05,0Zm.19,6.52-.06,0-.06.11.06,0Zm-.11.1.05-.06Zm.5-.94-.07,0,0,.07.06,0Zm0,.26-.06,0,0,0,.06,0Z"/><path class="cls-2" d="M47.49,107.32a0,0,0,0,1,0,0c-.05,0-.07-.09-.13-.11s-.1.07-.11.11a1.4,1.4,0,0,0,0,.67l-.19.24-.06.29-.37.53-.09,0a1.48,1.48,0,0,0-.2,0c-.13-.05-.27-.16-.41-.21-.42-.14-.92-.11-1.39-.27a4.53,4.53,0,0,1-.6-.26c-.15-.08-.26-.23-.41-.3a.71.71,0,0,1-.25,0s-.08-.07-.14-.09a.57.57,0,0,0-.18,0,.2.2,0,0,0-.09-.05c-.11,0-.23,0-.35,0a.43.43,0,0,1-.16-.09.37.37,0,0,1,0-.18c.06-.17.24-.22.38-.29a1.35,1.35,0,0,0,.46-.11l.09-.23h.06a1.33,1.33,0,0,1,0-.28.31.31,0,0,1,.12-.14.64.64,0,0,1,0-.36l.12-.33a0,0,0,0,1,0,0s.08.17.1.18h0s0,0,0,0,.06-.1.08-.15-.12-.07-.08-.16.24,0,.27,0-.17-.14-.23-.17l0,0c.1-.28.15-.55.24-.83.18-.52.34-1,.52-1.54a5.1,5.1,0,0,1,.3-.73c0-.06,0-.21.06-.3l.07,0c-.09-.24.18-.45-.06-.71l-.06,0c-.11,0-.31-.13-.25-.28s.07-.1.09-.15a.2.2,0,0,0,0-.17,5.89,5.89,0,0,0,.92.32c.48.16.88.28,1.36.45l0,.23c-.12.17-.2.29-.43.21a.57.57,0,0,0-.31,0l0,.15-.13-.06s0,.08-.09.1c-.17.67-.35,1.32-.58,2-.09.29-.2.57-.32.87a.53.53,0,0,0-.11.21c-.06.16-.08.34-.14.51a.5.5,0,0,1-.12.24c-.12.36-.18.74-.31,1.1-.07.21-.18.39-.24.59l0,.11a.82.82,0,0,0,.11.28l.15,0s0,0,0,0,0,0,.06,0a6.51,6.51,0,0,0,.72.31.69.69,0,0,0,.81-.18,3.32,3.32,0,0,0,.57-.83.38.38,0,0,0,0-.16l-.12,0c.06-.13.23-.08.27-.18s0-.24,0-.36a.36.36,0,0,0,.15.08l.38.1a.32.32,0,0,1,.2.16C47.62,107,47.54,107.17,47.49,107.32Zm-3.22-.63-.08,0,0,.1.08,0Zm.34,1.41-.08,0,0,.06.08,0Zm.12-2.88-.07,0,0,.08.07,0Zm0-.59-.09,0,0,.08.08,0Zm0,3.6-.1,0,0,.08.1,0Zm.31-5-.07,0,0,.09.07,0Zm.07,1-.08,0,0,.07.08,0Zm0-2.64.1-.35-.07,0,0,.09Zm.2.61-.07,0,0,.09.07,0Zm1.2,5.63-.09,0-.24.25.31-.16Zm.25-6.34-.08,0,0,.06.1,0Z"/><path class="cls-2" d="M54.6,109.76l0-.11.09.08c-.53.8-1.47.77-2.32.76,0-.06-.07-.08-.12-.09a1.38,1.38,0,0,0-.29,0,10.64,10.64,0,0,0-1.09-.24c-.39-.07-.76-.14-1.16-.18a.4.4,0,0,1,0-.22.35.35,0,0,1,0-.12l.11,0a.26.26,0,0,1,.27-.13l0,0c.3-.09.42-.5.48-.77s.05-.6.11-.9a1.72,1.72,0,0,1,.1-.39.81.81,0,0,1,0-.41c0-.13.07-.28.1-.43s0-.26,0-.39a4.84,4.84,0,0,1,.14-.51.6.6,0,0,0,0-.35,5.54,5.54,0,0,0,.23-.89,9,9,0,0,0,.13-1.25c-.14-.14-.43-.13-.61-.26l0-.08a.27.27,0,0,1-.06-.19.1.1,0,0,1,.07-.08v-.08a3.6,3.6,0,0,1,.66.06c.34.07.68.16,1,.22A4.13,4.13,0,0,0,53,103s0,0,.07.05.24,0,.35,0a.26.26,0,0,1,.14.06l.07-.1c.43.44,1,.26,1.38.76a3.44,3.44,0,0,0,.44.79l-.12,0c0,.09.15.17.13.27a.15.15,0,0,1-.09.1c0,.1.11.17.17.21l-.14,0a2,2,0,0,1-.91,1.47v.18l-.09,0h0l0,0,0,.06.23,0-.12.08a1.69,1.69,0,0,1,.56,1.65c0,.08-.07.42-.08.49A.66.66,0,0,1,54.6,109.76Zm-3.15-.05h-.09l0,.12.09,0Zm.26-4.1h-.1a.1.1,0,0,0,0,.07.05.05,0,0,0,0,.07s.11-.06.14-.08A.3.3,0,0,1,51.71,105.61Zm2,2.51a.51.51,0,0,0,.06-.2c.08-.38-.21-.66-.46-.92a2.73,2.73,0,0,0-.56-.15l-.5-.08a.45.45,0,0,1,0,.2v.1a.15.15,0,0,0-.08.12c0,.09,0,.18,0,.27a.2.2,0,0,1-.06.11,2.2,2.2,0,0,0,0,.57l-.09,0a1.47,1.47,0,0,0-.06.14c0,.06.1.08.14.09l-.17.11a.21.21,0,0,1,0,.2c0,.13-.12.21-.14.33a.19.19,0,0,0,0,.13l0,.15s0,.11,0,.11a.22.22,0,0,0,.16,0c-.15.13-.08.11-.24.2a.11.11,0,0,0,0,.06.47.47,0,0,0,.05.1l.86.13c.18-.23.52-.13.64-.33l0-.06a2.18,2.18,0,0,0,.48-.93A.77.77,0,0,0,53.71,108.12ZM52,106.29l-.09,0,0,.13H52Zm.86-2.79a.6.6,0,0,0-.06.19.19.19,0,0,1-.1.17,3,3,0,0,1-.14,1.12.62.62,0,0,1,0,.27.19.19,0,0,0,0,.28.17.17,0,0,1-.11.12l0,.56a.55.55,0,0,1,.22,0c.15,0,.29.08.44.11.56.1.87-.74,1-1.18C54.27,103.83,54.05,103.86,52.86,103.5Zm.89-.1h-.08l0,.12h.09Zm.3,5.23-.1,0v.1l.1,0Zm.1,0h-.07v.07h.07Zm.1-.56h-.06l0,.06h.07Zm.21-2h-.1l0,.1h.11Zm0,2.87h-.08V109h.08Zm.13-.34-.1,0v.09l.1,0Zm.64-3.45V105l-.12,0,0,.11Zm-.05-.74h-.09v.06h.09Z"/><path class="cls-2" d="M62.87,108.25s0,.06,0,.09c-.17.44-.26.87-.47,1.3a2.26,2.26,0,0,1-1.86,1.52,2.4,2.4,0,0,1-1.88-1c0-.37-.44-.64-.38-1a.8.8,0,0,1-.12-.6,13.2,13.2,0,0,1-.18-1.54,2.42,2.42,0,0,1,.16-.79c0-.05,0-.09,0-.12,0-.23.19-.34.16-.61.35-.85.88-1.82,1.94-1.82a.39.39,0,0,1,.14,0c.16,0,.3.06.47.06a2.09,2.09,0,0,1,1.61,1.27l0,0c.33.21.26.61.37.93a4,4,0,0,1,.14,1.28c0,.2,0,.4,0,.6l-.08.05v-.1a.26.26,0,0,1,.1.22C63,108,62.87,108.15,62.87,108.25Zm-4.43.37-.14-.54,0,.51,0,.11Zm.07.2v-.08h-.09v.11Zm0-1.33v-.13h-.09v.13Zm.18-2.12v-.12h-.07v.13Zm0,.79V106h-.09v.13Zm.12,1.79,0-.19h-.06v.08Zm.07,1.13V109h-.07v.07Zm.21.89v-.11H59V110Zm.22-3.62-.07-.47-.08.11.1.2Zm1.7-2a1.24,1.24,0,0,0-.6-.26,1.07,1.07,0,0,0-.72.49c-.08.16,0,.35-.16.51l.05.07c-.13.06,0,.19-.14.25s0,.2-.12.2-.1.05-.1,0l0,.12s.13,0,.12,0,0,.19,0,.27a.28.28,0,0,0,.06.18,16.12,16.12,0,0,0-.15,1.83c0,.7.18,2.68,1.13,2.67a.27.27,0,0,0,.18-.05c.94-.42.87-1.59,1-2.46a15,15,0,0,0,0-1.51A4,4,0,0,0,61.06,104.31Zm1.23.45v-.09H62.2v.09Zm.06.1h-.09V105l.05.08Zm.14,3.93h0s0,0,0,0c0,.17,0,.27-.09.41v-.17a.14.14,0,0,1-.1,0,.28.28,0,0,1,.21-.21Z"/><path class="cls-2" d="M70.24,103.23c-.29.06-.36.25-.4.51L70,104s-.09.09-.07.08l0,0,0-.08a1.21,1.21,0,0,1,.11.37,1.47,1.47,0,0,1,0,.47.29.29,0,0,1,.11.2c0,.24,0,.58.09.83.1.69.21,1.39.31,2.06h-.06a2.15,2.15,0,0,1-.54,2.18,2.27,2.27,0,0,1-1,.35,6.28,6.28,0,0,1-1.23,0c-.07-.22-.48,0-.41-.42l-.13-.11-.09.11c-.43-.18-.38-.56-.63-.86a.24.24,0,0,0,.08-.19c0-.14-.12-.25-.14-.4h.05a1.34,1.34,0,0,0,0-.2c0-.29-.2-.55-.24-.84a.86.86,0,0,1,0-.42.9.9,0,0,1-.12-.36c0-.19,0-.39,0-.57a.91.91,0,0,0-.16-.38l.09-.11-.25-1.62-.26-.08a.32.32,0,0,1,.24-.14c0-.08-.23,0-.31,0s-.11,0-.15,0h-.12v0c0-.06-.15-.08-.16-.18a.66.66,0,0,1,0-.14l.13-.14,2.43-.35a.23.23,0,0,1,.17.18.75.75,0,0,1,0,.21c-.39.47-.93-.2-.71,1.23a1.08,1.08,0,0,0,.28.6.25.25,0,0,0-.15.31,6.66,6.66,0,0,1,.19.77.48.48,0,0,1,.08.23c0,.16,0,.31,0,.47,0,.32.15.6.2.91a.85.85,0,0,1,0,.52.37.37,0,0,1,.2.27.82.82,0,0,1,0,.35l0,.09,0,.06h0l0,.08a1.21,1.21,0,0,0,1.08.6c.57-.09.9-.21,1.13-.74a.08.08,0,0,1,0-.07c0-.2.08-.41,0-.61s-.08-.15-.09-.24.06-.32,0-.48a.34.34,0,0,0-.13-.2l.09-.13h0a.33.33,0,0,1-.17,0c.09-.12.07-.12,0-.24v-.14h0a5.48,5.48,0,0,0,0-.7c-.06-.43-.23-.92-.33-1.34l.08-.06h0a1.27,1.27,0,0,1-.08-.44c0-.11-.08-.19-.09-.3s0-.32,0-.49a.43.43,0,0,0-.23-.36l-.16,0a.13.13,0,0,1-.17-.07.18.18,0,0,1-.1-.14.52.52,0,0,1,.09-.32,4.71,4.71,0,0,0,.82-.1c.15,0,.78-.18.85.09C70.36,103,70.25,103.11,70.24,103.23Zm-3.85,1.86h-.07v.05h.07Zm.07,1.32h0v0h0Zm.16-.07h-.06v.07h.08Zm.15.35h-.08v0h.07Zm.06-.45h-.07v0h.07Zm0-.31h-.06V106h0Zm.08-.25h-.07v.07h.07Zm.06,2.58h-.08v0H67Zm0,1.33h0v.05h0Zm0-2.78h0v.05H67Zm.17,2.7h-.08v.08h.08Zm.13.35h-.07v0h.06Zm.07-.44h-.08v0h.08Zm0-.31h0v.07h.05Zm.09-.26h-.07v0h.08ZM67.6,110h0v0h0Zm1.51-6.77H69v.06h.07Zm.43.86h-.05v.06h0Zm0-.21v0Zm.31-.94h-.06v0h.07Zm.07,4.15-.07.16v.08h.06Z"/><path class="cls-2" d="M79.4,107.72a1.29,1.29,0,0,1-.51.14c-.22-.09-.22,0-.46-.14a1.5,1.5,0,0,1-.44-.07v-.19l-.23,0c-.33-.51-.37-.36-.51-.93a1.56,1.56,0,0,0-.45-.86c-.05-.07,0-.14,0-.21h-.14a.62.62,0,0,0,0-.27.11.11,0,0,0-.15-.07l0,.12c-.13-.08-.06-.14-.23-.08s-.16-.08-.24-.06l0,.05h0a.33.33,0,0,1-.1.06c-.13,0-.23,0-.31,0a1,1,0,0,1-.26.22l.08.24c.18.5.31,1,.48,1.54a5.79,5.79,0,0,0,.47,1.09.77.77,0,0,0,.27-.07c.24-.08.34,0,.41.27a6.27,6.27,0,0,1-.58.29l-1.74.54a.34.34,0,0,1-.13-.16.63.63,0,0,1,0-.24,1.28,1.28,0,0,1,.39,0v-.08s-.05,0-.09,0,.27-.25.2-.46-.12-.2-.16-.32a.23.23,0,0,1,0-.21c-.13-.31-.29-.63-.4-1a2.31,2.31,0,0,1-.12-.52,3.86,3.86,0,0,1-.35-1,2.42,2.42,0,0,0-.29-.58l0,0,0-.21a.87.87,0,0,0-.15-.24l.06,0,0-.12c-.1-.29-.15-.6-.25-.89a1.61,1.61,0,0,0-.38-.69c-.48,0-.51.26-.79-.33a1.41,1.41,0,0,1,.32-.17c.13,0,.27,0,.39-.08l.07-.06.31-.07,0,0c.3-.11.64,0,1-.13s.63-.39,1-.51a8,8,0,0,0,.85-.1v0a.52.52,0,0,0,.1.11l.05.1.13-.05a1.69,1.69,0,0,1,1,1.08c.11.33.34,1.12.07,1.4l-.12,0a.36.36,0,0,1,0,.23c0,.23-.28.37-.44.51,0,0,0,0,0,0a.94.94,0,0,1,.43.1s.13,0,.18,0,0,.09,0,.1a.48.48,0,0,0,.27.09c.16.12.23.38.45.46a1.54,1.54,0,0,1,.05.17s-.07.12-.05.15.16,0,.19.06.07.23.12.35a1.28,1.28,0,0,1,0,.27c.22.26.24.62.43.9s.53.25.56.35A.38.38,0,0,1,79.4,107.72Zm-6-5.08-.14-.19a.78.78,0,0,0,0,.14l0,.07Zm.27.16c0-.12-.21-.16-.33-.2,0,0,.18.22.25.19h0v0s.06,0,.09,0Zm-.15.2-.08,0,0,.12.08,0Zm.38-.2-.09,0,0,.12.09,0Zm1-.88c-.19.07-.3.17-.49.24a1.5,1.5,0,0,1-.42,0,2.37,2.37,0,0,1,.47.92c.17.5.27,1,.45,1.53l0,.14.86-.28c.09-.13.11,0,.12-.25l.08.08a2.32,2.32,0,0,0,.22-.41l0,0a2.45,2.45,0,0,0-.09-1C76,102.44,75.52,101.74,75,101.92Zm-.35,2.65-.06,0,0,.12.06,0Zm.06.76-.12,0,0,.12.13,0Zm.74,1.81-.11,0,0,.11.12,0Zm.2,1.3-.13,0,0,.12.12,0Zm.69-7-.14,0,0,.12.13,0Zm0,7-.11,0,0,.12.12,0Zm.12-5.31v.06l0,.08-.06,0a1.1,1.1,0,0,1,0,.51c0-.08.16-.07.14-.14l-.08-.11v-.09c.13,0,0-.11,0-.2S76.43,103.16,76.42,103.13Zm2.19,4.27-.12,0,0,.12.12,0Z"/><path class="cls-2" d="M82.82,98a2.69,2.69,0,0,0,.4,1.13.55.55,0,0,1,.18.24.43.43,0,0,0,.23.23.69.69,0,0,0,.07.35,8.74,8.74,0,0,0,.51.78l.22.37,0,0,0,0,.13.05c.51.93,1,1.89,1.53,2.83l.06.07a.2.2,0,0,1-.11.25c-.29.15-.54-.47-.89-.45a.55.55,0,0,0-.28-.26l0,0s.06,0,.06-.09h-.11v-.08a.33.33,0,0,1-.37-.2c-.08-.14-.44-.12-.6-.29,0,0,0,0,0,0s-.09-.09-.13-.1a.08.08,0,0,1,0-.1,4.27,4.27,0,0,1-1-.47l.06,0a.1.1,0,0,0,0-.07c-.26.06-.49-.34-.86-.27,0,0,0-.05,0-.06s.06,0,0-.07c-.43-.23-.9-.59-1.35-.78a6.67,6.67,0,0,0,.33.92c.1.21.32.34.43.54s0,.22.07.3.09.08.12.13a.14.14,0,0,1,0,.15c.13,0,.19.15.24.25a.34.34,0,0,0,.14.18l.39.89s.08,0,.09,0,0,.1,0,.15c.18.22.39.65.69.7v-.06c.21.06.45-.07.57.14a.41.41,0,0,0,0,.08c0,.26-.31.15-.51.24a.94.94,0,0,0-.12.09,2.19,2.19,0,0,1-.55.32,1,1,0,0,0-.32.26l-.1-.17c-.14-.29.36-.25.22-.83-.65-.92-.92-2.08-1.63-2.93l0-.13a1.33,1.33,0,0,1-.38-.53c-.08-.16-.24-.38-.34-.58a1.4,1.4,0,0,0-.3-.42.38.38,0,0,0,0-.21c-.11-.19-.36-.2-.44-.48-.25-.11-.51.19-.64-.07a1,1,0,0,1,0-.16.62.62,0,0,0,.23-.07c.25-.13.45-.32.7-.45a.52.52,0,0,1,.65.07l.07,0c.08.13.3.11.42.22l0,.06c.35,0,.58.35.9.46v0c.08.14.31.12.34.19s0,.06,0,.09a.13.13,0,0,0,.13,0c.18.2.57.27.7.5.32,0,.4.49.7.46s.41.32.67.38c.06.06.12.21.22.16s0-.11,0-.13c-.19-.1-.46-.84-.65-.9,0,0,0-.22,0-.26l0,0c-.07,0-.13-.07-.17-.13s-.1-.28-.16-.41a.35.35,0,0,0-.11-.13.76.76,0,0,0-.08-.21c-.18-.37-.51-.62-.69-1a1,1,0,0,1-.08-.23c-.16-.2-.64.19-.79-.14l0,0a.32.32,0,0,1,.16-.27c.12-.06.26-.05.39-.11a.48.48,0,0,0,.11-.09l.83-.43a.21.21,0,0,1,.1.11C83.13,97.74,82.82,97.86,82.82,98Zm-3,1.39-.07,0,0,.07.07,0Zm.1.77-.06,0,0,.06.07,0Zm.07.33-.09,0,0,.08.07,0Zm.13.25-.09,0,0,.09.09,0Zm.07-.08-.07,0,0,.06.06,0Zm.25-.24c0-.1,0-.19-.1-.12l-.09,0-.09,0Zm.23.31-.06,0,0,.06.06,0ZM82,104.63H82l0,.06.05,0Zm.17,1.57,0,0,0,0,0,0Zm.27-4.28,0,0,0,0,0,0Zm.4.13-.06,0,0,0,.07,0Zm.33.51-.21-.19-.07,0,.12.1Zm.38,3-.07,0,0,.06.06,0Zm.94-2.62-.05,0,0,.06.06,0Zm1.29,1.31-.06,0,0,.06,0,0Z"/><path class="cls-2" d="M91.66,97.47a1.33,1.33,0,0,0,.26.42c.07.09.18.18.25.27.25.31.44.66.7,1a.93.93,0,0,0-.19.11c-.2.17-.31.42-.53.59s-.56.5-.84.73c-.7.57-1.41,1.13-2.07,1.74a.28.28,0,0,1-.17-.1.36.36,0,0,1,0-.45l0,0a2.34,2.34,0,0,0,.19-.46l0,0a3.25,3.25,0,0,1-.31-.42,18.39,18.39,0,0,0-1.24-1.41l0,0-.07-.09c-.37-.47-.8-.87-1.18-1.31a12,12,0,0,0-1.17-1.38c-.22-.16-.65.46-.91.13a.46.46,0,0,1-.11-.22,1.33,1.33,0,0,1,.26-.27c.27-.21.56-.38.83-.59a1.8,1.8,0,0,1,.45-.31v-.1a1.52,1.52,0,0,0,.41-.24c.26-.2.47-.45.73-.64a1.72,1.72,0,0,1,.5-.27c0-.06,0-.09.1-.13s.3-.14.43-.23.12.07.18.15a.18.18,0,0,0,.16.06s0,.08,0,.12.16,0,.26.18.28.17.36.31l.13,0c0,.11.08.18.15.27a.84.84,0,0,1,.11.21l-.09.07h0l.07.08c-.32.13-.46-.09-.65-.28s-.21-.13-.3-.26-.07-.1-.12-.1l-.36,0v0a1.33,1.33,0,0,0-.78.3,2.31,2.31,0,0,0-.36.34l-.09,0a2.65,2.65,0,0,1-.38.37c0,.09.06.15.08.24.18.07.32.37.45.52a1,1,0,0,0,.4.34l0,0a.17.17,0,0,1,.14.07c.06.07.08.17.14.25a5.44,5.44,0,0,0,.41.42,1.58,1.58,0,0,1,.13.26.22.22,0,0,0,.17-.07c.17-.12.21-.32.41-.42.06-.3-.14-.44-.31-.65a1.83,1.83,0,0,1-.18-.34l.32-.25,0,.13h0a.24.24,0,0,1,.1-.05l.64.67h-.11c-.07,0,0,0-.06,0l0,.06.08,0c.11,0,0,0,.1,0s.06,0,.1,0a1.06,1.06,0,0,1,0,.31.69.69,0,0,1,.42.31,4.3,4.3,0,0,0,.38.49.35.35,0,0,1-.06.33c-.33.24-.76-.85-1.14-.57l-.52.45c.11.13.19.28.29.4a.78.78,0,0,0,.29.25l.09.13,0,0c.41.51.85,1,1.24,1.5a.64.64,0,0,0,.42-.15c.25-.19.43-.43.69-.62a1.41,1.41,0,0,0,.34-.47c-.07-.09,0-.16,0-.24s0-.45,0-.58a2.34,2.34,0,0,0-.15-.27l-.11-.13-.07,0a.39.39,0,0,0-.14-.3c-.07-.08-.13-.25,0-.34a.27.27,0,0,1,.3,0Zm-6.42-1.3,0,0,0,.05,0,0Zm.52.13-.1.07h0s.06,0,.09,0Zm.14-.19,0,0,0,0,0,0Zm0,.13,0,0,0,.06,0,0ZM86,96l0,0,0,.06,0,0Zm.07.46-.05,0,0,0,0,0Zm.26,0-.06,0,.05.06,0,0Zm0-.16,0,0,0,0,0,0Zm.1.26-.06,0,0,0,.06,0Zm0-.42,0,0,0,0,0,0Zm.3,1.14-.05,0h0l.06-.05Zm0-.7,0,0,0,.06,0,0Zm.07.72-.06,0,.05.06,0,0Zm0,.39,0,0,0,0,0,0Zm.11.13s0,0,0,0,.11,0,.16,0ZM87,97l0,0,0,0,0,0Zm0,.06,0,0,0,.06,0,0Zm.07,1,0,0,0,0,.07,0Zm.18-1,0,0,0,0,0,0Zm.06,1.13-.06,0,0,0,0,0Zm.07-.56-.07,0,.05.06.06,0Zm.29,1,0,0,0,.06,0,0Zm0-.17,0,0,0,.05,0,0Zm.19,0,0,0,0,.07.06,0Zm.57.33,0,0Zm0,.74-.06,0,0,.06,0,0Zm.41-.38,0,0,0,.06,0,0Zm.54,1.82,0,0,0,0,.06,0Zm.18.07-.06,0,.05.06,0,0Zm1.82-3.48-.06.05,0,0,.06,0Zm.23.1,0,0,0,.05,0,0ZM92,99.12l-.06,0,0,0,.06,0Zm.09-.88-.05,0,.08.1,0,0Zm0,.51,0,0,0,0,.06,0Zm0-.37,0-.07Zm0,.67,0,0,0,0,0,0Zm.11-.5,0,0,0,0,0,0Zm.23.61-.1.06,0,0,.09-.08Zm0,0-.05,0Z"/><path class="cls-2" d="M15.18,53.4h1.64a1,1,0,0,1,.69.21.67.67,0,0,1,.22.52,1,1,0,0,1-.2.7.65.65,0,0,1-.51.22,3.45,3.45,0,0,1-.83.11,2.09,2.09,0,0,1-.7-.11.65.65,0,0,0-.37.09,1.7,1.7,0,0,0-.24.22,1.1,1.1,0,0,0-.34.23.53.53,0,0,0-.1.36v2.27a.83.83,0,0,0,.28.62.81.81,0,0,0,.6.28l.47,0a.86.86,0,0,0,.43-.15.77.77,0,0,1,.45.16.63.63,0,0,0,.35.16.13.13,0,0,1,.11.07.2.2,0,0,1,0,.07,2.14,2.14,0,0,1,.17.54.49.49,0,0,1-.17.49.72.72,0,0,1-.23.35.37.37,0,0,1-.23.12H15.32a1.22,1.22,0,0,0-.49.11.37.37,0,0,0-.26.35,3.28,3.28,0,0,0-.11.59,5.15,5.15,0,0,0,0,.58v.92a3.39,3.39,0,0,0,0,.45,1.6,1.6,0,0,0,.11.47.72.72,0,0,0,.48.45,1,1,0,0,0,.73,0c.22,0,.45,0,.67,0a1.92,1.92,0,0,1,.69.16c.31,0,.46.14.46.41a.69.69,0,0,1,.12.32c0,.12,0,.22,0,.32a.64.64,0,0,1-.58.59c-.6.07-1.2.12-1.79.13l-1.68,0c-.59,0-.88-.31-.88-.92V63.61a.68.68,0,0,0,.06-.45,2.71,2.71,0,0,1-.06-.62V61.22a.79.79,0,0,0,.07-.47A.71.71,0,0,1,13,60.3a1.93,1.93,0,0,1-.13-.56c0-.17,0-.37,0-.62v-.59a3.83,3.83,0,0,0,.06-1.05,7.34,7.34,0,0,1-.06-.92v-2a.49.49,0,0,0,.13-.31c0-.14,0-.24,0-.32a.51.51,0,0,1,.19-.46.74.74,0,0,1,.39-.12Zm-1.79,5.87-.13.14Zm-.13-4.07c.06.08.1.11.13.06s.07-.06.15-.06l-.08,0c-.05,0-.07.07-.07.14h.15V55.2Zm0,.92v0ZM13.68,62h-.14l-.15-.11-.13.12h.13l.09,0a.63.63,0,0,1,.2.13Zm0-5.7a.22.22,0,0,0,.08-.09c0-.06,0-.13-.08-.21a.42.42,0,0,1,0,.15.31.31,0,0,1-.13,0h-.15c-.06,0-.08,0-.06.07s0,.05.06.06v0l.15.18h.14Zm-.15,1.21h.15a.1.1,0,0,0,0-.07.15.15,0,0,0-.13-.09v0a.15.15,0,0,1,.13.09.1.1,0,0,1,0,.07Zm-.14.44h0Zm.15-3.29a.24.24,0,0,0-.13,0,.32.32,0,0,0,0,.15v-.17Zm-.15,2.25h0V57h.15v-.16h-.15v0Zm0,3.16v.15h.15a.16.16,0,0,0-.15-.15Zm.15,1.35h-.15v.14c.07,0,.12,0,.13,0A.22.22,0,0,0,13.54,61.37Zm-.15,2.24v0Zm.29-9.48-.15.17a.13.13,0,0,0,.13-.08S13.68,54.17,13.68,54.13Zm0,.33v0Zm0,.59v0Zm0,10.35a.12.12,0,0,0,0,.07s.08,0,.16-.07h0v-.13h-.19ZM14,58.53l-.08,0a.16.16,0,0,0-.05.13.16.16,0,0,1,.05-.13l.08,0a.2.2,0,0,1-.11,0s0-.06,0-.14h-.19a.3.3,0,0,0,0,.14.41.41,0,0,0,.17,0Zm-.13,1.64h-.19a.2.2,0,0,0,0,.11.41.41,0,0,0,.17,0Zm-.19,2.7h.19v-.16a.17.17,0,0,0-.17.09A.25.25,0,0,0,13.68,62.87Zm.16.54a.12.12,0,0,0,0-.08.13.13,0,0,0,.06-.07q0-.09-.06-.09l-.18.16v.13C13.77,63.46,13.82,63.45,13.84,63.41ZM14,55.05h0Zm-.13,3v.15a.19.19,0,0,0,0,.07.12.12,0,0,0,.11.08v-.15a.24.24,0,0,0,0-.13A.2.2,0,0,0,13.86,58.07Zm0-3.29.13.12v-.12Zm.27,10.34V65H14a.11.11,0,0,0,.07.11ZM14,54v0c0,.08,0,.12,0,.13s.05,0,.13,0c-.08,0-.1,0-.08-.07S14.06,54,14,54Zm.14,6.61v.17h0Zm.16-.29v0Zm.15,5.41,0-.06a.13.13,0,0,0-.13-.07l.15.13s0,.05-.06.07,0,.08.06.08Zm.14-6.11c0,.06,0,.1,0,.11a.24.24,0,0,0,.13,0V60h-.15c0-.07,0-.11,0-.11s-.06,0-.12.11h.29a.15.15,0,0,0,.06-.09.2.2,0,0,0-.06-.2.24.24,0,0,1-.13,0S14.58,59.66,14.58,59.6Zm-.14,5.67v0Zm.29-11.14c-.06.07-.08.12-.05.15l.05,0v-.17Zm.16,11.45L15,65.4h-.14c0-.07,0-.1-.08-.1s-.08,0-.08.1a.38.38,0,0,0,0,.16A.3.3,0,0,0,14.89,65.58Zm.14-6h-.15l.15.13Zm0-5.47h.14c-.07,0-.12,0-.14,0A.46.46,0,0,1,14.9,54a.62.62,0,0,0,0,.2S15,54.22,15.05,54.13Zm.13,12.19.14-.13.17-.15v0a.45.45,0,0,0,0-.17h-.15V66s0,0,0,.06-.06,0-.12-.06H15v0a.18.18,0,0,1,.15.07.14.14,0,0,0,.14.08Zm.14-.61h0Zm.32-11.1v-.15l-.15.15Zm.14-.63a.06.06,0,0,0,0,0,.11.11,0,0,0-.12-.07V54Zm.31,5.89v0Zm0-6V54h.13v-.12Zm.43,11.54h.14c0-.07,0-.1,0-.11s-.06,0-.13,0v.13h0Zm0-11.27a.2.2,0,0,0,.07.06c.05,0,.07,0,.07-.06Zm.12,11.73h0v0Z"/><path class="cls-2" d="M21.16,56.69a1.06,1.06,0,0,0,.1.46l.21.46a2.25,2.25,0,0,0,.23.38,2,2,0,0,1,.23.36l.21.31a3.13,3.13,0,0,0,.23.31,1.64,1.64,0,0,1,.51.45q.15.26.39.6a1.54,1.54,0,0,1,.39.3,1.42,1.42,0,0,0,.37.31,5.69,5.69,0,0,1,.37.82c.08.25.16.52.24.82a2.58,2.58,0,0,1,.2,1.13c0,.36,0,.69,0,1a2.41,2.41,0,0,1-.21,1,2.81,2.81,0,0,1-.56.8,1,1,0,0,1-.53.26,1.82,1.82,0,0,0-.54.19h-.44a.3.3,0,0,1-.46,0h-.59a.49.49,0,0,0-.15-.15l-.16,0h-.28a2,2,0,0,1-.94-1,2.72,2.72,0,0,0-.25-.47.66.66,0,0,1,0-.6.35.35,0,0,1-.15-.21,1.52,1.52,0,0,1,0-.23,1.53,1.53,0,0,0-.05-.3.3.3,0,0,1,.05-.31h.15a.23.23,0,0,0,0-.11q0-.24.15-.3a1,1,0,0,0,.29-.16h.43a.66.66,0,0,1,.34.13.57.57,0,0,1,.11.22.44.44,0,0,1,0,.1,1.53,1.53,0,0,0,.16.67,1.63,1.63,0,0,1,.15.67v.15a3.47,3.47,0,0,1,.45.26.42.42,0,0,0,.45.05h.3a2.72,2.72,0,0,1,.24-.24l.2-.22a1.42,1.42,0,0,0,.22-.28.92.92,0,0,0,.09-.48c-.07-.38-.16-.75-.26-1.12a3.06,3.06,0,0,0-.49-1,1.37,1.37,0,0,0-.24-.29L22,61.16a2.72,2.72,0,0,1-.24-.24.75.75,0,0,1-.16-.29.38.38,0,0,1-.34-.18.52.52,0,0,1-.12-.26.64.64,0,0,1-.26-.26l-.18-.37A1.5,1.5,0,0,1,20.2,59q-.16-.32-.39-.66a1.47,1.47,0,0,1-.13-.51c0-.2,0-.38,0-.54s0-.31,0-.47a2,2,0,0,0-.15-.6v-.15a1.33,1.33,0,0,0,.17-.52,1.46,1.46,0,0,1,.14-.51,1,1,0,0,1,.19-.6c.12-.16.26-.32.4-.48a2,2,0,0,1,.79-.46,2.87,2.87,0,0,1,.87-.13h.46a.31.31,0,0,0,0,.13h.14a1.06,1.06,0,0,1,.66,0,1.28,1.28,0,0,1,.56.33,3,3,0,0,1,.53.69,1.54,1.54,0,0,1,.21.8.5.5,0,0,1,.14.31,1.84,1.84,0,0,1,0,.31v.45a.33.33,0,0,1-.1.22l-.21.24a.66.66,0,0,1-.45,0,1.64,1.64,0,0,0-.45,0,.14.14,0,0,1-.15-.08.2.2,0,0,1,0-.09l-.18-.38a.39.39,0,0,1,0-.36v-.16a3.43,3.43,0,0,1-.24-.31,1.12,1.12,0,0,0-.35-.3s0-.07-.09-.11l-.07,0a1,1,0,0,1-.34,0q-.12,0-.12-.27s0,0-.06,0,0,.06.06.13a.47.47,0,0,1,0,.16.49.49,0,0,1-.11.13,1.22,1.22,0,0,0-.6.56.89.89,0,0,0,0,.66v.14a.13.13,0,0,1-.09.13Zm-.9-.74v-.16a.15.15,0,0,1,.09-.15.71.71,0,0,0,.22-.15c.07,0,.11,0,.13.06s0,0,0-.06l-.15-.16c-.08.07-.12.09-.15.05a.08.08,0,0,1,0-.05c-.07,0-.11,0-.13-.06s0,0,0,.06h.14v.16l-.13.15a.53.53,0,0,0,0,.15h-.15a.16.16,0,0,0,.07.15Zm-.15.45h0Zm.15,8.3h0Zm0-8.47v0Zm.31,8.32H20.4v.15a.23.23,0,0,1,.17,0s.07,0,.15,0a.13.13,0,0,1-.13-.08A.1.1,0,0,1,20.57,64.55Zm0-10.12c.05,0,.09,0,.13.09a.19.19,0,0,1,0,.07v-.16Zm0,9.68v0Zm.31-5.6h-.16c.06.08.11.09.14.06A.08.08,0,0,0,20.88,58.51Zm0-4.08h0v0ZM21,59.1v0h0Zm0-3.92h.15v-.13H21Zm0,3.48v0Zm.22-.41c.06,0,.09,0,.09,0h-.16Zm.06.83L21.16,59v.13C21.24,59.1,21.29,59.1,21.29,59.08Zm.18-4.65h.15v-.32a.13.13,0,0,0-.13.09.24.24,0,0,0,0,.08Zm.15,4.23h-.15c0,.07,0,.11.07.11S21.62,58.73,21.62,58.66Zm0,1.05v-.15a.13.13,0,0,0-.13.08.14.14,0,0,0,0,.07ZM22.06,54v-.13h0V54h-.28c.06.06.11.08.13.05a.08.08,0,0,0,0-.05Zm-.28.31h0Zm.44,5.13c0-.06,0-.08-.09,0l-.07,0a.15.15,0,0,0-.07-.14.1.1,0,0,0-.06,0h-.15a.16.16,0,0,0,.08.15h.36Zm-.29.46v-.16c-.07,0-.11,0-.11.08S21.86,59.87,21.93,59.87Zm.59.76h-.15v-.17h0v-.14a.33.33,0,0,0,.06-.1.21.21,0,0,0-.06-.2v-.15h0V60l-.15.17v.13h.15c0,.07,0,.12,0,.14a.72.72,0,0,1-.13.17h.3ZM22.37,54v.14l.15-.14Zm.15.14h.16l.15-.14h-.15v.14h-.16l.05.09s0,.08-.05.08h0Zm.31,11.34h-.15v.15h.15Zm0-5.13v0Zm.3.46-.17.14.07,0a.17.17,0,0,1,.1.15L23,60.92H23A.13.13,0,0,0,23.13,60.78Zm.14-6.35-.14-.15v0a.1.1,0,0,1,.07,0C23.25,54.32,23.27,54.36,23.27,54.43Zm0,6.49h0Zm.15,1.22v.13c.06-.05.08-.09.06-.11S23.45,62.14,23.42,62.14Zm.22-7.84s-.05.05-.05.13v-.15C23.66,54.28,23.68,54.28,23.64,54.3Zm.09,6.92h-.14v.15h.14Zm0-6.79v0Zm0,1.8.08.05c.06,0,.09,0,.09-.05Zm.15,6.33a.24.24,0,0,0,0-.13h-.17v.15A.32.32,0,0,0,23.88,62.56Zm0,.77H24a.23.23,0,0,0,0-.11H23.9ZM24,55.64v0Zm.15,7.11c-.08,0-.12,0-.13-.07s0,0,0,.07Zm.16-6.8a.15.15,0,0,0-.09-.14.11.11,0,0,0-.07,0h.16Zm-.16,7.53a.22.22,0,0,0,0,.09.16.16,0,0,0,.15.08v-.17Z"/><path class="cls-2" d="M27.42,53.38a.75.75,0,0,0,.44.07.75.75,0,0,1,.44.07.4.4,0,0,0,.24-.07.37.37,0,0,1,.23-.07.64.64,0,0,1,.34.07.51.51,0,0,0,.26.07.88.88,0,0,0,.3-.07.88.88,0,0,1,.31-.07,1.41,1.41,0,0,1,.45.07,1.31,1.31,0,0,0,.44.07.71.71,0,0,0,.22.15.18.18,0,0,1,.08.17.39.39,0,0,1,.15.24,2.93,2.93,0,0,1,0,.36,1.79,1.79,0,0,1,0,.23.45.45,0,0,1-.15.22,1.14,1.14,0,0,1-.23.2.7.7,0,0,1-.37.09.92.92,0,0,0-.36.07.8.8,0,0,1-.38.08,1.36,1.36,0,0,0-.24.24,1.24,1.24,0,0,0-.22.37v9.55c0,.15,0,.32,0,.52a1.1,1.1,0,0,1-.15.53.85.85,0,0,1-.6.22.82.82,0,0,1-.59-.22.5.5,0,0,1-.18-.46,3.25,3.25,0,0,0,.05-.59,1.59,1.59,0,0,1-.09-.77,2.25,2.25,0,0,0-.08-.89c0-.15,0-.3,0-.46a2.12,2.12,0,0,1,.15-.59.37.37,0,0,0,0-.14,1.22,1.22,0,0,0-.15-.17.77.77,0,0,1-.05-.55,2.43,2.43,0,0,1,.22-.46v-.17a.31.31,0,0,1-.14-.22.69.69,0,0,1,0-.24,1.54,1.54,0,0,1,.07-.27,1.13,1.13,0,0,0,.05-.32.36.36,0,0,1-.15-.29c0-.14,0-.28,0-.43a1.68,1.68,0,0,0,.06-.82,5.13,5.13,0,0,1-.06-.81.5.5,0,0,1,.08-.26.61.61,0,0,0,.09-.35,2.14,2.14,0,0,1-.15-.68c0-.22,0-.44,0-.66a.52.52,0,0,0-.2-.48,1,1,0,0,0-.57-.13.74.74,0,0,1-.36-.08.88.88,0,0,0-.36-.07A1.07,1.07,0,0,1,26,55a.35.35,0,0,1-.09-.22.86.86,0,0,1,0-.61,3.32,3.32,0,0,1,.32-.61.33.33,0,0,1,.21-.12.82.82,0,0,1,.21,0Zm-.91,1.06a.08.08,0,0,0,0,.06s0,0,.11-.06h-.13v0Zm.43-.31a.27.27,0,0,0,0-.13.2.2,0,0,0-.11,0v.15Zm.16.61v-.15h-.16l.07,0c.06,0,.09.08.09.13h0Zm.32,0v0Zm.29-.61a.32.32,0,0,0-.15,0,.24.24,0,0,0,0,.13.32.32,0,0,0,.15,0A.27.27,0,0,0,27.71,54.13Zm0,.76v-.3c-.06,0-.08,0-.06.08l.06.07Zm0-.91h0Zm0,.46a.54.54,0,0,0,.15.11s0,0,0-.11l-.15-.12S27.71,54.36,27.71,54.44Zm.3.3V55h0a.15.15,0,0,0,.06-.09.17.17,0,0,0-.06-.2h0Zm0-.3h.17a.35.35,0,0,0,0-.12l-.06-.1L28,54.13Zm.31-.31h-.15l0,.15a.2.2,0,0,0,.11,0A.27.27,0,0,0,28.32,54.13Zm.24,2a.15.15,0,0,0-.06.13l-.1-.06c-.06,0-.08,0-.08.06s-.09,0-.07,0,0-.05-.06-.13l0,.15,0,.15,0,.14,0-.14.18,0c.06,0,.05-.06,0-.13h.17a.15.15,0,0,1,.06-.13l.07,0Zm-.37,7.73h.29a.06.06,0,0,0,0,0,.14.14,0,0,0-.14-.08c.09,0,.15,0,.16,0a.3.3,0,0,0,0-.14.29.29,0,0,1,0,.09s-.08.07-.15.07a.24.24,0,0,1,0,.08.17.17,0,0,1-.12,0l0,.17Zm0-5.5.12.11s0,0,0-.11Zm.32,3.42v-.16h-.18a.47.47,0,0,1,0,.16.41.41,0,0,1-.12.13h.14Zm-.18-6.42c-.06-.08-.1-.11-.11-.11s0,0,0,.11ZM28.49,63h-.17l0,.15a.13.13,0,0,1,.08-.13.18.18,0,0,1,.11,0,.25.25,0,0,0,.12,0,.32.32,0,0,0,0-.15Zm.42,1.34v-.16h-.13c-.08.08-.1.14-.06.16a.15.15,0,0,1,.06.13h-.3c-.09.09-.12.16-.09.23s0,.15-.08.23h.19c.06,0,.08,0,.05-.1a.49.49,0,0,1-.05-.19h.12a.14.14,0,0,0,.14-.08.2.2,0,0,0,0-.09h.13Zm-.43-5.37a.15.15,0,0,0-.09,0,.11.11,0,0,0-.07.12.11.11,0,0,1,.07-.12A.15.15,0,0,1,28.48,58.92Zm0,6.73h0Zm0-11.37v0Zm0,1a.16.16,0,0,1,.05-.13l.06,0H28.5Zm.12,1.19h.16v-.14c-.08.07-.15.1-.2.07s-.08,0-.08.07Zm0,3v-.16H28.5s.07,0,.11.09A.25.25,0,0,1,28.63,59.52Zm.15,3.89h-.15V63.1a.11.11,0,0,0-.11.07.19.19,0,0,0,0,.07.32.32,0,0,0,0,.15.14.14,0,0,0,.09,0Zm-.17-2.12h.17s0,.07,0,.09a.12.12,0,0,0,.11.08.14.14,0,0,0-.08-.15l0,0Zm.17.46h0v.13l.13.17v-.17a.1.1,0,0,0-.13-.13Zm-.15.59v-.16l0,.16Zm.15-8.06a.2.2,0,0,0,.11,0,.27.27,0,0,0,0-.13.12.12,0,0,0-.11.07.12.12,0,0,0,0,.08c0,.08,0,.11-.08.08s-.07,0-.07.08h.07a.16.16,0,0,0,.08-.15v0Zm-.15,2.54v0h.15v0ZM28.76,61v.14h.13a.12.12,0,0,0-.08-.12A.06.06,0,0,0,28.76,61Zm0-6.11h.13A.11.11,0,0,0,29,55a.13.13,0,0,0,.09,0s0-.05.06-.07,0-.07-.06-.07h-.16a.24.24,0,0,0,0-.08.12.12,0,0,0-.11-.07Zm0,5.08v.14h0Zm0,5.21h.13a.14.14,0,0,0-.08-.12h0Zm.75-10.44c-.08,0-.13,0-.14.09a.65.65,0,0,0,0,.2c0-.07,0-.12.13-.14s.11-.08,0-.15h.15a.14.14,0,0,0,0-.07.13.13,0,0,0-.13-.08Zm.46,0h0Zm0-.15h.16v-.15a.16.16,0,0,0-.15.08A.17.17,0,0,0,30,54.59Zm.33-.46V54c-.07,0-.1,0-.11,0s0,.06,0,.13Zm0,.61h.16v-.15a.12.12,0,0,1,0,.08A.15.15,0,0,1,30.29,54.74Z"/><path class="cls-2" d="M34.08,53.4a4.68,4.68,0,0,1,.91.09l.91.2H36l.35.24c.12.08.24.18.35.27a2,2,0,0,1,.3.35,1.27,1.27,0,0,1,.19.48,2.6,2.6,0,0,1,.39,1.11,10.37,10.37,0,0,1,.06,1.12.53.53,0,0,1-.06.23c0,.08,0,.19.06.34v2a.35.35,0,0,0-.11.22c0,.06,0,.1.11.1V61a.36.36,0,0,0-.11.29.39.39,0,0,0,.11.3c0,.07,0,.17,0,.3a.42.42,0,0,1-.13.29.84.84,0,0,0,.07.31.85.85,0,0,1,.08.29,4.9,4.9,0,0,1-.1,1c-.06.33-.12.68-.2,1a1.12,1.12,0,0,1-.17.52,4.4,4.4,0,0,0-.27.51l-.33.3a.65.65,0,0,1-.41.16H36a.82.82,0,0,1-.36.24,1.76,1.76,0,0,1-.41.11c-.14,0-.28,0-.44,0a2.34,2.34,0,0,0-.45.07,2.49,2.49,0,0,1-.46,0,1.3,1.3,0,0,0-.57,0,.91.91,0,0,1-.3-.09,2.49,2.49,0,0,1-.44-.21l-.16-.15A.4.4,0,0,0,32.5,66a1.08,1.08,0,0,1-.06-.38V63.35a2.83,2.83,0,0,1,0-.87,7.6,7.6,0,0,0,0-.77,1.52,1.52,0,0,0,0-.34c0-.08.05-.16.19-.24V61a.56.56,0,0,1-.19-.44,3.37,3.37,0,0,0,0-.44v-.32a1.65,1.65,0,0,1,0-.67,6.56,6.56,0,0,0,0-.82V57.7a1,1,0,0,1-.09-.37,1,1,0,0,1,.09-.36v-2.1a3.22,3.22,0,0,0,0-.43A.56.56,0,0,1,32.6,54v-.16a.4.4,0,0,1,0-.15l.13-.15a.88.88,0,0,0,.31-.07.8.8,0,0,1,.28-.07Zm-1,1.34h0v-.15h.16a.24.24,0,0,0,0,.13.2.2,0,0,0,.11,0,.13.13,0,0,0-.07-.13l-.06,0h-.16Zm.16,3a.14.14,0,0,0-.14.08.06.06,0,0,0,0,0A.16.16,0,0,1,33,58l-.07,0v.14a.14.14,0,0,0,.13-.07.19.19,0,0,0,0-.07v-.17l.16-.13v0h0Zm-.16,2.82c-.08,0-.12,0-.13,0a.3.3,0,0,0,0,.14h.15ZM32.9,65v-.17l.15.17c0-.09,0-.11,0-.08s-.06,0-.13-.09Zm.15-6v.14h.16c0-.07,0-.09-.08-.07S33.05,59.12,33.05,59.05Zm0,.44h0Zm.29,2.37v0h-.13v-.15h-.16v.15h.29Zm-.29,1.33h.16c0-.06,0-.1,0-.11s-.06,0-.14,0Zm0,2.68h.16s0-.07-.09-.11h-.07Zm.16-9.36h.13c0-.07,0-.11-.07-.13l-.06,0c-.07,0-.09.09-.05.13Zm0,4.32v0Zm.13,1.33c-.06,0-.1,0-.11,0a.3.3,0,0,0,0,.14h.13Zm.17.29v-.13a.32.32,0,0,0-.15,0,.2.2,0,0,0,0,.11h.17ZM33.34,64h0Zm.17.88h-.17l-.13-.11v.12l.06,0a.16.16,0,0,1,.07.15l.08,0A.14.14,0,0,0,33.51,64.84ZM33.29,57l.05,0V56.8C33.28,56.87,33.26,56.92,33.29,57Zm.05,3.73c.09-.08.11-.16.07-.23a.35.35,0,0,1-.07-.23h.17V60.1h0v.12h-.17c-.06.09-.08.17,0,.23A.59.59,0,0,1,33.34,60.68Zm0-5.52h0Zm.17,1.05h-.17a.27.27,0,0,0,0,.13.32.32,0,0,0,.15,0Zm0,3.28h-.17v.16h.15A.4.4,0,0,0,33.51,59.49Zm0,1.64a.24.24,0,0,0,0-.13.32.32,0,0,0-.15,0v.15Zm-.17,4h.17l.05,0a.12.12,0,0,0,.08-.11h-.13v.13h-.17v.16c.06.07.08.11.06.13s0,0-.06,0a.35.35,0,0,0,0,.13,1.1,1.1,0,0,0,.15.17H34v-.17l-.22,0q-.09,0-.09.15h-.13a1.4,1.4,0,0,0,0-.23.39.39,0,0,0-.15-.22ZM33.51,58h-.06s0,.09.06.13Zm0-3.41v0h0Zm.13.88a.25.25,0,0,0,0-.07.12.12,0,0,0-.11-.07v.14Zm0,3-.13-.15v.15ZM33.78,55h0v0Zm0,.13h-.14a.15.15,0,0,0,.07.15l.07,0Zm0-.73v-.28c-.07,0-.11,0-.11.08s0,.09.11.09ZM34,63.5a.68.68,0,0,1,.06.38.72.72,0,0,0,.07.38.67.67,0,0,0,.16.42l.3.33h.14c.08-.09.13-.11.15-.08s.08,0,.15-.09a1,1,0,0,0,.44-.08.66.66,0,0,0,.31-.21,3,3,0,0,0,.22-.44,1.44,1.44,0,0,0,.08-.46A6.74,6.74,0,0,0,36,62.9a2,2,0,0,1,.05-.74V62a.8.8,0,0,1,0-.34,2.4,2.4,0,0,1,0-.32,1.5,1.5,0,0,0,0-.29.43.43,0,0,0,0-.25v-4c0-.06,0-.16,0-.29a.54.54,0,0,0-.11-.3,1,1,0,0,0-1.36-.88.57.57,0,0,0-.41.2.77.77,0,0,0-.18.53,3.09,3.09,0,0,1,0,1.48.46.46,0,0,0,.06.23.35.35,0,0,1,.07.23.21.21,0,0,0,0,.22.59.59,0,0,1,0,.22v.61a2,2,0,0,1,0,.23.36.36,0,0,1-.11.21.13.13,0,0,0-.05.12.31.31,0,0,0,.05.12l.08.11a.16.16,0,0,1,0,.11,3.61,3.61,0,0,0-.07,1,3.59,3.59,0,0,1-.06,1V62a.38.38,0,0,1,.11.23,3.21,3.21,0,0,1,0,.36A.75.75,0,0,0,34,63,.93.93,0,0,1,34,63.5Zm.13-9.5v-.16a.29.29,0,0,1,0,.09A.12.12,0,0,1,34,54Zm0,.32v.12a.2.2,0,0,0-.11,0s0,.06,0,.15.08,0,.06,0,0-.06.07-.15H34s0,0,.09-.11h0Zm0,11.13V65.3H34a.12.12,0,0,0,0,.08A.11.11,0,0,0,34.08,65.45Zm0-10.71c0,.06,0,.1,0,.11a.3.3,0,0,0,.14,0s0-.08-.09-.11A.1.1,0,0,0,34.08,54.74Zm.46-.3h-.17a.12.12,0,0,0,.17.17Zm.29,0a.08.08,0,0,0,0,0s.08,0,.13,0-.12-.07-.13-.06A.08.08,0,0,0,34.83,54.43Zm.15-.11h.31a.25.25,0,0,0,0,.07s.06,0,.13,0v-.12c0-.07,0-.08-.07-.06a.21.21,0,0,0-.08.06H35Zm.31,11.26h0v0Zm.3-10.84h0Zm0,10.4v.16l-.15.15V65.3h.13a.4.4,0,0,0,0-.15h0Zm.14-10.82v.12h-.14Zm.17.55h0c0,.08,0,.13-.06.14s0,0,.06,0Zm0-.44v0ZM36,65.14V65H35.9v.13Zm-.13.61q0,.09.06.09s.07,0,.07-.09Zm.42-10.28v0Zm0,.59h.15v-.12Zm.32,1h0L36.47,57a.15.15,0,0,0,.07.11Zm0-1.77c0,.12,0,.18,0,.18a.08.08,0,0,0,.07,0v0h-.11A.38.38,0,0,1,36.64,55.33Zm.12,1.18h-.12s.07,0,.11.09a.17.17,0,0,1,0,.07Zm-.12,2.54V58.9h.12l-.12-.15v.3Zm.12,1.63c0-.08,0-.14-.06-.16a.15.15,0,0,1-.06-.13h.12v-.17q-.09.14-.06.15s0,0-.06,0a.45.45,0,0,0,0,.13Zm-.12.45V61h0Zm.12-3.72v0Zm0,2.54h0v0Zm.17,1.62h0Zm.15-4.09a.19.19,0,0,1,0-.07.24.24,0,0,0,0-.08.12.12,0,0,0-.11-.07c0,.07,0,.12.06.13l.07,0a.19.19,0,0,0,0,.07s.06.06.14.06C37.14,57.54,37.09,57.52,37.08,57.48Zm-.15.52v.14h.13v0h-.13Zm0,1v0Zm.29.73c-.08,0-.14,0-.16,0a.34.34,0,0,1-.13-.11v.13Zm-.29,2.08v0Zm.28-3a.35.35,0,0,0,0-.13h-.16v.15A.4.4,0,0,0,37.21,58.88Z"/><path class="cls-2" d="M86.34,65.1V60.44a.71.71,0,0,0,0-.43,2.15,2.15,0,0,1,0-.45v-2a1.73,1.73,0,0,0,0-.68,6.31,6.31,0,0,1,0-.79.19.19,0,0,0,0-.07.17.17,0,0,0-.15-.1c0-.08,0-.13-.08-.13a.32.32,0,0,0-.19.13l-.23.24a1,1,0,0,1-.24.21.39.39,0,0,1-.22.14l-.22,0a.12.12,0,0,1-.13-.1,1.28,1.28,0,0,1,0-.19,1.23,1.23,0,0,0-.06-.32.3.3,0,0,1,.06-.31A1.66,1.66,0,0,1,85,55a1.63,1.63,0,0,1,.33-.49l.11-.12a.52.52,0,0,1,.11-.1.31.31,0,0,1,.11-.09.33.33,0,0,1,.1-.11l.1-.09.09-.09a2.33,2.33,0,0,1,1.33-.46,1.47,1.47,0,0,1,.54.34.79.79,0,0,1,.21.56v8.57A8.41,8.41,0,0,1,88,64.46C88,65,88,65.57,88,66.17a.53.53,0,0,1-.19.4.58.58,0,0,1-.41.19,2,2,0,0,1-.44,0,.43.43,0,0,1-.32-.26.22.22,0,0,1-.19-.09.15.15,0,0,1,0-.2.78.78,0,0,0-.07-.26,1,1,0,0,1-.06-.37Zm-.59-9.9a.16.16,0,0,0-.07-.13l-.06,0v.15Zm.16-.42h0c-.07,0-.12,0-.14.07l0,0,.07,0c.06,0,.09.08.09.13V54.9h-.09C85.88,54.86,85.91,54.82,85.91,54.78Zm.43.27,0,.15,0-.15a.24.24,0,0,0-.13,0,.27.27,0,0,0,0,.13v-.15Zm-.15.3h0Zm.59,9.46h0Zm0-9.46v0Zm.13-.45c-.08.08-.1.1-.06.08s.06,0,.06.07Zm0,2.38a.22.22,0,0,0,.12,0,.17.17,0,0,1,0,.07.14.14,0,0,1-.13.07h.14v.15l-.14-.15a.14.14,0,0,0,.13-.07.17.17,0,0,0,0-.07.22.22,0,0,1-.12,0s0-.06,0-.13S86.93,57.27,87,57.28Zm0,1.07h.14a.25.25,0,0,0,0-.11s-.06,0-.13,0Zm.15.44h0v-.13h0a.17.17,0,0,1,0,.07.15.15,0,0,1-.13.06v0Zm0,2.26c-.07,0-.11,0-.11.09s0,.08.11.08h0Zm-.14,1.66a.31.31,0,0,1,.13,0,.38.38,0,0,1,0,.14c0,.08.06.13.17.15s.16.07.16.13V63a.12.12,0,0,0-.1-.13l-.23,0a.78.78,0,0,0,.12-.29s-.1,0-.26,0Zm.14,1v-.15a.22.22,0,0,0-.12,0s0,0,0,.13Zm0-1.66V62H87v.15Zm-.14,3v.17h.14a.12.12,0,0,0,0-.08A.15.15,0,0,0,87,65.1Zm.12-.73c-.06.06-.08.1,0,.12s0,0,0,0Zm.17-9.59h-.17v0Zm.16.57v.16c0-.16,0-.25,0-.27s-.12,0-.29,0v0a.12.12,0,0,0,.11.13Zm-.16,4.52a.4.4,0,0,0-.15,0,.23.23,0,0,0,0,.11v-.13Zm-.17.74.19.13,0-.13.14.09s0,0,0-.09v0h-.14l0,.13Zm.19,1h-.19a.27.27,0,0,0,0,.13.32.32,0,0,0,.15,0Zm0,3.15.16.16c0-.08,0-.11,0-.08s-.06,0-.14-.08a.24.24,0,0,0,0-.08s-.07-.07-.15-.07a.27.27,0,0,0,0,.13A.32.32,0,0,0,87.24,64.81Zm-.16-5.25h.16c-.08,0-.12,0-.12,0l.12-.13h-.16Zm.16,1.81h0Zm.16-5h0v0Zm-.16,8.11h0Zm.17-10.05h.14c0-.07,0-.12-.07-.14a.11.11,0,0,0-.07,0h-.15Zm-.15,3.46a.19.19,0,0,0,.07.06s.08,0,.08-.06Zm.15,5.69-.08,0a.13.13,0,0,0-.07.13h.15Zm.14-4H87.4a.12.12,0,0,0,0,.08.13.13,0,0,0,.13.07Zm-.15-5h.15l-.06.09s0,.08.06.08a.32.32,0,0,0,0-.15A.31.31,0,0,0,87.4,54.61Zm0,2.83v.15c.08,0,.09,0,.06,0S87.4,57.52,87.4,57.44Zm0,4.22v0h0Zm.14,1.21h0v0Z"/><path class="cls-2" d="M94.62,56.69v1.38a2.61,2.61,0,0,0-.07.81,2.74,2.74,0,0,1-.07.83l-.21.58a1.41,1.41,0,0,0-.09.49c-.06.23-.13.48-.21.74s-.16.51-.24.75a3.06,3.06,0,0,0-.31.83,2.83,2.83,0,0,1-.32.82,4.06,4.06,0,0,0-.29.9,2.09,2.09,0,0,1-.3.76.9.9,0,0,1-.46.9,1.27,1.27,0,0,1-.25.22.62.62,0,0,1-.34.1H91a.42.42,0,0,1-.48-.47V66a.93.93,0,0,0,.15-.38,3.84,3.84,0,0,0,0-.39,2.66,2.66,0,0,0,.35-.57,1.62,1.62,0,0,0,.11-.61,1.37,1.37,0,0,0,.23-.45c0-.15.08-.3.11-.44s.06-.28.08-.41a1.14,1.14,0,0,1,.15-.36,1.09,1.09,0,0,0,.15-.45c0-.14,0-.24,0-.3s.08-.25,0-.28a.53.53,0,0,0-.2,0l-.21,0a.53.53,0,0,1-.21-.11,1.49,1.49,0,0,1-.66-.16,1.57,1.57,0,0,1-.51-.41,1.85,1.85,0,0,1-.31-.59,1.51,1.51,0,0,1,0-.67,12.52,12.52,0,0,0-.07-1.36,4.79,4.79,0,0,1,.07-1.36v-.15a1.33,1.33,0,0,1,0-.88l.26-.76v-.14a.47.47,0,0,0,.26-.32,2,2,0,0,0,0-.31l.48-.41a1.73,1.73,0,0,1,.58-.32H92.8l.45.23a3.35,3.35,0,0,1,.47.35,2.24,2.24,0,0,1,.36.46l.23.46c.08.21.16.42.22.64a2.09,2.09,0,0,1,.09.56Zm-4.36.77v0Zm0,1.33v.31a.12.12,0,0,0,.11-.07.24.24,0,0,0,0-.08.25.25,0,0,0,0-.07C90.33,58.82,90.29,58.79,90.26,58.79Zm.27-1.93h0Zm-.14,1,.12.11s0,0,.06,0,0,0,0-.14,0-.11-.07-.11S90.39,57.83,90.39,57.9Zm.14-2.57c.09,0,.12,0,.09.08s0,.08.08.08-.07,0-.09,0A.14.14,0,0,1,90.53,55.33Zm.15.48s-.06,0-.15,0a.24.24,0,0,0,0,.09.16.16,0,0,0,.15.07v0A.3.3,0,0,0,90.68,55.81Zm0,2.56h-.17v.14a.12.12,0,0,0,.08,0A.12.12,0,0,0,90.7,58.37Zm.15.58-.15-.14s-.08,0-.17,0V59Zm0-2.55v-.15H90.7Zm.31-.91h-.31l.16.15a.14.14,0,0,1,.08-.13Zm0-.31a.19.19,0,0,0,0-.07A.13.13,0,0,0,91,55Zm0,4.61s0-.08-.11-.08v.16C91.09,59.87,91.12,59.85,91.12,59.79ZM91.31,55h-.15a.11.11,0,0,1,.15.15l.07,0c.05,0,.07-.06.07-.13h-.29c.07,0,.12,0,.13,0s0,0,0-.11Zm-.15,5.6a.27.27,0,0,0,0,.13.24.24,0,0,0,.13,0v-.15Zm.15,5.12h-.13a.31.31,0,0,0,0,.13.14.14,0,0,0,.13-.07A.19.19,0,0,0,91.31,65.75ZM91.45,60v-.13h-.14c0,.07,0,.1,0,.11S91.38,60,91.45,60Zm-.14,6.21h0ZM93,57.46l0-1.36a.65.65,0,0,0-.09-.37l-.2-.24-.38-.2a.39.39,0,0,0-.37,0,.94.94,0,0,0-.45.92v2.54a3.14,3.14,0,0,0,0,.45.41.41,0,0,0,.24.32.41.41,0,0,1,.24.08.47.47,0,0,0,.22.07,1.18,1.18,0,0,0,.37-.24,1.69,1.69,0,0,0,.24-.37.85.85,0,0,1,.08-.29.7.7,0,0,0,.08-.3Zm-1.23,8.43h0Zm.31-11v-.14H91.9v.14Zm-.14,6a.38.38,0,0,1,0-.13h0Zm.29-6.79v.17a.14.14,0,0,1,0,.13s0,0,0,0,.13-.12.13-.14S92.28,54.22,92.19,54.13Zm.17,6.19h-.17a.06.06,0,0,0,0,.06h0l-.07.06v-.14Zm0,2.24-.1,0a.14.14,0,0,0-.07.13v-.15Zm-.17,1.53c.09-.09.11-.14.07-.17s-.07-.07-.07-.14h0Zm.31-10.23a.13.13,0,0,1-.07.11h-.07a.22.22,0,0,0,0,.08.14.14,0,0,0,.13.07v-.27Zm.15.9q0-.13-.09-.15l-.2,0a.42.42,0,0,0,0,.15.31.31,0,0,0,.13,0Zm-.15,6.48h0Zm.46-.15H92.8a.14.14,0,0,1-.08.13l-.07,0c-.06-.06-.1-.08-.13-.06a.08.08,0,0,0,0,.06h.3v-.15Zm-.42,1.26c0,.06,0,.08.11.08v-.16h0C92.58,62.27,92.54,62.29,92.54,62.35ZM93,54.3l0,.14,0-.14a.15.15,0,0,1-.14-.08s0,0,0-.09a.11.11,0,0,0-.15-.15v.15a.07.07,0,0,1,.07,0,.16.16,0,0,0,0,.09.09.09,0,0,0,.06.06S92.89,54.33,93,54.3ZM92.8,60a.13.13,0,0,0-.13.08.19.19,0,0,0,0,.07.27.27,0,0,0,.13,0A.24.24,0,0,0,92.8,60Zm-.15,1.37a.3.3,0,0,0,0,.14.24.24,0,0,0,.13,0v.15H93c0-.08,0-.12,0-.13a.24.24,0,0,0-.13,0ZM93,62.56l-.16.15h.14Zm.15-8H93l0,.17a.12.12,0,0,0,.17-.17Zm0,4.82v0Zm0,1.83a.88.88,0,0,0,0,.17c0,.06.06,0,.15,0v0Zm0,.73v0Zm.17-2a.1.1,0,0,0,.07,0,.12.12,0,0,0,.08-.11h-.15Zm.31-5.24c-.16,0-.24,0-.26,0s0,.11.1.24a.13.13,0,0,1,.08-.13A.14.14,0,0,0,93.57,54.76Zm-.16.42c.08,0,.13,0,.14.06s0,0,0-.06-.11,0-.11,0l.13.13h-.18Zm.18,4.07h0Zm0,1.38,0,0s0,.08,0,.13v-.15c-.09,0-.13,0-.15-.07s0,0,0,.07ZM93.72,56v-.16h-.15V56Zm0,3.92-.08,0a.12.12,0,0,0-.07.11h.15a.12.12,0,0,0,0,0C93.8,59.9,93.78,59.87,93.72,59.87Zm-.15.28v.17h0v-.17h0Zm0-2.39h.15c0,.07,0,.11.07.11s.07,0,.07-.11,0-.08-.07-.06a.19.19,0,0,0-.07.06Zm0,1.34h0Zm.13-4.2c0,.07,0,.11,0,.13a.46.46,0,0,0,.13.15h0a.46.46,0,0,1-.13-.15S93.72,55,93.72,54.9Zm.15,2.42v.14h0Zm-.13-.63a.37.37,0,0,1,.14,0,.76.76,0,0,1,.17.15l0,.29a.31.31,0,0,0,.11-.2.08.08,0,0,0-.09-.09.12.12,0,0,0-.17-.17ZM94.05,59A.24.24,0,0,1,94,59s-.07.07-.15.07-.09,0,0,0,0,.05,0,.13c.15-.08.23-.12.24-.15S94.11,59,94.05,59Z"/><path class="cls-2" d="M101.06,56.54v1.35C101,58,101,58,101,58a.21.21,0,0,1,0,.15,4.71,4.71,0,0,0-.16.65,1.17,1.17,0,0,1-.3.57h-.07a.14.14,0,0,0-.08.11.31.31,0,0,0,0,.1.17.17,0,0,0,0,.2.19.19,0,0,0,0,.07.14.14,0,0,0,.13.08,1.3,1.3,0,0,1,.41.79,9.87,9.87,0,0,1,0,1v2.37a.31.31,0,0,0-.13,0,.45.45,0,0,0,0,.17.26.26,0,0,1,0,.42,3.6,3.6,0,0,1-.9,1.66h-.14a.53.53,0,0,0-.39.15.53.53,0,0,1-.37.14.7.7,0,0,1-.51.06,2.68,2.68,0,0,0-.52-.06.65.65,0,0,1-.2,0,.1.1,0,0,1-.09-.12,2.9,2.9,0,0,1-.72-.5,3.16,3.16,0,0,1-.5-.7,2.67,2.67,0,0,1-.26-.91c0-.3,0-.59,0-.88v-2.7c.07-.15.14-.3.22-.44s.15-.3.24-.46a2.08,2.08,0,0,0,.24-.28s0-.09-.1-.17a2.68,2.68,0,0,1-.58-1,2.14,2.14,0,0,1,0-1v-1.5a2.6,2.6,0,0,1,.34-1.3,3.19,3.19,0,0,1,1-1.08.61.61,0,0,1,.33-.13l.42,0h.47a1.56,1.56,0,0,1,.57.11,5,5,0,0,1,.6.34.74.74,0,0,1,.37.37,1.92,1.92,0,0,0,.39.51.14.14,0,0,1,.13.07.22.22,0,0,1,0,.08,2,2,0,0,0,0,.42c0,.13.06.27.08.4a2.9,2.9,0,0,1,.06.41A1.22,1.22,0,0,1,101.06,56.54Zm-4,6.13h-.15v-.15a.13.13,0,0,0,.06-.07c0-.05,0-.07-.06-.07a.11.11,0,0,0-.12.07.11.11,0,0,0,0,.07c0,.07,0,.11.07.13a.1.1,0,0,0,.07,0Zm-.15-7.18v0Zm0,.59.15-.14a.27.27,0,0,1-.13,0,.31.31,0,0,1,0-.13.31.31,0,0,0,0,.13.27.27,0,0,0,.13,0v.14Zm.15.61v.15h-.15Zm0,1.2h-.15V58Zm-.15.46H97l-.07,0a.16.16,0,0,1-.08-.15Zm0,.29v0ZM97,60.87A.14.14,0,0,1,97,61l-.08,0L97,61A.14.14,0,0,0,97,60.87Zm0,.46h0Zm.3,3v-.19a.29.29,0,0,0-.12,0,.58.58,0,0,0,0,.17l0,.15a.24.24,0,0,1-.13,0,.27.27,0,0,1,0-.13h-.15v0H97v.42h-.16a.4.4,0,0,0,.22-.07l.1-.08q-.12,0-.12-.06s0-.06.12-.06a1.55,1.55,0,0,1,0-.22q0-.12.12-.12v.19h0Zm-.3-7h0Zm.17,7.6H97v.15h.15l0,.14,0-.14Zm0-7.92,0-.14Zm0,5.54,0,.15.15-.15ZM97.33,57v.15a.11.11,0,0,0,.12-.07.12.12,0,0,0,0-.08c0-.07,0-.11,0-.12s0,0-.12,0Zm.14,3.13h-.13a.38.38,0,0,1,0-.13v.14h.14v0Zm0,1.37v.14h-.14l.14-.14h-.14c.07-.08.09-.11.07-.11S97.4,61.4,97.47,61.48Zm0-3h0Zm0,6.87v.15l.13.11s0,0,0-.11a.24.24,0,0,0,0-.08A.13.13,0,0,0,97.47,65.36ZM97.62,60v-.15c-.06,0-.08,0-.06.07Zm0,5.08h-.06s0,.07.06.13Zm.17-5.65v-.15h-.17Zm.14-1.51v.46a.56.56,0,0,0,.11.35,1.57,1.57,0,0,0,.33.24h.21a1,1,0,0,1,.26.11H99c0-.13,0-.22.1-.25a2.3,2.3,0,0,0,.2-.17c.07,0,.11,0,.13,0a.24.24,0,0,0,0-.13v-1.8a1,1,0,0,0,0-.9L99,55.35a.71.71,0,0,0-.38-.1.73.73,0,0,0-.35.24.53.53,0,0,0-.28.33c0,.15-.09.34-.16.58a.77.77,0,0,1,.12.35,1.28,1.28,0,0,1,0,.39c0,.13,0,.26,0,.39A1,1,0,0,0,97.93,57.89Zm-.14,1.93.14,0a.46.46,0,0,0,.15-.13l-.15,0Zm.71,5.08a.88.88,0,0,0,.5-.11,1.28,1.28,0,0,0,.44-1c0-.22,0-.44,0-.68v-.9a.27.27,0,0,0,0-.29,1,1,0,0,1,0-.3v-.46a.28.28,0,0,0,0-.44.79.79,0,0,1-.3-.07.83.83,0,0,0-.27-.08.57.57,0,0,0-.33-.11.39.39,0,0,0-.28.11l-.18.27L98,61a.58.58,0,0,0,0,.19v1.61a3.39,3.39,0,0,1,0,.45,1.26,1.26,0,0,1-.12.45v.15a4.09,4.09,0,0,1,.2.42,1,1,0,0,1,.09.31,2.13,2.13,0,0,0,.22.21A.32.32,0,0,0,98.5,64.9Zm-.71.15a.38.38,0,0,0,0,.13h.13Zm.46-5.23h.27a.27.27,0,0,0,0,.13.22.22,0,0,0,.12,0l.09,0a.14.14,0,0,0,.09-.13h-.61l-.07,0a.13.13,0,0,0-.07.13h.16Zm0-5.65v.15c.06-.07.08-.11,0-.13s0,0,0,0a.26.26,0,0,0,.19-.11.4.4,0,0,0,.08-.2q0,.09-.06.09s-.07,0-.07-.09V54a.13.13,0,0,0-.07-.11h-.07a.14.14,0,0,1-.08.11h0a.14.14,0,0,0,.08-.11Zm0,5.94h.14L98.25,60Zm0,5.84v0Zm.25-11.36h-.13a.19.19,0,0,0,.06-.07c0-.05,0-.08-.06-.08a.24.24,0,0,0,0,.08A.12.12,0,0,0,98.5,54.59ZM98.65,66h0v-.3l-.07-.05s-.07,0-.07.05,0,.13,0,.15,0,.07,0,.15h0a1.12,1.12,0,0,1,0-.2.1.1,0,0,1,.11-.1V66Zm-.15-6.43h0ZM99,54.74s0,0-.07-.06,0,0,0,.06a.12.12,0,0,0,0,0S99,54.8,99,54.74Zm0,10.91h-.12l0,0a.14.14,0,0,1,.07.13ZM99,60a.31.31,0,0,0,0,.13h.13V60Zm.24,5.7s0,.07.06.13v-.15Zm.52-11.23v-.12h-.17c0-.07,0-.11-.07-.13a.11.11,0,0,0-.07,0v.15h.14c.08,0,.13,0,.15.07l0,0a.42.42,0,0,0-.06.08s0,.07.06.07Zm-.17,5.38.06-.07s0-.08-.06-.08v.15a.31.31,0,0,0-.13,0s0,0,0,.13v.14l.07-.09A.35.35,0,0,0,99.55,59.82Zm-.14,5.37v0Zm.31-9.84V55.2h-.17a.19.19,0,0,0,0,.07A.15.15,0,0,0,99.72,55.35Zm0,10.16a.15.15,0,0,0-.09-.13l-.08,0v.15Zm0-5.69V60l.15-.15Zm0,5.83v0a.19.19,0,0,0,.07.06s.08,0,.08-.06Zm.15-6.59v0Zm0,.61h0Zm.14.3c0,.07,0,.11,0,.13h0Zm0,2.55-.07,0a.14.14,0,0,0-.07.13Zm.15-5.83H100a.14.14,0,0,0,.08.13l.07,0ZM100,57h.15v.15h.15a.12.12,0,0,1-.08,0s-.07-.06-.07-.13c0,.08,0,.1-.07.08s-.08,0-.08.07Zm.15,3.74v.15h0v-.15h0Zm.15,2.71v-.17H100v.17Zm-.15,1.47v.15H100a.4.4,0,0,1,0-.15,1,1,0,0,1,.13-.15.19.19,0,0,0,0-.07.13.13,0,0,0-.13-.08v.45c0-.08,0-.11.08-.11s.07,0,.07.11Zm0-3.28a.07.07,0,0,0,.06,0s0-.06-.06-.12Zm.29-3.59-.14-.14V58l.07,0a.14.14,0,0,1,.07.13Zm-.14,2.4v.14h.14Zm0,.9.14-.17v0l-.07,0A.15.15,0,0,0,100.31,61.33Zm.14.73h0Zm0,.32a.12.12,0,0,1-.12-.08s0,0,0-.09v.17Zm0,2.22v-.12h-.07a.13.13,0,0,0-.07.11Z"/><path class="cls-2" d="M106.75,54a1.79,1.79,0,0,1,0,.24.47.47,0,0,1-.15.24,3.16,3.16,0,0,0-.14.65,2.07,2.07,0,0,1-.15.56A8.33,8.33,0,0,1,106,57a10.36,10.36,0,0,0-.31,1.15,8.13,8.13,0,0,1-.3,1.29,9.67,9.67,0,0,0-.31,1.31A.4.4,0,0,1,105,61a.43.43,0,0,0-.07.23,3.08,3.08,0,0,0-.17.62,2.63,2.63,0,0,1-.15.6.28.28,0,0,0,.06.18l.12.13.15.12a.45.45,0,0,1,.13.17.55.55,0,0,1,.31-.16.7.7,0,0,0,.3-.13,1,1,0,0,0,.34-.33.85.85,0,0,0,.12-.43,4.5,4.5,0,0,1,0-2.13.54.54,0,0,1,.1-.3.71.71,0,0,1,.24-.22.51.51,0,0,1,.3-.06.42.42,0,0,1,.26.12c.08.08.15.11.22.08a.22.22,0,0,1,.24.08.36.36,0,0,1,.24.31.65.65,0,0,1-.11.43v.48a1.19,1.19,0,0,1,.07.67,3.23,3.23,0,0,0-.07.69.58.58,0,0,0,.09.35.52.52,0,0,1,.08.26.18.18,0,0,1,.15.06s.08.07.16.07a.68.68,0,0,1,.31.34.47.47,0,0,1,0,.43v.61a.17.17,0,0,1,0,.23.66.66,0,0,1-.2.21c-.22.09-.35.2-.39.34a2.1,2.1,0,0,0,0,.43v.44a.41.41,0,0,1-.08.24.4.4,0,0,0-.09.24.48.48,0,0,1-.37.39,2.5,2.5,0,0,1-.51.06.43.43,0,0,1-.37-.2l-.24-.41a.51.51,0,0,1-.15-.3c0-.12,0-.22,0-.31a1.08,1.08,0,0,0-.13-.54.53.53,0,0,0-.48-.21.4.4,0,0,0-.3-.15l-.31,0h-1.21a.66.66,0,0,1-.55-.28,1,1,0,0,1-.21-.62,5.5,5.5,0,0,1,.08-.91,6.82,6.82,0,0,0,.07-.9h.15a.5.5,0,0,0,0-.15l.08,0a.13.13,0,0,0,.07-.13.78.78,0,0,1,0-.53,2.28,2.28,0,0,1,.18-.54,2.77,2.77,0,0,1,.09-.68c.06-.23.14-.46.22-.68a3.2,3.2,0,0,0,.3-1,3.09,3.09,0,0,1,.31-1v-.61c.07-.23.14-.48.2-.76a3.53,3.53,0,0,0,.09-.74,5.59,5.59,0,0,0,.23-.57c.08-.21.16-.43.23-.65a.59.59,0,0,1,.22-.28,1.06,1.06,0,0,1,.35-.18,1.32,1.32,0,0,1,.41-.05,1.15,1.15,0,0,1,.39.05q.24,0,.27.18A1.78,1.78,0,0,1,106.75,54Zm-3.5,9.28a.13.13,0,0,1,.13.07.14.14,0,0,1,0,.06v-.13Zm.46-.61a.71.71,0,0,0,.15-.22.14.14,0,0,1,.15-.09v.44c0-.06,0-.1,0-.11s0,0,0,0V62.4c-.15,0-.24,0-.28.07a.21.21,0,0,1-.18.07c0,.14,0,.21.07.21l.09,0v0Zm0,.61h.15v-.17Zm0,.73v0Zm.15,0v0Zm.29-3.92V60h-.07a.16.16,0,0,0-.07.15Zm.32.44c0-.07,0-.11,0-.13h.12v-.17a.12.12,0,0,0-.12.09.12.12,0,0,0,0,.08h-.15v0h.15ZM104,62.1a.1.1,0,0,0,.07,0s.07-.06.07-.13H104Zm.31-2.58-.09-.05s-.08,0-.08.05ZM104.15,61l.17.15Zm.17.76h0Zm0,2.13h-.17v0Zm.29-4.56a1.41,1.41,0,0,0,0-.21.12.12,0,0,0-.13-.1.4.4,0,0,0,.07.22l.07.09v.16h0v-.16a.16.16,0,0,0,.08.15h.07Zm.15-.61c.09-.07.11-.12.07-.15s-.07-.08-.07-.16a.14.14,0,0,0-.13.09.25.25,0,0,0,0,.07v.15c.08,0,.1,0,.06,0s-.06,0-.06-.13a.24.24,0,0,1,.13,0S104.76,58.68,104.76,58.75Zm.17,4.7h-.17c0-.07,0-.1,0-.1l-.13.1h.32Zm-.17-6.06a.2.2,0,0,0,0,.09c0,.05.07.07.15.07v-.16q0-.09-.09-.06Zm.08.74a.14.14,0,0,0,.09-.13v.14h.14v-.29a.15.15,0,0,0,0-.07.14.14,0,0,0-.13-.08v.15h.14A.14.14,0,0,1,105,58l-.07,0a.14.14,0,0,1-.09.13h0Zm.38-1.79h.15a.13.13,0,0,1-.13-.07.3.3,0,0,1,0-.1h.15a.13.13,0,0,0-.07-.12.12.12,0,0,0-.08,0v-.15a.14.14,0,0,0-.13.07.24.24,0,0,0,0,.08h.15v.31Zm0,1-.07-.06c-.05,0-.08,0-.08.06a.24.24,0,0,0,.13,0s0,0,0-.13Zm.31-2.74v0Zm0,1.38a.24.24,0,0,1,0-.08.14.14,0,0,1,.13-.07v0a.14.14,0,0,0-.13.07A.24.24,0,0,0,105.53,56Zm.15,8h.15v-.13h-.15Zm.15-9.24c.16,0,.22,0,.17-.08a.19.19,0,0,0-.17-.08H106a.13.13,0,0,0-.13.09A.19.19,0,0,0,105.83,54.81Zm.31,8.19v-.16h0c0,.08,0,.13,0,.15h0Zm0,.15c-.08,0-.13,0-.13.08s0,.09.13.09Zm.15.77v-.16a.24.24,0,0,0,0-.08.14.14,0,0,0-.13-.07v.31a.24.24,0,0,0,0,.08s.06,0,.13,0,0,0-.06,0S106.23,63.92,106.29,63.92Zm.15.61a.16.16,0,0,0-.08-.15h-.07l-.15-.15v.15h.15Zm-.3.13v0Zm.3-1.34a.08.08,0,0,0,0-.06s-.07,0-.13.06Zm.14-2a.22.22,0,0,0,0-.08c0-.06-.08-.09-.13-.09v.17Zm-.14,2.41.14.16v-.16Zm.14,1.07h0Zm.17.31V65a.67.67,0,0,0-.13.15S106.66,65.14,106.75,65.14Zm.29-2h-.14a.54.54,0,0,1,0,.17,1.43,1.43,0,0,1-.13.13h-.06s0,.09.06.15l.15.15c-.08-.08-.07-.16,0-.25a.52.52,0,0,0,.12-.36.11.11,0,0,0,0,.06s.08,0,.13-.06Zm-.14-.31-.15.16a.11.11,0,0,0,.13-.1,1.37,1.37,0,0,0,0-.19H107a.22.22,0,0,0-.12,0S106.9,62.78,106.9,62.84Zm.14-2.41v.14l-.07,0a.16.16,0,0,0-.07.15.16.16,0,0,0,.13-.07.31.31,0,0,0,0-.1Zm0,.75h-.14v.17a.31.31,0,0,0,.13,0A.42.42,0,0,0,107,61.18Zm0,3.48h0Zm0-2.56v.15l.08,0a.13.13,0,0,0,.07-.13Zm.15.9-.07,0c-.05,0-.08,0-.08,0h.08a.16.16,0,0,0,.07-.15Zm0,.92h0Zm.31.45h.13v-.92s-.08,0-.11.09a.19.19,0,0,0,0,.07.12.12,0,0,1,.11.07.12.12,0,0,1,0,.08h-.13v.61Zm.13-1.05v0Z"/><path class="cls-2" d="M120.61,53.13C118,45.07,116,35.92,111,29a1,1,0,0,0-.65-.43c-1.21-2.5-2.48-5-3.91-7.35-.59-1-1.72-.42-2.1.44-.64-.8-1.3-1.6-2-2.38.56-.45.84-1.24.21-1.71-3.13-2.39-6.29-4.74-9.52-7a.58.58,0,0,0-.17-.36,20.56,20.56,0,0,0-6.1-4.4C84.12,2,75.57,1.06,71.93.58,63.86-.48,55-.22,47.31,2.45c-.13,0-.18.29,0,.27,6.26-.68,12.46-1.39,18.75-.6A74.49,74.49,0,0,1,74.53,4c.85.21,1.85.44,2.91.73,0,0,.08.1.15.14,2.29,1.29,4.66,2.41,7,3.48A5.41,5.41,0,0,1,85.1,9a1.16,1.16,0,0,0,1.66.31c.71.43,1.43.86,2.17,1.26a.38.38,0,0,0,.1,0l.7.41.53.46C92.15,13,94.12,14.53,96.11,16a92.2,92.2,0,0,1,11.3,13.59l.85,1.66a.89.89,0,0,0-.65.78,2.85,2.85,0,0,0,2.15,2.92.58.58,0,0,0,.41-.07c1.45,2.69,2.93,5.37,4.37,8.06.41.76.76,1.52,1.09,2.27.58,1.74,1.14,3.49,1.72,5.22,1.21,5.39.86,10.78.39,16.81a55.36,55.36,0,0,1-22.56,40.05c-12.54,9-27.63,13.6-43,11.86-12-1.36-24.7-8.5-33.69-17.37.35-.45.46-1,0-1.4C10.43,94.27,8.41,83.94,4.86,75l-.52-1.38a.63.63,0,0,0,0-.33c-.81-5.18-2-10.22-2.17-15.47a23.46,23.46,0,0,1,.17-3.48c.34-2,.81-4,1.32-6s1.37-4.14,2.07-6.25L6,41.42a.63.63,0,0,0,.28-.15,1.26,1.26,0,0,0,1.23-1.11.38.38,0,0,0-.21-.4,1.93,1.93,0,0,0-.71-.09A63.51,63.51,0,0,1,12.29,26.9c2.84-4.59,7.68-8.39,11.58-12.07a1.05,1.05,0,0,0,.37-.79C30.33,9.51,39.11,8.38,45,3.47c.64-.54.94-2.34-.42-2-4.93,1.18-9.61,4.38-14.1,6.69a24.43,24.43,0,0,0-6.86,5.08,1.1,1.1,0,0,0-1.1.32,74,74,0,0,0-10,11.64c-3.56,5.25-4.84,11.07-7.75,16.6C2.14,46.7.34,50.72,0,56.34A42,42,0,0,0,1.22,67.78,45.11,45.11,0,0,0,2.93,76c2.68,8.77,5.21,21.63,14.15,26.26a.79.79,0,0,0,.22.06,42.21,42.21,0,0,0,11.1,9.92A62.27,62.27,0,0,0,50.09,120c16,2.74,32.73-1.9,46.45-10.28C109.1,102,116.34,86.46,119,72.48a64.41,64.41,0,0,0,.91-18A1.13,1.13,0,0,0,120.61,53.13Z"/><path class="cls-2" d="M6.09,44.31c-.26,0-.5.49-.18.49S6.41,44.31,6.09,44.31Z"/><path class="cls-2" d="M8.49,41.77c-.47,0-.89.9-.31.9S9.06,41.77,8.49,41.77Z"/><path class="cls-2" d="M4.38,35.09c-.14,0-.27.27-.1.27S4.55,35.09,4.38,35.09Z"/><path class="cls-2" d="M104.77,18.26c-.3,0-.58.59-.21.59S105.14,18.26,104.77,18.26Z"/><path class="cls-2" d="M108.65,20.85l-.06,0c-.31-.44-.89-.23-1.13.18l0,0c-.45.5-.38,1.52.49,1.39C108.55,22.33,109.25,21.38,108.65,20.85Z"/><path class="cls-2" d="M107.12,47.12c-6.21-2.68-14.8-1.52-21.25-.35-.27,0-.55.59-.15.64,6.94.93,13.94-.1,20.89.81C107.12,48.29,107.73,47.38,107.12,47.12Z"/><path class="cls-2" d="M107.92,72.63c-7.08-.46-14.66-1.5-21.71-.21-.38.07-.72.75-.19.85,6.92,1.29,14.35.59,21.38,1C108.27,74.27,109,72.7,107.92,72.63Z"/><path class="cls-2" d="M36.31,73.66c-7.6-.56-15.8-1.58-23.28.33-.1,0-.22.22-.06.25,7.49,1.16,15.48,0,23.05.23C36.44,74.49,36.84,73.7,36.31,73.66Z"/><path class="cls-2" d="M37.13,46.35c-7.58-1-15.86-2.18-23.37-.21-.15,0-.31.31-.09.35a36,36,0,0,0,8.17.43,97.82,97.82,0,0,1,14.92.52C37.34,47.51,37.84,46.44,37.13,46.35Z"/></g></g></svg>