<svg xmlns="http://www.w3.org/2000/svg" viewBox="0 0 121.54 133.82"><defs><style>.cls-1{}.cls-2{fill:none;stroke:#4c484f;stroke-miterlimit:10;stroke-width:1.5px;}</style></defs><title>logo2</title><g id="Layer_2" data-name="Layer 2"><g id="Layer_4" data-name="Layer 4"><path class="cls-1" d="M43.94,47.16s.06,0,0,0S43.92,47.15,43.94,47.16Z"/><path class="cls-1" d="M37.73,48.27c.06,0,.15-.07.08-.11S37.66,48.23,37.73,48.27Z"/><path class="cls-1" d="M47.05,44.54a3,3,0,0,0-1,.28c-.06,0,0,.12,0,.09a4.85,4.85,0,0,1,1-.31S47.1,44.54,47.05,44.54Z"/><path class="cls-1" d="M52.24,39.2c-1.3.9-2.56,1.86-3.84,2.79a.08.08,0,1,0,.08.13c.36-.2.74-.39,1.12-.57.89-.45,0,.06-.13.2A10.49,10.49,0,0,1,47.62,43s0,.09,0,.07a12.94,12.94,0,0,0,2.75-2c.07-.06,0-.21-.08-.16l-.47.24c.84-.57,1.69-1.13,2.51-1.72C52.52,39.36,52.43,39.07,52.24,39.2Z"/><path class="cls-1" d="M52.5,37.69a4.93,4.93,0,0,1,.9-.74c.19-.11.12-.45-.11-.3a3.89,3.89,0,0,0-1.08,1.06s0,.13,0,.15a.84.84,0,0,0,.47,0c.24-.14.41-.1.5.14l-.45.24c-.67.36-1.32.76-2,1.18,0,0,0,0,0,0,.87-.52,1.76-1,2.68-1.45,0,0,.07-.06,0-.1C53.27,37.54,52.87,37.79,52.5,37.69Z"/><path class="cls-1" d="M58.66,30.56c-1.66,1.43-3.29,2.9-5,4.3-.08.07-.09.26,0,.25a5.44,5.44,0,0,0,.84-.15,23.22,23.22,0,0,0-2.17,2c-.13.14,0,.36.17.2a23.3,23.3,0,0,1,3-2.58c.14-.1.08-.36-.1-.32s-1.47.63-1.15.32.88-.81,1.32-1.21c1-.93,2.1-1.84,3.18-2.74C58.87,30.6,58.76,30.47,58.66,30.56Z"/><path class="cls-1" d="M55.39,34.32h0Z"/><path class="cls-1" d="M62,26.2c-.93.82-1.84,1.66-2.8,2.45,0,0-.06.15,0,.15.48.06.54.1.06.48l-1.85,1.5s0,0,0,0l1.9-1.46c.3-.23.49-.28.56-.61,0,0,0-.05-.06-.05-.5.05.83-1,.92-1a16.84,16.84,0,0,0,1.38-1.29C62.28,26.26,62.15,26.09,62,26.2Z"/><path class="cls-1" d="M63,24.55a10.19,10.19,0,0,0-1.14,1c-.14.14,0,.36.17.2a9.23,9.23,0,0,1,1.1-1C63.24,24.71,63.14,24.41,63,24.55Z"/><path class="cls-1" d="M63.29,23.74a.06.06,0,0,0,.08,0c.08-.43-1.13-.74-1.38-.83a8.24,8.24,0,0,0-3.85-.32c-.2,0-.28.43,0,.41a10.92,10.92,0,0,1,2.74.07A6.47,6.47,0,0,1,63.29,23.74Z"/><path class="cls-1" d="M53.58,23.39l.46-.06c.13,0,.17-.26,0-.24l-.46.07C53.46,23.17,53.42,23.41,53.58,23.39Z"/><path class="cls-1" d="M66.91,18.85a2.58,2.58,0,0,1-.62,0l.14-.1c.12-.1,0-.29-.11-.19l-.41.29c-.06.05-.09.2,0,.23l.2,0c-.45.13-.89.27-1.33.42-.15.06-.19.34-.07.38A53,53,0,0,0,58,21.19a18,18,0,0,0-6.25,2.59c-.14.1-.07.39.11.26a7.24,7.24,0,0,1,.82-.54l0,0c.08,0,.18-.06.18-.15a23,23,0,0,1,5.68-2,54,54,0,0,1,6.9-1.26c.19,0,.22-.4,0-.37l-.64.09c.68-.26,1.37-.5,2.07-.73C67,19.11,67.1,18.84,66.91,18.85Z"/><path class="cls-1" d="M66.94,17.07c-.18.13-.35.27-.52.42a.05.05,0,0,0,0,.08.52.52,0,0,0,.46.13s.06-.07,0-.07a.41.41,0,0,1-.32-.11l.46-.34C67.1,17.11,67,17,66.94,17.07Z"/><path class="cls-1" d="M69.81,13.74c-1-.78.35-1.18.08-2-.43-1.27.56-2.39.48-3.68,0-.26-.33-.13-.35.07a6.27,6.27,0,0,1-.86,2.42c-.35.74.72,1.12,0,2-.16.18-.49.54-.4.81.25.75,1.43.57-.16,1.32a.07.07,0,0,0,0,.09,7.82,7.82,0,0,0-1.25,1s-.06.14,0,.17c.24.11.6,0,.84.08.09,0,.35-.35.25-.4l-.58-.3c.21.11.91-.57,1.49-.89.09-.05,0-.07,0-.09a3.3,3.3,0,0,0,.54-.46S69.86,13.78,69.81,13.74Z"/><path class="cls-1" d="M69.26,6.62c-.15.15-.45.46-.3.71s.54.1.86.29c.09,0,.22-.1.14-.18s-.37-.14-.6-.18.29-.75.29-.9c0-.71-1.24-.84-.78-1.65.07-.12-.09-.21-.17-.1a.79.79,0,0,0-.12.83C68.74,5.83,69.83,6.08,69.26,6.62Z"/><path class="cls-1" d="M68.26,3.9l-.06-.27c0-.1-.18,0-.17.06l0,.28C68.08,4.1,68.29,4,68.26,3.9Z"/><path class="cls-1" d="M66.94,3.17l1-.22c.3-.08.86-.32,1.08,0,0,0,.09,0,.08,0-.07-.27-.26-.34-.51-.34a11.09,11.09,0,0,0-1.63.27C66.78,2.92,66.76,3.21,66.94,3.17Z"/><path class="cls-1" d="M65.18,3c0,.15.14.18.22.07a2.36,2.36,0,0,0,.27-.66c.12-.36.17-.59.28-1,.06-.2-.31.07-.31.07h0a3.92,3.92,0,0,1-.27.75A2.55,2.55,0,0,0,65.18,3Z"/><path class="cls-1" d="M65,2.08c0,.17.2.17.24,0s.13-.44.2-.67.09-.31.13-.47l.06-.21c0-.05,0-.08,0-.1h0l0,0s0-.05,0-.07,0,0,0,0a.08.08,0,0,0-.09,0c-.19.07-.24.38-.3.56A9.32,9.32,0,0,0,65,2.08Z"/><path class="cls-1" d="M62.86,2.45c0,.18.25.08.24-.06a14.43,14.43,0,0,1,0-1.74A6.75,6.75,0,0,1,63.53,2a3.55,3.55,0,0,0,.41,1.47c.08.11.23,0,.24-.1,0-.46.08-.92.12-1.38,0-.19,0-.38,0-.57l0-.38c0-.21.07-.17.24.11,0,0,.06,0,0,0a.73.73,0,0,0-.2-.4s0,0-.07,0c-.27.13-.23.45-.26.71C64.08,2,64,2.47,64,3a13.16,13.16,0,0,1-.34-1.48A11.7,11.7,0,0,0,63.15.07c-.06-.14-.23,0-.25.07A7.45,7.45,0,0,0,62.86,2.45Z"/><path class="cls-1" d="M59.13,1.26c.47.32.8-.62,1-.43a.4.4,0,0,0,.51,0,.87.87,0,0,0,.21-.22c.1-.13.18.27.2.32s.26.08.31,0,.1-.23.14-.35l0-.19h.07A.14.14,0,0,0,61.73.3c0-.08,0-.09,0-.15a0,0,0,0,0-.06,0A.54.54,0,0,0,61.3.4c0-.15-.13-.3-.24-.31a.37.37,0,0,0-.21,0c-.12.05-.3.38-.44.29-.58-.41-.71.34-1.19.48C59.09.93,59,1.17,59.13,1.26Z"/><path class="cls-1" d="M58.22.81c.07,0,.16-.08.08-.12S58.14.77,58.22.81Z"/><path class="cls-1" d="M56,2.92C56.61,2,57.18,1.08,57.73.16c.05-.09-.07-.12-.12-.06a15.6,15.6,0,0,0-1.83,2.72C55.69,3,55.91,3.05,56,2.92Z"/><path class="cls-1" d="M53.86,4.74c.65-1.08,1.36-2.12,2.09-3.15.08-.11-.08-.21-.16-.1-.67.82-1.29,1.69-1.88,2.58,0-.06-.21,0-.23.11s-.07.3-.11.45A.16.16,0,0,0,53.86,4.74Z"/><path class="cls-1" d="M53.25,4.17c.38-.71.85-1.36,1.26-2l0,0s.08,0,.08,0a1.55,1.55,0,0,0,0-.22c0-.08-.1-.06-.14,0a9,9,0,0,0-1.41,2.23C53,4.26,53.19,4.26,53.25,4.17Z"/><path class="cls-1" d="M47.46,9.69c.3-.4.54-.84.82-1.26l.07.16a.19.19,0,0,0,.36,0,6.74,6.74,0,0,1,.73-.94c0,.07.08.09.2.21s.19,0,.23-.07c.35-.55.73-1.08,1.1-1.61.1-.15,0-.27-.17-.14a13.82,13.82,0,0,0-1,1.35l-.12-.17a.14.14,0,0,0-.22-.07,7.12,7.12,0,0,0-.85.89l-.09-.18a.18.18,0,0,0-.31,0,6.55,6.55,0,0,0-1,1.66C47.09,9.75,47.33,9.87,47.46,9.69Z"/><path class="cls-1" d="M46.67,10.19c.08-.21.17-.43.26-.64a0,0,0,0,0-.07,0c-.1.21-.2.43-.29.64S46.65,10.24,46.67,10.19Z"/><path class="cls-1" d="M42.28,14.64a.87.87,0,0,0,.21-.43c0,.11.2.11.26,0,.15-.34.61-1.91,1.09-1.41.19.21.3.32.62.17,1-.48,1.7-2.31,2.12-3.23a.12.12,0,1,0-.21-.1c-.4.71-1.56,3.26-2.58,2.42-.09-.07-.19,0-.24.08a7.55,7.55,0,0,0-1,1.88c-.2.07-.34.42-.43.57S42.21,14.75,42.28,14.64Z"/><path class="cls-1" d="M40.46,16.64a14.73,14.73,0,0,0,1.07-1.55c.06-.09-.08-.11-.13,0a15.54,15.54,0,0,0-1.08,1.48C40.27,16.64,40.38,16.73,40.46,16.64Z"/><path class="cls-1" d="M39.58,16.77l.68-.61c.11-.1,0-.23-.14-.13l-.69.61C39.31,16.75,39.46,16.88,39.58,16.77Z"/><path class="cls-1" d="M36.19,20.43c.25-.38.49-.75.75-1.12,0,.18-.08.37-.11.56s.16.26.26.09a26.68,26.68,0,0,1,2.44-3.62c.06-.06-.05-.09-.1,0a27,27,0,0,0-2.23,3l0-.28a.1.1,0,0,0-.18-.1A4.16,4.16,0,0,0,36,20.33C35.9,20.49,36.11,20.57,36.19,20.43Z"/><path class="cls-1" d="M29.43,27.22c.18-.33.75-1.09.7-1.46,0,.17.21.19.3,0,.29-.43,1.71-2.73,2-1.35a.15.15,0,0,0,.25.06c.27-.25.53-.5.78-.77s1.58-1.28,1.54-1.59c0,.06.25.11.27.07a.3.3,0,0,0,0-.08s-.13-.14-.15-.16l-.14-.09a.19.19,0,0,0-.16,0h0c.28-.43.57-.85.89-1.26.13-.18-.07-.41-.22-.22-.49.61-1,1.25-1.4,1.9a.21.21,0,0,0,0,.25c-.28.32-.54.67-.82,1-.71.73-.46.33-1.07.06s-1.39,1-1.85,1.68a.15.15,0,0,0-.28,0,15,15,0,0,0-1,1.8C29,27.25,29.29,27.48,29.43,27.22Z"/><path class="cls-1" d="M27.24,32.18a20.6,20.6,0,0,0,1.42-3.26s.08,0,.08-.05l.12-.47c0-.14-.16-.08-.2,0A23.93,23.93,0,0,0,27,32.09C27,32.27,27.15,32.34,27.24,32.18Z"/><path class="cls-1" d="M26.73,32.15a12.11,12.11,0,0,1-.82,1.2c-.07.09.06.14.12.06.27-.41.52-.82.75-1.24C26.8,32.14,26.75,32.13,26.73,32.15Z"/><path class="cls-1" d="M23.29,36.34c.05.23.28.15.35,0a14.12,14.12,0,0,1,.84-1.86.1.1,0,0,0,.05,0l.08-.09.05,0a.51.51,0,0,0,.09-.13l.51-.59c.08-.1-.05-.16-.12-.08l-.38.4a.41.41,0,0,0,0-.08c0-.11-.19-.06-.24,0a7.61,7.61,0,0,0-.93,1.7c-.06-.08-.23,0-.26.13A1.78,1.78,0,0,0,23.29,36.34Z"/><path class="cls-1" d="M22.4,37.84c0,.08,0,.12.07.13a30.87,30.87,0,0,0,.23,12.26c.08.32.42.05.37-.2a34.73,34.73,0,0,1-.14-13.55c.11-.42.39-.83.53-1.24,0-.07.06-.08.06-.06h0c0-.07-.25-.06-.27,0s-.17.37-.22.56A14.2,14.2,0,0,0,22.4,37.84Z"/><path class="cls-1" d="M24.8,48.89C28.31,43.35,32,38,36,32.76c.11-.15-.06-.27-.17-.14A91.64,91.64,0,0,0,24.71,48.86C24.68,48.92,24.78,48.94,24.8,48.89Z"/><path class="cls-1" d="M47.14,19.34A76.81,76.81,0,0,0,36.82,31.78c-.07.11.08.18.15.08a87.36,87.36,0,0,1,10.3-12.25C47.41,19.48,47.31,19.17,47.14,19.34Z"/><path class="cls-1" d="M49.86,16.8a93.28,93.28,0,0,1,8.57-7.69c.13-.1,0-.3-.12-.19a50.65,50.65,0,0,0-8.52,7.84S49.82,16.84,49.86,16.8Z"/><path class="cls-1" d="M59.27,8.68A38.5,38.5,0,0,1,63.9,4.37c.11-.09,0-.28-.08-.18A39.84,39.84,0,0,0,59.14,8.6C59.06,8.69,59.2,8.76,59.27,8.68Z"/><path class="cls-1" d="M63.47,5.37A70.15,70.15,0,0,0,54,15c-.11.13.06.26.17.13L55.13,14h.08a19,19,0,0,1,3.88-1.34c.07,0,.06-.11,0-.09a18.63,18.63,0,0,0-3.66,1.11c1-1.09,2-2.19,3-3.25a4.25,4.25,0,0,1,2.39-.34c.15,0,.28-.26.11-.29a4.44,4.44,0,0,0-2,.13c1.12-1.14,2.4-2.26,3.6-3.32a15.27,15.27,0,0,0,2-.1h0a13.54,13.54,0,0,1-2,.1c.5-.44.93-.87,1.45-1.29a6.42,6.42,0,0,1,2,0c.08,0,.17-.13.06-.15a5.23,5.23,0,0,0-2-.06c.85-.69,1.73-1.35,2.63-2,.08,0,0-.14-.06-.09a31.11,31.11,0,0,0-3.13,2.17h-.06A.06.06,0,0,0,63.47,5.37Z"/><path class="cls-1" d="M45.18,24l1-1.18h0a16.45,16.45,0,0,1,3-1.1c-.86.29-1.72.6-2.57.95-.08,0-.06.15,0,.11,1.38-.51,2.75-1,4.16-1.41.1,0,.14-.2,0-.19a14,14,0,0,0-4.19,1.17c1.55-1.75,3.1-3.49,4.79-5.11h0c.74-.56,1.47-1.13,2.15-1.76,0,0,0,0,0,0a25.6,25.6,0,0,0-2.21,1.67.07.07,0,0,0,0,.09A45.37,45.37,0,0,0,45,23.9C45,24,45.11,24.06,45.18,24Z"/><path class="cls-1" d="M44.67,24.73c-.75.81-1.45,1.67-2.13,2.53,0,.07.05.09.09,0,.7-.85,1.44-1.67,2.17-2.49C44.89,24.72,44.75,24.65,44.67,24.73Z"/><path class="cls-1" d="M51.07,6.49l0,0c-.14,0-.18.18-.11.41-.07.42-.13.85-.19,1.28s-.08.77-.11,1.16q-.18.35-.36.66A.28.28,0,0,0,50,10L50,9.68c0-.12,0-.18-.12-.17s.11-.35.07-.28a1,1,0,0,0-.1.32h0s-.17.16-.15.12-.12,0-.19,0a1.62,1.62,0,0,1,.19-.18l-.06,0a1.8,1.8,0,0,0-.26.29.17.17,0,0,0-.12.1L48.79,11a9.34,9.34,0,0,0-.55,1.15,1.17,1.17,0,0,1-.05.11.25.25,0,0,0,0,.07,32.58,32.58,0,0,0-1.05,3.43c0,.11.07.14.15.09s-.05.19-.07.28.11.08.13,0c.26-.85.48-1.71.74-2.56.08-.28.17-.62.26-1,.06,0,.12,0,.17-.08l0-.06c-.19.56-.36,1.12-.51,1.69,0,.18.22.16.26,0l.51-1.63a.18.18,0,0,0,.09,0,44.56,44.56,0,0,0-1.07,4.39c0,.24.25.24.3,0,.36-1.56.61-3.16,1-4.69.11.23.26.32.41,0h0a22.09,22.09,0,0,0-1.36,4.87c-.07.29.33.54.43.21.58-2.08,1.25-4.16,2-6.2A11.61,11.61,0,0,0,51,13.26c.08.32.44.06.38-.2s-.07-.3-.11-.44a.21.21,0,0,0,.19-.2,17.66,17.66,0,0,1,.41-4.08c.08-.16.15-.33.23-.5a.35.35,0,0,0,0-.33,29.37,29.37,0,0,1,1-3s0,0,0,0a14.21,14.21,0,0,0-1.17,2.86c-.06,0-.11,0-.15.13-.2.4-.39.79-.59,1.18.06-.85.14-1.71.23-2.57,0-.13-.19-.1-.2,0Zm.07,5.44A12,12,0,0,1,51,10.24c.11-.27.23-.54.34-.8A18.72,18.72,0,0,0,51.14,11.93Z"/><path class="cls-1" d="M48.16,11.25c.26-.66.49-1.32.69-2,0-.18-.17-.26-.25-.09-.47.94-.89,1.91-1.27,2.9a10.93,10.93,0,0,1,.51-1.3c.08-.16-.13-.22-.2-.08a11.08,11.08,0,0,0-.78,2.05,13.86,13.86,0,0,0-1.43,2.95c-.08.22.22.24.28,0a16.39,16.39,0,0,1,1-2.32,2.25,2.25,0,0,0-.05.22c0,.09,0,.15.06.17-.08.23-.15.46-.22.69s-.17.42-.25.64a.12.12,0,0,0,0,.15c0,.22.27.28.34,0,.23-.78.49-1.55.76-2.32l.23-.46c0-.09.55-1,.56-.81s.13.05.13,0c0-.28,0-.18-.1-.42C48.19,11.25,48.18,11.25,48.16,11.25Z"/><path class="cls-1" d="M44.37,16.92a11,11,0,0,1,1.88-3.65s0-.12-.06-.08c-1,.75-1.69,2.51-2.06,3.7C44.08,17.05,44.31,17.05,44.37,16.92Z"/><path class="cls-1" d="M44.14,16a15.73,15.73,0,0,0-1.27,2.07c-.11.22.17.34.28.12a15.23,15.23,0,0,1,1.2-2C44.47,16,44.28,15.79,44.14,16Z"/><path class="cls-1" d="M42.52,17.4l-.66,1c-.12.2.1.43.25.21s.45-.69.68-1S42.67,17.17,42.52,17.4Z"/><path class="cls-1" d="M32.8,26.15a5.69,5.69,0,0,0-1.23,2.66c-.23.53-.44,1.07-.64,1.61a12,12,0,0,0-.61,1.93c-.24.89-.44,1.79-.59,2.67,0,.2.25.17.28,0a1.74,1.74,0,0,0,0-.22.11.11,0,0,0,.08,0c-.07,1.31-.12,2.62-.14,3.93,0,.16.21.1.21,0,0-1,0-2,.07-2.94l0-1.12s0,0,0,0c0-.3,0-.59.06-.88,0,.08,0,.23,0,.46,0,0,.1,0,.1,0a4.76,4.76,0,0,0-.11-.77s0-.06,0-.08c.28-1.07.59-2.12.93-3.17a.88.88,0,0,1,0,.16c0,.06,0,.09.06.1-.16.4-.3.81-.43,1.23-.05.16.18.15.22,0,.19-.67.41-1.32.65-2,0,.12,0,.24,0,.37s.14.09.19,0a1.57,1.57,0,0,0,.21-.34c-.06.23-.13.45-.2.68s.25.24.3,0a45.8,45.8,0,0,1,1.33-4.42.07.07,0,0,0,0-.1v0a.13.13,0,0,0,.12-.09l0-.26c0-.14-.17-.09-.21,0a7.69,7.69,0,0,0-.93,2A6.15,6.15,0,0,0,32,29l-.3.67c.07-.38.14-.77.23-1.16s.22-.63.34-.95c0,0,0-.05-.07,0a4.33,4.33,0,0,1,.7-1.33C32.94,26.15,32.85,26.11,32.8,26.15Zm-.29,1.78a6.52,6.52,0,0,0-.19,1c0,.09,0,.13.1.13l-.09.31a.11.11,0,0,0-.17.06,1.89,1.89,0,0,1-.11.25A5.71,5.71,0,0,1,32.51,27.93Z"/><path class="cls-1" d="M29.4,30.06l0-.34c0-.08-.12,0-.13,0s0,.09,0,.14-.07,0-.08.08a14.39,14.39,0,0,0-.51,2.91h0a11.88,11.88,0,0,0,0,1.79c0,.21.28.07.29-.07,0-.33.06-.67.08-1a26.19,26.19,0,0,0,.3,3.74s0,0,0,0v1.21c0,.15.21.09.21,0,0-2.43.23-4.92.12-7.34,0,.05.1,0,.1,0,0-.32,0-.21-.1-.47.09-.47.18-.95.28-1.42,0,0,0,0,0,0-.1.45-.19.91-.28,1.37a.09.09,0,0,0-.1.07l0,.54c-.1.52-.19,1-.28,1.57,0-.76,0-1.52.1-2.29,0,0,0,0,0,0A1.41,1.41,0,0,0,29.4,30.06Zm.1,1.82c-.07,1.39-.11,2.78-.12,4.18-.08-.89-.12-1.77-.13-2.66C29.32,32.89,29.41,32.38,29.5,31.88Z"/><path class="cls-1" d="M28.24,39.63a25.84,25.84,0,0,1,0-5.63c0-.1.07-.19.11-.28s0-.06-.08,0c0-.32.08-.63.13-.95,0-.12-.16-.09-.18,0-.08.5-.15,1-.21,1.51a12.72,12.72,0,0,0-.93,4.48c0,.1.14.06.15,0a12.83,12.83,0,0,1,.74-4,25.42,25.42,0,0,0,0,5C28,39.87,28.26,39.77,28.24,39.63Z"/><path class="cls-1" d="M27.52,34.85l0,0a.08.08,0,0,0-.1,0c-.35.25-.4,1.1-.5,1.49-.21.84-.36,1.69-.5,2.54,0,.16.21.08.23-.05s.73-3.87.81-3.85S27.56,34.9,27.52,34.85Z"/><path class="cls-1" d="M26.36,34.92v0c.13-.29.26-.59.41-.88s-.16-.22-.23-.06c-.28.55-.54,1.1-.79,1.66a21.64,21.64,0,0,0-1.27,2.72,0,0,0,0,0,0,.05,13.68,13.68,0,0,0-.56,1.89c0,.19.21.16.26,0l.06-.16a.11.11,0,0,0,0-.08l.12-.56c.06.09.21.07.26-.07.17-.55.36-1.1.56-1.64-.06.25-.11.5-.16.76s.25.15.27,0a15.35,15.35,0,0,1,.64-2.44,2.85,2.85,0,0,1,0,.29,9.57,9.57,0,0,0-.33,1.33c0,.12.08.15.16.11l-.06.29c0,.13.16.09.18,0a19.66,19.66,0,0,1,1.26-3.57c.05-.11-.11-.13-.16,0a15.56,15.56,0,0,0-.89,2.1v0a12.12,12.12,0,0,1,.65-1.8c0-.06-.06-.06-.08,0A8.27,8.27,0,0,0,26.09,36c0-.1,0-.19,0-.29a.1.1,0,0,0,0,0l.32-.71h0S26.37,34.93,26.36,34.92Z"/><path class="cls-1" d="M22.54,45.89c0,.24.29.13.31-.06a33,33,0,0,1,1.64-7.93c0-.07,0-.11,0-.12.14-.42.29-.85.45-1.27,0,0,0,0-.06,0-.19.44-.36.88-.53,1.32a.18.18,0,0,0,0,.07A29.62,29.62,0,0,0,22.54,45.89Z"/><path class="cls-1" d="M23.72,47.13A17.31,17.31,0,0,1,24,41.71c0-.22-.24-.25-.28,0a15.88,15.88,0,0,0-.26,5.54C23.49,47.4,23.74,47.28,23.72,47.13Z"/><path class="cls-1" d="M25,45.22c0-.7,0-1.39-.08-2.08h0a4.88,4.88,0,0,0,.44-1.86,4.83,4.83,0,0,0,.15-1.85s0-.05-.08,0c0-.16.24-1,.21-.64,0,0,.08,0,.09,0a1.17,1.17,0,0,0,0-.49c0-.09-.11-.06-.14,0a19.52,19.52,0,0,0-.87,3c-.22.74-.42,1.48-.59,2.24,0,.18.2.15.23,0,.08-.37.17-.73.26-1.09a5.74,5.74,0,0,0,0,.73c0,.11.12.08.18,0,0,.68,0,1.36,0,2.05C24.9,45.28,25,45.26,25,45.22Zm.17-4.64.06-.25c.18-.44,0,.81,0,1a7.85,7.85,0,0,1-.26,1.35A11,11,0,0,1,25.16,40.58Z"/><path class="cls-1" d="M26.7,45a11.91,11.91,0,0,1-.25-3.15c0-.14-.19-.09-.2,0a9.6,9.6,0,0,0,.18,3.25C26.47,45.33,26.73,45.17,26.7,45Z"/><path class="cls-1" d="M26.61,43.34c0,.29,0,.59,0,.89,0,.07.12.05.13,0l0-.88C26.72,43.26,26.62,43.28,26.61,43.34Z"/><path class="cls-1" d="M28.48,40.86c0-.63,0-1.26,0-1.89,0,0,0,0,0,0,0,.63,0,1.27,0,1.9C28.43,40.9,28.48,40.89,28.48,40.86Z"/><path class="cls-1" d="M29.24,40c0-.82,0-1.63-.07-2.44a0,0,0,0,0,0,0v2.46C29.14,40.11,29.24,40.08,29.24,40Z"/><path class="cls-1" d="M29.9,37.42s0,0,0,0S29.91,37.43,29.9,37.42Z"/><path class="cls-1" d="M31.63,30.54a22,22,0,0,0-.38,5c0,.06.11,0,.11,0a21.66,21.66,0,0,1,.29-5Z"/><path class="cls-1" d="M32.12,35.07A6.36,6.36,0,0,1,32,33.5c0-.64,0-1.28,0-1.92,0,0,0,0,0,0v1.92A6,6,0,0,0,32,35.09C32,35.15,32.13,35.12,32.12,35.07Z"/><path class="cls-1" d="M33.24,33.18a2.23,2.23,0,0,0,0,.89c-.13.4-.26.8-.37,1.2,0,.16.16.15.2,0,.1-.3.19-.6.27-.91a3.51,3.51,0,0,0,.28-1.09c0,.06.08,0,.08,0v0s0,0,0,0l-.05,0a.07.07,0,0,0-.06,0,.7.7,0,0,0-.2.37,2,2,0,0,1,0-.42C33.45,33,33.25,33.07,33.24,33.18Z"/><path class="cls-1" d="M56.38,5.91a9,9,0,0,1,.24-1.15A4.79,4.79,0,0,1,57,3.88c.06-.13.19-.57.17-.16,0,.06.1,0,.1,0s0-.24,0-.35-.08-.06-.11,0a5.09,5.09,0,0,0-1,2.59C56.21,6,56.37,6,56.38,5.91Z"/><path class="cls-1" d="M56.39,8.12a23.74,23.74,0,0,0,1.45-3.35,43,43,0,0,0-1.29,4.77c0,.11.14.09.16,0,.4-1.75.85-3.48,1.41-5.19,0-.09-.11-.08-.14,0-.39,1-.82,2-1.3,2.93s-.12-.23-.07-.5a17.49,17.49,0,0,1,1-3.4c0-.07-.08-.08-.1,0a24.69,24.69,0,0,0-1.27,4.77C56.23,8.2,56.36,8.17,56.39,8.12Z"/><path class="cls-1" d="M54,5.09a14,14,0,0,0-1.52,3.68c0,.13.16.1.19,0A17.6,17.6,0,0,1,54.2,5.17C54.28,5,54.08,5,54,5.09Z"/><path class="cls-1" d="M52.87,9.47A11.74,11.74,0,0,1,54,6.31c0-.07-.08-.07-.11,0A10.66,10.66,0,0,0,52.7,9.47C52.68,9.59,52.86,9.56,52.87,9.47Z"/><path class="cls-1" d="M53.29,12.57l.05-.17c.06-.17.13-.35.21-.52s.14-.3.21-.44-.08-.12-.12,0a5.25,5.25,0,0,0-.5,1.11c0,.17.06.33.22.2S53.39,12.52,53.29,12.57Z"/><path class="cls-1" d="M64.4,7.07a12.29,12.29,0,0,0-1.72.25s-.08.09,0,.09h.18s0,0,.06,0a10.59,10.59,0,0,1,1.48-.23C64.43,7.13,64.45,7.07,64.4,7.07Z"/><path class="cls-1" d="M61,8.34q2.55-.47,5.06-1.17s0-.09,0-.07q-2.5.66-5.06,1.08C60.91,8.2,60.89,8.37,61,8.34Z"/><path class="cls-1" d="M60.08,9.17c1.55-.36,3.07-.93,4.61-1.33.06,0,.06-.08,0-.07A30.43,30.43,0,0,0,60.06,9C60,9.06,60,9.19,60.08,9.17Z"/><path class="cls-1" d="M59.16,10.8a15.2,15.2,0,0,1,4.61-.36c.1,0,.2-.19.07-.2a13.42,13.42,0,0,0-4.68.4C59.06,10.67,59,10.83,59.16,10.8Z"/><path class="cls-1" d="M58,11.42a3.15,3.15,0,0,1-.59.28c-.11,0-.21.2-.08.21.52,0,1.23-.5,1.71-.68a6.42,6.42,0,0,1,3.38-.44c.1,0,.2-.16.08-.18a5.52,5.52,0,0,0-2.46.11,12.06,12.06,0,0,0-1.29.41Z"/><path class="cls-1" d="M62,11.35c-1.77.35-3.53.74-5.28,1.15-.08,0-.13.18,0,.17l.92-.05c.07,0,.12-.13,0-.13h-.22c1.51-.39,3-.76,4.57-1.09C62,11.39,62,11.34,62,11.35Z"/><path class="cls-1" d="M58.32,13.48l-3.56,1.28c-.07,0-.14.18,0,.16l.41,0c.05,0,.09-.09,0-.12l3.16-1.17C58.42,13.57,58.41,13.45,58.32,13.48Z"/><path class="cls-1" d="M53.61,15.89c-.1,0-.06.19,0,.14.87-.33,1.71-.76,2.55-1.14,0,0,0,0,0,0C55.34,15.22,54.45,15.51,53.61,15.89Z"/><path class="cls-1" d="M51.49,17.35l1.23-.52s0,0,0,0l-1.24.5S51.45,17.37,51.49,17.35Z"/><path class="cls-1" d="M54.15,17.49c.05,0,.07-.16,0-.15a8.43,8.43,0,0,0-2.62.83c-.11,0-.06.21.06.15a9.43,9.43,0,0,1,2.24-.77,8,8,0,0,1-1.32.51c-.51.18-1,.36-1.53.57-.11,0-.12.23,0,.18.64-.22,1.27-.48,1.9-.72A3.59,3.59,0,0,0,54.15,17.49Z"/><path class="cls-1" d="M49.43,20.22c.93-.51,1.82-1.09,2.77-1.56.11-.05.11-.26,0-.19A15.85,15.85,0,0,0,49.35,20C49.25,20.09,49.29,20.29,49.43,20.22Z"/><path class="cls-1" d="M62.63,17.52a16.88,16.88,0,0,0-5.34.57s0,.06,0,.05a16.91,16.91,0,0,1,5.3-.55S62.69,17.52,62.63,17.52Z"/><path class="cls-1" d="M47.14,23.33c.85-.35,1.71-.66,2.58-.95,0,0,0-.05,0,0-1.16.38-2.31.81-3.44,1.28-.31.12-1.53.41-1.54.83,0,.05,0,.06.08.05l.51-.17a.06.06,0,1,0,0-.11c-.66.21.33-.23.45-.29C46.21,23.72,46.67,23.52,47.14,23.33Z"/><path class="cls-1" d="M45.56,25l.57-.25,1.08-.46c.82-.34,1.64-.66,2.46-1,.11,0,.12-.23,0-.18-1.1.4-2.2.82-3.29,1.25-.4.17-1.39.33-1.57.77,0,.05,0,.13,0,.16l.07,0s.11,0,.14-.05l0,0a.12.12,0,0,0,0-.15A.72.72,0,0,0,45.56,25Z"/><path class="cls-1" d="M48.48,25.88c.1-.05.08-.21,0-.17-.6.19-1.18.39-1.76.61,0,0,.07-.13,0-.11q-.72.18-1.44.39L47,25.72c.08,0,.14-.24,0-.2l-.28.06.92-.36c.1,0,.13-.24,0-.21q-.57.1-1.14.24l2.2-.92c.09,0,.07-.2,0-.16L44.09,26c-.14.05-.11.29.06.23s.41-.14.61-.21h.06l-.13,0c-.17.06-.16.37.05.31s2.49-1,1.18-.35c-.7.34-1.4.67-2.11,1-.21,0-.33.07-.37.17l-.53.24c-.15.07-.11.32.07.24.45-.2,4.3-1.74,2.54-.88l-.12.06-1.09.37a.15.15,0,0,0-.08.16c-.52.25-1,.5-1.54.78-.11.06-.06.22.06.15l1.93-1a15.22,15.22,0,0,0,2.42-.79l1.41-.34a32.73,32.73,0,0,1,5.92-.75c.12,0,.22-.25.07-.24a31.2,31.2,0,0,0-6.33.84Z"/><path class="cls-1" d="M42.1,30.22c.14-.06.11-.29-.05-.22l-.77.32c-.14.05-.11.29,0,.22Z"/><path class="cls-1" d="M41.12,30.76c.05,0,.12-.06.07-.09S41.06,30.73,41.12,30.76Z"/><path class="cls-1" d="M44.57,33.84c-1.08.31-2.16.67-3.23,1a8.77,8.77,0,0,0-2.43,1.05s0-.05,0,0h0a5.29,5.29,0,0,0,1.26-.83c.1-.1,0-.23-.13-.13-1.12,1-2.85,1.51-4.17,2.28-.1.06-.07.24.06.19.8-.35,1.57-.8,2.35-1.2l.36-.18h.25c-.15.16,0,.54.24.36a9,9,0,0,1,2.67-1.17c1-.34,1.91-.65,2.86-1C44.76,34.15,44.8,33.77,44.57,33.84Z"/><path class="cls-1" d="M37.65,36.8c-.87.41-1.74.85-2.57,1.34-.08,0-.08.2,0,.16l.7-.26c.09,0,.06-.17,0-.14l0,0c.63-.38,1.27-.74,1.94-1.07A0,0,0,0,0,37.65,36.8Z"/><path class="cls-1" d="M40.94,31.68,43,30.73c.07,0,0-.11,0-.08l-2.05.9C40.81,31.59,40.84,31.73,40.94,31.68Z"/><path class="cls-1" d="M52,31.89c-1.4.41-2.8.84-4.18,1.32-.15,0-.17.33,0,.28,1.39-.42,2.78-.83,4.18-1.22C52.18,32.22,52.19,31.83,52,31.89Z"/><path class="cls-1" d="M52.26,33.89c-2.3.55-4.59,1.14-6.87,1.74-.1,0-.12.19,0,.16,2.3-.61,4.6-1.21,6.88-1.87C52.29,33.92,52.28,33.89,52.26,33.89Z"/><path class="cls-1" d="M50.44,34.89a50.24,50.24,0,0,0-6.32,2.31c-.13.06-.12.29,0,.22a48.55,48.55,0,0,1,6.28-2.17C50.63,35.2,50.65,34.82,50.44,34.89Z"/><path class="cls-1" d="M47.32,37.56c-1.65.6-3.33,1.11-5,1.66-.06,0-.06.1,0,.08,1.69-.48,3.35-1.1,5-1.72C47.35,37.58,47.34,37.56,47.32,37.56Z"/><path class="cls-1" d="M44,39.93a13,13,0,0,0-1.64.52c-.08,0-.15.19,0,.2.28,0,.56,0,.84,0,.1,0,.16-.15,0-.17l-.4,0c.4-.15.79-.3,1.2-.42C44,40,44,39.91,44,39.93Z"/><path class="cls-1" d="M43.71,41.63a2.45,2.45,0,0,0-.72.52c-.08.08,0,.15.11.07a2.3,2.3,0,0,1,.64-.47C43.81,41.71,43.8,41.59,43.71,41.63Z"/><path class="cls-1" d="M45.76,42.71A22.49,22.49,0,0,0,43,44.2c-.07,0-.1.21,0,.19L44.72,44c.1,0,.12-.19,0-.17l-1.24.23a22.92,22.92,0,0,1,2.32-1.3C45.86,42.77,45.82,42.68,45.76,42.71Z"/><path class="cls-1" d="M42.73,45.79c.15.08.32-.22.17-.3S42.57,45.7,42.73,45.79Z"/><path class="cls-1" d="M38.94,44.43l-1.59.39s0,0,0,0l1.59-.36C39,44.49,39,44.42,38.94,44.43Z"/><path class="cls-1" d="M37.68,44.87l-3.24,1s0,.09,0,.07l3.24-1S37.73,44.86,37.68,44.87Z"/><path class="cls-1" d="M38.1,42.44a3,3,0,0,0,.71-.26c.07,0,.15-.19,0-.21a5.4,5.4,0,0,0-1.5.11l-1,.18a3.82,3.82,0,0,0-1.18.24.05.05,0,0,0,0,0h0c-.06,0-.13,0-.17.05l0,0s0,.11,0,.14c.32.2,1.06-.12,1.41-.18a12.19,12.19,0,0,1,1.89-.3l-.12,0C38,42.25,38,42.48,38.1,42.44Z"/><path class="cls-1" d="M40.22,40.37q-2.64.5-5.25,1.17c-.06,0-.06.1,0,.08q2.6-.67,5.23-1.15C40.27,40.46,40.3,40.35,40.22,40.37Z"/><path class="cls-1" d="M49.14,37.77c.21-.1.41-.25.62-.37l.56-.32s0,0,0,0a6.72,6.72,0,0,0-1.24.59A.08.08,0,1,0,49.14,37.77Z"/><path class="cls-1" d="M59.37,27s0,0,0,0S59.35,27,59.37,27Z"/><path class="cls-1" d="M54.29,27.68l.94-.27c.08,0,.07-.14,0-.11l-1,.28C54.19,27.6,54.2,27.71,54.29,27.68Z"/><path class="cls-1" d="M50.82,29.75c-.11,0-.12.22,0,.17a39,39,0,0,1,6.31-1.47c.11,0,.17-.22,0-.2A29.58,29.58,0,0,0,50.82,29.75Z"/><path class="cls-1" d="M57.31,29.7a7.59,7.59,0,0,1-1.42.28s0,0,0,0a7.89,7.89,0,0,0,1.43-.29S57.32,29.69,57.31,29.7Z"/><path class="cls-1" d="M52.78,30.63s-.09,0-.05.06S52.82,30.65,52.78,30.63Z"/><path class="cls-1" d="M55.45,31c-.69.13-1.38.28-2.08.37-.11,0-.19.23,0,.25a11.53,11.53,0,0,0,1.44,0c.13,0,.23-.24.07-.24s-.4,0-.6,0l1.22-.3C55.52,31.05,55.52,31,55.45,31Z"/><path class="cls-1" d="M47.72,30.51l-1.33-.14-.66-.07.43-.05c1-.17,2-.31,2.94-.44,0,0,0,0,0,0-1.21.13-2.41.3-3.61.5,0,0-.1.08,0,.09.75.08,1.5.14,2.25.2A0,0,0,1,0,47.72,30.51Z"/><path class="cls-1" d="M46.23,31.42s.12-.05.06-.08S46.17,31.39,46.23,31.42Z"/><path class="cls-1" d="M32.62,35.41c-.07.21-.14.42-.2.62,0,0,0,0,0,0l.21-.62S32.63,35.4,32.62,35.41Z"/><path class="cls-1" d="M30.46,30.75l.23-.43c0-.06-.07-.06-.1,0-.28.52,0-.07.06-.17.13-.4.26-.81.38-1.21l.68-2.12s-.05,0-.06,0l-1.29,3.93C30.34,30.79,30.43,30.79,30.46,30.75Z"/><path class="cls-1" d="M31.13,27.55A22,22,0,0,0,30,31.46c0,.12.22.15.26.08l.12-.19c0-.06-.07-.16-.12-.17a21.12,21.12,0,0,1,1-3.59C31.27,27.54,31.15,27.51,31.13,27.55Z"/><path class="cls-1" d="M24.07,42.12c-.07,0-.19.08-.11.12S24.15,42.16,24.07,42.12Z"/><path class="cls-1" d="M17.71,62.44c-.09,0-.22.1-.12.15S17.81,62.49,17.71,62.44Z"/><path class="cls-1" d="M18.28,61.11s-.13,0-.1.06l.39.72c0,.06.16,0,.12-.08Z"/><path class="cls-1" d="M19.4,59.66s-.1,0-.08,0l.27.45s.09,0,.07,0S19.49,59.81,19.4,59.66Z"/><path class="cls-1" d="M19.89,58.11s-.09,0-.07,0l.31.53s.1,0,.08,0Z"/><path class="cls-1" d="M14.29,76.88s-.12.05-.06.08S14.35,76.91,14.29,76.88Z"/><path class="cls-1" d="M18.13,80.6c-.09,0-.22.11-.12.16S18.23,80.65,18.13,80.6Z"/><path class="cls-1" d="M18.6,80.87a10.31,10.31,0,0,0,1.19.74c.1,0,.23-.12.12-.17-.42-.2-.85-.4-1.26-.63C18.61,80.79,18.56,80.84,18.6,80.87Z"/><path class="cls-1" d="M7.92,66.68s.06,0,0,0S7.9,66.67,7.92,66.68Z"/><path class="cls-1" d="M12.24,63.34c-.1-.05-.23.12-.13.17S12.34,63.4,12.24,63.34Z"/><path class="cls-1" d="M12.32,60.39c-.09,0-.21.11-.12.16S12.42,60.45,12.32,60.39Z"/><path class="cls-1" d="M7.49,64.12a4.32,4.32,0,0,1,.77-.77c.06-.05,0-.1-.06-.06a4.26,4.26,0,0,0-.84.75C7.28,64.14,7.43,64.21,7.49,64.12Z"/><path class="cls-1" d="M13.55,68.51c0-.05-.1,0-.09,0a11.63,11.63,0,0,0,.77,1.9c0,.07.17,0,.13-.09A12.2,12.2,0,0,1,13.55,68.51Z"/><path class="cls-1" d="M14.37,70c0,.06.16,0,.12-.08a5.69,5.69,0,0,1-.85-2.36s0,0,0,0A6.07,6.07,0,0,0,14.37,70Z"/><path class="cls-1" d="M14.29,68.54s-.09,0,0,0S14.32,68.56,14.29,68.54Z"/><path class="cls-1" d="M16.43,69.87c.15.08.32-.19.17-.27S16.28,69.8,16.43,69.87Z"/><path class="cls-1" d="M18.33,71.75c0,.07.15,0,.12-.07a5.25,5.25,0,0,1-.32-1c0-.08-.15,0-.14,0A5.27,5.27,0,0,0,18.33,71.75Z"/><path class="cls-1" d="M20.35,72.63c.06,0,.14-.06.08-.1S20.29,72.6,20.35,72.63Z"/><path class="cls-1" d="M9.55,80.32s.1,0,.07,0L9,79.56s0,0,0,0Z"/><path class="cls-1" d="M7.43,80.61c.41.55.81,1.13,1.26,1.65.11.12.3-.08.22-.21l-.2-.29s0,0,0,0l-.09-.06c-.32-.44-.66-.86-1-1.29C7.54,80.22,7.33,80.47,7.43,80.61Z"/><path class="cls-1" d="M8.58,82.61h0s0-.06,0-.07c-.24-.39-.51-.77-.77-1.14-.1-.14-.31.08-.22.21l.42.58L7.68,82c-.07,0-.18.06-.11.11l.69.43.11.16c.05.06.11.07.16,0S8.64,82.64,8.58,82.61Z"/><path class="cls-1" d="M7.36,82.74s.07,0,0,0S7.33,82.72,7.36,82.74Z"/><path class="cls-1" d="M8.26,83.37s0,0,0,0S8.24,83.36,8.26,83.37Z"/><path class="cls-1" d="M34.79,41c.05,0,.12-.05.06-.08S34.73,41,34.79,41Z"/><path class="cls-1" d="M37.49,37.68c.08,0,.19-.08.11-.12S37.42,37.64,37.49,37.68Z"/><path class="cls-1" d="M40.59,35.78q-2.4,1-4.71,2.25s0,0,0,0c1.54-.8,3.11-1.55,4.7-2.23C40.65,35.81,40.63,35.76,40.59,35.78Z"/><path class="cls-1" d="M42.16,32.54c.24.12.4-.33.19-.44S42,32.43,42.16,32.54Z"/><path class="cls-1" d="M44.26,30.48l-2.06,1c-.11.06-.11.27,0,.2l2.07-.93C44.48,30.67,44.46,30.38,44.26,30.48Z"/><path class="cls-1" d="M37.85,20.71a.28.28,0,0,0,0-.18c.14-.38.27-.77.4-1.15,0,0,0,0,0,0a7.48,7.48,0,0,1,.94-1.15c.11-.12,0-.25-.14-.14A10.3,10.3,0,0,0,37,21a18,18,0,0,0-1.54,2.88h0c-.05,0-.08.07-.09.12l0,.15s0,0,0,.06h0c-.15-.2-.42-.29-.55,0a.36.36,0,0,0,0,.09c-.07,0-.13.06-.16.18s-.09.34-.14.51h-.07c.2-.68.42-1.36.66-2,0,0-.06,0-.08,0-.27.75-.52,1.5-.75,2.27a2.88,2.88,0,0,0-.13.31l.12-.48c0-.06.11-.41.17-.65l0,0a1,1,0,0,0,.14-.55c0-.06-.08-.05-.1,0a23.44,23.44,0,0,0-1.15,4.35c0,.08.05.1.11.08a9.84,9.84,0,0,0-.27,2.64c-.15.34-.28.68-.4,1,0,0,0,0,0,0a.28.28,0,0,0,0,.09,11.32,11.32,0,0,0-.42,1.74c0,.11.15.09.16,0a11.9,11.9,0,0,1,.23-1.19,7.55,7.55,0,0,0,0,1,.06.06,0,0,0,.08.06,1.25,1.25,0,0,0,0,.35A.11.11,0,0,0,33,34L33,34a.16.16,0,0,0,0-.18l0,0,0,0a5,5,0,0,0,.23-1.45.18.18,0,0,0,.3,0l.06-.08v.06a.2.2,0,0,0,.4,0,25.25,25.25,0,0,0,.49-3.55c0-.05,0-.1,0-.14-.13,1.21-.18,2.45-.21,3.59,0,.06,0,.09.06.1,0,.21-.07.43-.11.65s.23.16.25,0c.11-.72.24-1.43.37-2.14a.11.11,0,0,0,.11-.08q.51-2.09,1.14-4.11a.05.05,0,0,1,0,0,28.07,28.07,0,0,0-.4,4.3c0,.17.23.08.23-.06A47.34,47.34,0,0,1,36.57,26c.2-.78.43-1.53.68-2.28l0,0-.21.56a.13.13,0,1,0,.24.1c.17-.35.34-.69.5-1-.28.91-.48,1.85-.68,2.79,0,.13.17.09.19,0,.2-.81.4-1.61.63-2.39a17.26,17.26,0,0,0-.33,3.43c0,.16.21.1.22,0,0-1,.1-2.07.25-3.1a11.49,11.49,0,0,1,.22-1.17c.19-.29.36-.58.53-.88a15.88,15.88,0,0,0-.64,5.87c0,.15.24,0,.22-.09a11.19,11.19,0,0,1,.2-3.12.12.12,0,0,0,0-.08c0-.12,0-.24.05-.36.07-.35.15-.69.22-1,.07.15.26.21.34,0A27.74,27.74,0,0,0,41.15,18c0-.11,0-.31-.21-.27-.52.13-.79.75-1.06,1.17l-.24.38a.11.11,0,0,0-.1.06.83.83,0,0,1,0,.15c0-.22-.24-.42-.38-.15s-.21.44-.31.66a.11.11,0,0,0-.13.08l-.1.19c0,.08,0,.12,0,.14-.19.42-.37.84-.54,1.28l-.6,1.5-.11.12.81-2.08a.23.23,0,0,0,0-.23l.45-1.1c0-.05-.05-.06-.07,0-.15.35-.3.7-.44,1.05a.17.17,0,0,0-.28.07c-.08.14-.15.28-.22.42l0,0,.05-.14c.08-.19.17-.38.26-.58Zm-.18-.42c.14-.26.29-.51.44-.75-.1.29-.2.57-.31.86A.23.23,0,0,0,37.67,20.29Zm3-1.87A28.09,28.09,0,0,1,39,22.73c.06-.27.12-.54.17-.81l0-.05.25-.47a.12.12,0,0,0,0-.16c.25-.73.56-1.44.81-2.17,0,0,0-.06,0-.07A2.83,2.83,0,0,1,40.67,18.42Zm-7.53,13c0,.26-.1.52-.14.78s-.12.54-.18.84a7.21,7.21,0,0,1,0-1c.09-.3.2-.61.32-.91C33.13,31.26,33.13,31.36,33.14,31.47Zm2-2c.1-.5.21-1,.34-1.49,0,0,0,0,0,0l.26-.63C35.57,28,35.37,28.73,35.18,29.45Zm1.44-5.89a.83.83,0,0,1,.11-.17c-.1.26-.19.52-.29.79-.41,1.14-1.32,2.68-1.29,3.9a.1.1,0,0,0,.1.07h0c-.23.88-.43,1.76-.61,2.65.13-1.27.33-2.53.48-3.79l.24-.72.15-.34a.09.09,0,0,0,0-.05l0-.08c.32-.76.65-1.51,1-2.25A0,0,0,0,0,36.62,23.56Zm-2.84,6.18c0,.14-.06.29-.08.43a.16.16,0,0,0-.05-.08c0-.43.08-.85.15-1.28a.26.26,0,0,0,.06-.14c0-.1,0-.2,0-.3L34,28,34,28C33.9,28.59,33.83,29.16,33.78,29.74Z"/><path class="cls-1" d="M32.2,34.61c0-1.18.16-2.35.32-3.52,0-.05-.08,0-.09,0-.16,1.17-.27,2.35-.33,3.53C32.1,34.68,32.19,34.66,32.2,34.61Z"/><path class="cls-1" d="M11.84,52.13l.45-.39c.05,0,0-.09,0-.06l-.45.4S11.8,52.16,11.84,52.13Z"/><path class="cls-1" d="M11.44,52.73l.67-.61s0,0,0,0l-.67.61S11.41,52.75,11.44,52.73Z"/><path class="cls-1" d="M12,52.93l-.76.74s0,.1.06.06l.75-.74C12.13,52.94,12.07,52.89,12,52.93Z"/><path class="cls-1" d="M13.6,52.34s0,0,0,0S13.62,52.35,13.6,52.34Z"/><path class="cls-1" d="M11.4,54.2c.07,0,.16-.08.08-.12S11.32,54.16,11.4,54.2Z"/><path class="cls-1" d="M12.54,54.85s0,0,0,0l-.59.51s0,0,0,0Z"/><path class="cls-1" d="M13.59,54.8c-.87.63-1.7,1.3-2.5,2-.11.1,0,.29.1.19l.4-.29c.05,0,.07-.09.05-.13.65-.59,1.3-1.18,2-1.74C13.62,54.81,13.6,54.8,13.59,54.8Z"/><path class="cls-1" d="M13,55.93a13.82,13.82,0,0,0-1.63,1.42c-.09.09.05.16.13.08A13.2,13.2,0,0,1,13,56S13,55.91,13,55.93Z"/><path class="cls-1" d="M13.15,57.31s-.08,0,0,0S13.19,57.33,13.15,57.31Z"/><path class="cls-1" d="M13,58.74c.14.08.31-.18.17-.25S12.82,58.67,13,58.74Z"/><path class="cls-1" d="M13.86,59.5s.11,0,.06-.08S13.8,59.47,13.86,59.5Z"/><path class="cls-1" d="M13.51,60.29c-.59.51-1.22,1-1.78,1.55-.11.1,0,.21.12.13.61-.5,1.17-1.07,1.75-1.61C13.67,60.3,13.57,60.24,13.51,60.29Z"/><path class="cls-1" d="M7.44,62.39c.06,0,.14-.07.07-.11S7.37,62.35,7.44,62.39Z"/><path class="cls-1" d="M6,63l.7-.5c.08-.05,0-.14,0-.09l-.72.49C5.82,62.94,5.89,63,6,63Z"/><path class="cls-1" d="M2.53,61.4c.09.05.21-.1.12-.14S2.44,61.35,2.53,61.4Z"/><path class="cls-1" d="M46.23,45.37a12.8,12.8,0,0,0-1.72,1.09c-.08.07-.08.29.07.23.31-.12.6-.26.9-.41-.26.28-.53.54-.81.81s-.78.6-.73,1c-4,1.64-8.35,2.17-12.54,3.23a.8.8,0,0,1,.16-.08c1.35-.47,2.69-1,4-1.45,0,.12.07.23.21.19,1.27-.36,2.53-.8,3.79-1.22.61-.2,1.22-.42,1.84-.64a3.07,3.07,0,0,0,1.3-.58.14.14,0,0,0,0-.21h0c.46-.19.9-.38,1.33-.59,0,0,0,0,0,0l.25,0c.09,0,.09-.14,0-.11-1.42.34-2.84.77-4.24,1.24a.12.12,0,0,0-.17-.05l-4,1.5a.19.19,0,0,0-.05-.13c2.09-.79,4.18-1.56,6.26-2.37.08,0,.06-.16,0-.13-2.1.8-4.18,1.64-6.27,2.46a.11.11,0,0,0-.11,0c-1,.33-1.94.66-2.9,1a9.09,9.09,0,0,0-1.08.35c-.47.15-.93.29-1.39.45-.68.23-.28,0,0-.24,1-.38,2.05-.75,3.09-1.1.64-.22,1.29-.43,1.93-.63.28-.09,2.08-.74.79-.23-.08,0-.06.14,0,.11a3.42,3.42,0,0,0,.78-.41s0-.15,0-.12l-1,.31s0-.11-.09-.08q-3.32,1.11-6.57,2.4h0l.08,0,0,0,.63-.25c.15-.06.14-.32,0-.34l.08,0a.29.29,0,0,0,.16-.26l1.63-.64c-.07.09-.07.24.06.2.86-.29,1.72-.57,2.58-.83a.12.12,0,0,0,.2,0l.22-.19c.1-.08.07-.29-.09-.24-.65.2-1.3.42-1.94.64L34,48.55c.13,0,.17-.31,0-.26a27.17,27.17,0,0,0-3.92,1.37l0,0,.86-.42a.24.24,0,0,0,.09-.08q1.17-.42,2.37-.75c.11,0,.11-.22,0-.18-.77.23-1.52.49-2.27.77l.59-.24c1.18-.43,2.38-.8,3.58-1.19.21-.07.25-.54,0-.48s-.69.16-1,.25a.19.19,0,0,0-.25-.16l-.78.22.26-.12a.3.3,0,0,0,.09-.47L36,46c.22-.07.18-.51-.09-.43l-2,.63a.07.07,0,0,0-.09-.08,15.88,15.88,0,0,0-4.44,1.62h0l.64-.4c.11-.07.12-.29,0-.32a.11.11,0,0,1-.06,0,38.92,38.92,0,0,1,4.28-1.4c.23-.06.24-.54,0-.47A29.26,29.26,0,0,0,30,46.56l0-.06c.3-.16.69-.32.84-.4s.12-.18.06-.23l1.62-.47-.23.09c-.07,0-.06.13,0,.1.43-.15.86-.31,1.28-.48,1.49-.4,3-.77,4.5-1.08.16,0,.22-.35,0-.31-1,.21-2,.44-3,.69l.33-.16c.08,0,.09-.19,0-.18l-.09,0,2-.45c.93-.2,2.28-.77,3.19-.36,0,0,.13-.06.07-.08a3.32,3.32,0,0,0-2.13.09c-1.38.29-2.76.62-4.13,1-.05,0-.05.09,0,.08l.34-.08c-.84.25-1.62.68-2.47.87l.36-.14c.1,0,.06-.18,0-.16a8.27,8.27,0,0,1,1.17-.64c.14-.06.11-.3-.06-.23A6.58,6.58,0,0,0,31.89,45a4,4,0,0,1-.5.09c.36-.39.84-.64,1.23-1,.72-.22,1.43-.43,2.15-.63.12,0,.17-.27,0-.22-.64.18-1.27.37-1.9.57l0-.05s0-.13,0-.12a2.29,2.29,0,0,0-.36.07l.56-.4a.21.21,0,0,0,.08-.16s.06-.07,0-.09a0,0,0,0,0,0,0A.12.12,0,0,0,33,43h0l.36-.22c.08-.06.06-.2-.05-.14l-1.64.89c.46-.43.66-1,1.19-1.32.13-.06.07-.22.12-.32l0,0s.27.11.26.1c.16-.09.45-.11.62-.2s.08-.08,0,0-.25.16-.4.23a.23.23,0,0,0,0-.17l1.09-.75a.18.18,0,0,0,.08-.14c.55-.35,1.11-.69,1.69-1,.07,0,0-.15,0-.11-.58.3-1.15.61-1.71,1a.1.1,0,0,0-.13,0L32,42.32a.34.34,0,0,0-.08.43c-.22.19-.44.39-.65.6.7-1,1.4-2.05,2.13-3.07A12.57,12.57,0,0,1,36.42,39c.14,0,1.08-.2.45,0-.31.12-.61.29-.91.44a15.24,15.24,0,0,0-1.81,1.09h0s-.1,0-.08.08l0,0c-.11.08,0,.26.09.17a35.63,35.63,0,0,1,3.27-1.9.06.06,0,0,0,0-.08c-.39-.37-1.44.15-1.87.29l-.72.27a11,11,0,0,1,1.33-.78c.08,0,.07-.16,0-.12a5.29,5.29,0,0,0-1.52.85.09.09,0,0,0,0,.15,11.7,11.7,0,0,0-1.12.56q1.68-2.38,3.45-4.71c0,.15.12.29.26.29a1.21,1.21,0,0,0-.46.68c0,.28.31.37.36.08s.69-.7,1.22-1c2.09-.93,4.2-1.79,6.35-2.59a.11.11,0,0,0,.07-.08l.3-.09c.09,0,.12-.18,0-.15-.28.07-.56.16-.85.25a28.37,28.37,0,0,0-2.74.74c.68-.31,1.35-.61,2-.93.12-.06.19-.35,0-.31a16.81,16.81,0,0,0-3,1,.24.24,0,0,0-.1-.1l0,0s0,0,0-.06a4.71,4.71,0,0,0,.84-.42c.12-.08.11-.34-.08-.28-.57.19-1.14.38-1.7.62l.13-.09a.18.18,0,0,0,.08-.13s.07,0,.11-.07,0-.1,0-.1h-.1v0h0a.33.33,0,0,0,.1-.06h0l.09-.06,0,0c.19-.12.38-.24.58-.35,0,0,0,0,0,0l-.57.33s0,0-.07,0l-.08.06s0-.08-.09-.07l-.17,0c.06,0,0-.11,0-.09l-.22.09,0-.06c.14-.1.11-.09,0,0,.1-.11.19-.23.28-.35a.06.06,0,0,0,.09.07l1.06-.54c.08,0,.06-.17,0-.12l-1.06.52c.46-.58.92-1.15,1.39-1.72a15.87,15.87,0,0,0,1.85-.69c.39-.17.78-.36,1.16-.55a5.54,5.54,0,0,1,1-.36c-.1,0-.09.17,0,.13a.67.67,0,0,0,.36-.21s0-.09,0-.09a3.25,3.25,0,0,0-1.61.51c-.83.39-1.69.7-2.54,1,.39-.48.79-.95,1.19-1.43.09-.1-.07-.17-.15-.08Q39.85,31.13,37.55,34l-.09,0s0,.06,0,0a126.07,126.07,0,0,0-7.83,10.86l-.42.15c-.07,0-.06.13,0,.11l.3-.1C29,46,28.36,47,27.79,47.94a10.58,10.58,0,0,0-1.49,2,.4.4,0,0,0,0,.29c-.08.14-.16.28-.23.43l-.62.38s0,.06,0,0l.53-.32c-.08.16-.15.32-.23.47s-.3.58-.43.89l-.1.06c.11-.33.22-.66.34-1,.05-.15-.16-.15-.2,0l-.34,1.15a.17.17,0,0,0,0,.22,4.25,4.25,0,0,1-1.3-.44,1.35,1.35,0,0,0,0-.54,2.25,2.25,0,0,1,.11-.68,6.3,6.3,0,0,1,.56-1.21c.11-.2-.1-.44-.24-.21a3.34,3.34,0,0,0-.72,2.46l-.09,0,0,0c0-.09-.06-.1-.11,0l-.37-.25c-.13-.09-.31.18-.19.28l.33.28q-1.5,2-2.83,4.12c-.08-.1-.28.08-.23.22l0,.09A76,76,0,0,0,15.12,66l-.18-.2.22-.17c.09-.07,0-.19-.08-.14a3.79,3.79,0,0,0-.34.2l0-.18.36-.08c.16,0,.23-.34,0-.37a1.69,1.69,0,0,0-.33,0c.08-.53.15-1.07.2-1.61l.2-.08c.11,0,.13-.26,0-.22l-.16.05a12.31,12.31,0,0,0,0-1.92,9.43,9.43,0,0,0-.43-1.8,16.29,16.29,0,0,1-.48-3.68,25.22,25.22,0,0,0-.12-4.35c-.17-.73-2.75-.3-3.23-.29s-.31.65,0,.63l1.89-.07h.17a15.49,15.49,0,0,0-2.47,2c-.11.12,0,.23.14.14a18,18,0,0,1,2.7-2.06h0c.61.26.51,1.11.5,1.85,0,1.22,0,2.42.14,3.63-.53,0-1.06.66-1.44,1a17.1,17.1,0,0,0-1.6,1.47c0-.3-.09-.6-.13-.89l.15-.09a.19.19,0,0,0,.08-.16c.83-.74,1.63-1.53,2.43-2.3.06,0,0-.1-.08-.06a30.46,30.46,0,0,0-2.64,2.2c-.1-.82-.18-1.65-.26-2.47,1-.91,2-1.78,3-2.64h0c-1.05.78-2.06,1.61-3,2.47-.14-1.45-.26-2.89-.48-4.3a0,0,0,0,0,0,0c.27,2.37.3,4.8.52,7.19l0,0c-.08.07,0,.26.06.28,0,.36.08.72.13,1.09a.21.21,0,0,0,0,.19,16.94,16.94,0,0,0,1.47,5.1c-1-.9-2.13-1.71-3.18-2.55l-.59-.48a.11.11,0,0,0-.09-.07L6.59,60.86l-.18-.16c0-.06,0-.1-.1-.09a5.7,5.7,0,0,0-.67-.52h0s0,0,0,0h0a1.35,1.35,0,0,0-.51-.2c-2.3-.34-4.57.88-4.77,3.26a4.62,4.62,0,0,0,.44,2.5,9.45,9.45,0,0,0,1,1.78c.15.22.37,0,.35-.22a5.13,5.13,0,0,0,2.8.91c1.63,0,3.19,0,4.82.15a9.73,9.73,0,0,0,2.35,0,2.16,2.16,0,0,0,.13.41c.11.24.39,0,.32-.19a1.61,1.61,0,0,1-.09-.29,3.62,3.62,0,0,0,.47-.13A4,4,0,0,0,12.79,70c-.27.34-.53.7-.78,1.07a.09.09,0,0,0,0,0,22.84,22.84,0,0,0-2,3.63,6.26,6.26,0,0,0-.67-.27.12.12,0,0,0-.16.1.7.7,0,0,0-.48.27A.94.94,0,0,0,8.78,76a0,0,0,0,0,0,0l.38.34s-.06,0-.07,0c-.23.3-.46.62-.68.93l-.12-.11s-.07,0-.05,0l.13.14-.2.3v0c-.07-.1-.25,0-.19.13L8,77.9a44.74,44.74,0,0,0-3,5.3,1,1,0,0,0-1.41.18.83.83,0,0,0,.48,1.3.18.18,0,0,0,.16-.06l.4.31a.07.07,0,0,0-.06,0c-.73,1.18-1.46,2.36-2.17,3.56S.6,91.11.35,92.62c0,.14.19.1.21,0a6.3,6.3,0,0,1,.72-1.7l.62.86a.05.05,0,0,0,0,0A13.66,13.66,0,0,0,0,95c0,.06.07.07.1,0C1.31,93.42,2.15,92,3.82,90.77l0,0c.12,0,.22-.08.24-.2l.12-.08a6.73,6.73,0,0,0,2.23-3.35.17.17,0,0,0-.1-.24s0-.09,0-.12a5.32,5.32,0,0,0-.93-.45c-.13,0-.27.2-.12.25a5.69,5.69,0,0,1,.87.4h0L6,87.18a3.1,3.1,0,0,0-.56-.25c-.1,0-.21.15-.11.19a2.37,2.37,0,0,1,.56.26l-.27.51,0,0c-.11-.06-.24.14-.12.2h0a9.63,9.63,0,0,1-.78,1.25,4.36,4.36,0,0,1-1.14,1A2.73,2.73,0,0,1,3.1,90c-.12-.08-.29.11-.18.21s.26.2.39.29a5.48,5.48,0,0,0-.49.35,1.06,1.06,0,0,1-.39-.48,10.22,10.22,0,0,1,.83-1s0-.09-.08,0a11.18,11.18,0,0,0-.79.91.14.14,0,0,1,0-.06c0-.2-.27-.07-.26.09a.92.92,0,0,0,.05.28c-.13.18-.25.36-.37.55s.11.13.16,0,.18-.29.28-.43a1,1,0,0,0,.35.4l-.2.2c-.1.11-.19.23-.28.34s0,0,0,0l-.73-.81c.54-.86,1.2-1.67,1.69-2.48A30.17,30.17,0,0,0,4.72,85v0A11.68,11.68,0,0,0,8.6,86.82c.19.05.31-.17.26-.34a3.9,3.9,0,0,0-.48-1.09.42.42,0,0,0-.17-.56l-.13-.07A54.2,54.2,0,0,0,12,78a1.66,1.66,0,0,0,.94-.18.6.6,0,0,0,.07-.93c.07-.12.08-.31,0-.38L12,75.92a.23.23,0,0,0,0-.24,1.67,1.67,0,0,1-.29-.31l.71.47c.18.12.3-.14.26-.31.16,0,.29-.22.22-.38a2.56,2.56,0,0,1-.11-.24c.05,0,.11,0,.16-.08s.26-.2.2-.33l0-.07.15-.46c.1,0,.2,0,.21-.21s.05-.34.08-.51h.12c-.1.45-.19.9-.25,1.35l0,0c-.24.35-.41.75-.64,1.11-.11.18.12.32.23.14a6.38,6.38,0,0,0,.37-.74,7.57,7.57,0,0,0,1.09,5.24c.78,1.15,2.54,1.23,3.76,1.5,1,.22,2.89,1,3.86.33,1.84-1.29,1.53-4.86.61-6.64a4.9,4.9,0,0,0-.38-.62c.45.42.91.83,1.39,1.2a.13.13,0,0,0,0,.06.14.14,0,0,0,.24.13l.33.24v0c0,.18.13.22.23.13A7.89,7.89,0,0,0,27,77.88c0,.21-.08.42-.1.64s.31.36.37.06.11-.41.16-.62l.43.06c.46,0,.3-.72-.09-.74h-.11a7.15,7.15,0,0,1,2.52-3.37.3.3,0,0,0,0-.5,38.87,38.87,0,0,1-6.44-3L23.09,70s.38.18.39.17.33.15.31.18h0c-1.69-1.08-2.24-1.72-3.33-2.08A16.08,16.08,0,0,0,18,67.66c2.62-4.78,4.94-9.72,7.77-14.39a4.52,4.52,0,0,1,1,.27c.24.1.3-.29.17-.49l2-.76a.18.18,0,0,0,.07,0c4.92-1.54,10.15-2,14.91-4,.07.12.25,0,.27-.13s.32-.13.47-.21,0-.11,0-.08l-.42.18a7.28,7.28,0,0,1,1.12-1,7.34,7.34,0,0,0,1-1.19C46.48,45.62,46.45,45.24,46.23,45.37Zm-3.74,2,0,0v0a.1.1,0,0,0,0,.09l-.67.13ZM40.34,33.57l0,0c.54-.22,1.09-.43,1.65-.6l-1.83.84a.36.36,0,0,0,0-.11Zm-.8.84.56-.19-.35.14s0,.06,0,0c1.05-.4,2.11-.75,3.17-1.09-1.32.51-2.63,1-3.93,1.61a.37.37,0,0,0,0-.23Zm-.49-1.79h.23c-.17.12-.34.24-.52.35Zm-.87,1.11.16-.08,0,0h.09l-.28.16a.26.26,0,0,0-.1.27l-.12.06a.25.25,0,0,0-.13.18l-.24.13Zm-6.12,10.7a6,6,0,0,0-.8.61.13.13,0,0,0,0-.12Zm-1,1a.23.23,0,0,0,.08-.17.06.06,0,0,0,.05,0l.44,0a.19.19,0,0,0,0,.18l-1,.33Zm0-1.89a.33.33,0,0,0,.07.28c-.16.1-.32.19-.47.3Zm-5.72,9.05a1.89,1.89,0,0,0,.2-.27l.09,0a.43.43,0,0,0,0,.12.25.25,0,0,0,0,.08l-.22.14h-.06ZM14.59,66.07a.13.13,0,0,0,.09,0s0,0,0,0l.25.3,0,.08c-.12.29.26.74.41.38l0-.07c.14.12.29.25.44.36a2.58,2.58,0,0,0-1.12,1.71,22.87,22.87,0,0,1-.51-2.29Q14.37,66.3,14.59,66.07Zm0-1.08a2.59,2.59,0,0,0-1.78.66c-.08-.13-.14-.26-.21-.39a2.05,2.05,0,0,0,.54-.1,9.09,9.09,0,0,0,1.25-.3c.13,0,.18-.29,0-.29h0c.17-.11.17-.49-.06-.44s-.46.11-.69.15a3.59,3.59,0,0,0-.46,0s0-.1.05-.15l.2-.11a1.9,1.9,0,0,0,.41,0c-.06,0-.13.09-.19.15l.16.13c.18-.11-.28-.46.72-.11h0l-.14-.12L14.3,64c.06,0,0-.16-.05-.15s-.24,0-.35,0l.86-.38C14.72,64,14.66,64.49,14.61,65ZM11.48,62.4c-.11-.39-.21-.78-.3-1.18a.12.12,0,0,0,.13,0,4.84,4.84,0,0,1,1.5-.41c.14,0,.23-.29.06-.27a5.44,5.44,0,0,0-1.64.43.13.13,0,0,0-.08.1c-.08-.35-.15-.71-.21-1.07.36-.32.69-.67,1-1s1.41-1.53,1.93-1.52h0a8.11,8.11,0,0,0,.14.86l-1.76,1.4c-.39.11-.76.22-1.14.36-.08,0-.07.18,0,.15.26-.09.53-.18.79-.25l-.84.69c-.13.11,0,.31.12.19l1.15-1,.37-.09c.12,0,.12-.22,0-.19h0l1.36-1.12a17.11,17.11,0,0,1,.7,3.67c0,.34,0,.69-.05,1a6.74,6.74,0,0,0-.74.3c.07-.07.11-.25,0-.24h-.1c.18-.19.36-.37.48-.52a1.85,1.85,0,0,0,.3-.51c.05-.13-.2-.22-.1-.38s-.06-.11-.11-.05a.61.61,0,0,0-.07.14h0l-.81.09.47-.43c.14-.12,0-.34-.15-.2l-.73.68-.66.1.18-.18a.2.2,0,0,0,.13-.14,18.78,18.78,0,0,1,1.39-1.29c.08-.07,0-.17-.07-.11a15,15,0,0,0-2,1.78l-.51.08S11.5,62.38,11.48,62.4Zm.49.89a4.77,4.77,0,0,1-.41-1.74h0c.1,0,.19.48.29.46-.11.14,0,.6.14.45s.15,0,.23-.11.39,0,.58,0c0,0,0,.07,0,.09s.08.32.19.22a.4.4,0,0,1,.24-.11h0a6.69,6.69,0,0,0,1.14-.26s.07-.08.09-.12c.19.35-.55.91-.88,1.19-.51.09-1,0-1.52.12C12,63.49,12,63.26,12,63.29Zm.31,1.29c-.08-.19-.17-.38-.25-.58a8.91,8.91,0,0,0,.89.08,1,1,0,0,0,0,.1ZM12,65.8s-.12.2-.14.21-.1.16-.11.16l-.14-.08c-.17-.09-.24.07-.08.16-.06.06-.08,0-.14.08a.31.31,0,0,0,.07-.09c.08-.08,0-.23-.08-.18v-.24a.15.15,0,0,0-.12-.16h-.07v0c0-.15,0-.38-.22-.34a.8.8,0,0,0-.44.32,4.87,4.87,0,0,0-.4.5l-.57-.34.21,0c.21,0,.27-.31.17-.46.22-.19.46-.32.54-.13s.3,0,.25-.14a.42.42,0,0,0-.54-.33c0-.19-.09-.41-.31-.29l-.56.31a3.15,3.15,0,0,1,.19-.27c.17-.22-.06-.65-.31-.39a1.41,1.41,0,0,0-.53,1.14L8.34,65c0-.06-.11.11-.17.08s-.24.26-.26.25h0c.53-.85.48-.64.67-.84s.47-.46.64-.67A32.51,32.51,0,0,0,12,65.8Zm-.57.46a2.88,2.88,0,0,0-.33.43l-.29-.17a2.55,2.55,0,0,0,.17-.33.69.69,0,0,1,.13-.11c0,.08,0,.16,0,.24s.16.06.21,0ZM7,67v.1l-.07,0a.14.14,0,0,0-.11,0,.5.5,0,0,0,0-.12l.27-.15A.24.24,0,0,0,7,67Zm-.53-.13c-2.16.2-5.94-1.55-5-4.2,1-1.31,3.45.49,4.43,1.22l.34.26a.12.12,0,0,0,.16.12c.62.46,1.25.94,1.9,1.39-.22.13-.43.28-.65.43A9.84,9.84,0,0,1,6.47,66.88Zm1.65-4.19,1.05.88a2.65,2.65,0,0,0-.54.41A5,5,0,0,0,8,64.7l-.25-.17a.24.24,0,0,0,0-.12l0-.11c-.06-.17-.21-.11-.28,0l-.52-.37.21-.19a5.81,5.81,0,0,1,.78-.51c.08-.05.06-.19,0-.13l-.28.16ZM6.17,61.06a.06.06,0,0,0,0,.08l.09.09s.07,0,.09,0c.36.3.69.61.93.8l.57.46-.69.63A.12.12,0,0,0,7.09,63c-.16-.09-.33.23-.16.32H7c-.13.13-.26.26-.38.4-.38-.29-.76-.6-1.15-.89a10.22,10.22,0,0,1,.81-.69l0,0c.12.07.23-.08.23-.21l.14-.09c.14-.08.11-.32-.07-.23a2.72,2.72,0,0,0-1.31,1h0c-.86-.51-.7-.46-1.06-.64a.13.13,0,0,0,.1,0c.59-.37,1.21-.67,1.81-1ZM4,60.42a.11.11,0,0,0,.11.07l.24,0a.17.17,0,0,0,.14-.11l.14,0a1.12,1.12,0,0,1,.46.08s0,.09,0,.11.1,0,.13-.06a4.79,4.79,0,0,1,.56.33l-.27.13h0l-.35-.05s-.06.06,0,.07l.29,0c-.44.23-.87.5-1.28.76a.17.17,0,0,0,0,.27,3.88,3.88,0,0,0-1.47-.41,1.6,1.6,0,0,0-.67.11l.26-.23a.13.13,0,0,0,.14-.12,13,13,0,0,1,1.2-.86ZM1.29,62.25l-.39.42s0,.07.07,0-.13.24-.19.36a2.9,2.9,0,0,1,2.13-2.38l.33-.09c-.3.21-.75.73-.88.66h0c-.09,0-.18.06-.17.15-.23.19-.45.39-.67.6A2.61,2.61,0,0,0,1.29,62.25Zm.08,3.49a3.33,3.33,0,0,1-.28-2.06,2.53,2.53,0,0,1,.31-.85c-.85,2.25,1.74,4.06,4,4.47a3.62,3.62,0,0,1-2.08-.24s0,0,0,0a2.91,2.91,0,0,0,.94.46A3.38,3.38,0,0,1,1.37,65.74Zm3.76,1.87A3.46,3.46,0,0,0,6,67.38a4.33,4.33,0,0,0,.63,0,.11.11,0,0,0,.1,0l0,0a.92.92,0,0,0,.25.09c0,.06,0,.12,0,.18C6.4,67.62,5.74,67.64,5.13,67.61Zm2.29,0h0a1.7,1.7,0,0,1,0-.22.45.45,0,0,0,.29-.28c0-.08-.08-.07-.11,0a.2.2,0,0,1-.2.12,2.26,2.26,0,0,1,0-.26c0-.17-.11-.22-.21-.18.36-.21.73-.42,1.1-.6a.19.19,0,0,0,0,.08,4.18,4.18,0,0,0,.32,1.41ZM9,67.72c-.08-.23-.17-.46-.24-.69s-.09-.31-.13-.48l.13.08c.12.38.27.74.42,1.1Zm1.49.07-.25-.48s0,0,0,0,.07-.05.06-.09l0-.12s0,0-.09,0L10,66.86s0-.25,0-.28.07-.19.06-.2h0a1.4,1.4,0,0,0-.1.16l0,.09c-.05,0-.16.06-.16.12a2.13,2.13,0,0,0,.16.6c0,.11.07.23.11.35a.11.11,0,0,0-.06.07l-.55,0a.19.19,0,0,0,0-.19l-.3-.64s0,0,0,0h0L9,66.76s.06-.08,0-.11A.19.19,0,0,1,9,66.6c-.1-.2-.2-.39-.31-.58l.11,0a13.39,13.39,0,0,0,1.83,1,1.74,1.74,0,0,0,0,.6.68.68,0,0,0,0,.19Zm.49,0c0-.11-.1-.21-.14-.33a1.07,1.07,0,0,1,0-.4l.32.13a.2.2,0,0,0,.2.08l.06,0-.12,0h0s.14,0,.16.08a1.21,1.21,0,0,0,.19,0h0c.06,0,0,.24,0,.3s0,.11,0,.14C11.33,67.78,11.13,67.8,10.93,67.8Zm.62-.87a2.13,2.13,0,0,1,.59-.57l0,0h.05a3,3,0,0,0-.32.64.17.17,0,0,0,0,.1Zm.31.87c0-.11-.07-.22-.1-.33s.2.07.3.09,0,.15,0,.23Zm1.24-.25h0c-.1,0-.19.07-.29.09s0,0,0,0l-.37-.2a1.77,1.77,0,0,1,.39-.87c.13.12.28,0,.33-.12a.08.08,0,0,0,0-.1v0a.2.2,0,0,0,.11-.07,1.54,1.54,0,0,1,.17-.19,2.07,2.07,0,0,1,.91-.21c.08,0,.15-.13,0-.14a1.86,1.86,0,0,0-.41,0,3.58,3.58,0,0,1,.58-.19c0,.1,0,.15,0,.25A3.19,3.19,0,0,0,13.1,67.55ZM8.26,78.22l.22.32c-.07,0-.12.13-.07.19.47.64,1,1.24,1.51,1.83l-.34.68-.15-.17a0,0,0,0,0,0-.07l-.22-.19a13.94,13.94,0,0,1-1.05-1.38c0-.05-.12,0-.09,0s.21.33.32.48a0,0,0,0,0,0,0,5.89,5.89,0,0,0,.68.88c.15.18.29.36.44.53-.55,1.09-1.07,2.2-1.59,3.28-.62-.3-1.28-.5-1.91-.75a7.05,7.05,0,0,1-.73-.36C6.3,81.82,7.32,80,8.26,78.22Zm.32-.6.76.83a3.3,3.3,0,0,0,.43,1.36c.09.2.35-.07.27-.24s-.11-.24-.16-.37c.1.18.18.36.41.36l.08,0,.06.06c-.12.21-.23.43-.35.65-.59-.73-1.15-1.49-1.69-2.26C8.45,77.86,8.52,77.74,8.58,77.62Zm.21-.4.18.27a.26.26,0,0,0,0,.08l.42.67,0,.05-.76-.75Zm1.73,1.32a.1.1,0,0,0,.07,0l.28.2,0,0-.09.16Zm.18-.86s.06,0,0-.06a1.54,1.54,0,0,0-.17-.19l.24.15a.15.15,0,0,0,.19-.07l.25.19c-.05.09-.05.21.06.24h.06l-.17.28A2.89,2.89,0,0,0,10.7,77.68Zm0,0a.08.08,0,0,0-.08,0l0,0-.45-.45s-.12,0-.08.07l.06.06a.14.14,0,0,0-.12.12L9.41,77s0,0,0,0l-.12-.05s-.11,0-.08.06a5.06,5.06,0,0,0,.61.79c-.13-.11-.26-.22-.38-.34l-.39-.49A.15.15,0,0,0,9,76.82c.07-.13.14-.26.2-.39v0a11.84,11.84,0,0,0,1.14.87C10.44,77.39,10.56,77.52,10.66,77.65ZM8.27,86.21a9.83,9.83,0,0,1-3.86-1.83l-.07,0a.2.2,0,0,0-.16-.18c-.37-.05-.42-.42-.2-.67a1,1,0,0,1,1-.17l0,0-.06,0a.25.25,0,0,0-.19,0l0,0h0a.2.2,0,0,0-.1.15s0,0,0,.06a.14.14,0,0,0,.09.14l.12.08A.16.16,0,0,0,5,84a3.25,3.25,0,0,0,.38.31,6.79,6.79,0,0,0,.75.41l.57.28c-.06.17,0,.43.23.38a1,1,0,0,1,.67.08h0A1.52,1.52,0,0,1,8.27,86.21Zm4.35-9.31c-.13.12-.13.42.05.47s-.26.18-.29.19l-.23,0c0-.23-.2-.78-.38-.51-.06.1-.11.06-.16.06h0s0,0-.06,0c-.75-.53-1.51-.94-2.28-1.45,0-.06-.06,0-.11-.07A.38.38,0,0,1,9,75a.51.51,0,0,1,.41-.13l.06.08a.05.05,0,0,0,.09,0,.52.52,0,0,1,.18.1.1.1,0,0,0,.09,0l0,.09c-.12.28.23.48.36.19a1,1,0,0,1,0-.1C11,75.76,11.8,76.38,12.62,76.9Zm-.73-2.55c-.1-.1-.24,0-.27.13a.67.67,0,0,0,.09.51l-.34-.2c-.12-.08-.25.11-.23.22a1.82,1.82,0,0,0,.16.43c-.31-.2-.63-.39-1-.56.18-.37.36-.75.55-1.12a6.76,6.76,0,0,0,.46.72c.05.06.17,0,.12-.08a5.6,5.6,0,0,1-.51-.76h0c.29-.57.59-1.13.9-1.69a5.27,5.27,0,0,0,.39,1s.07,0,.05,0a4.88,4.88,0,0,1-.43-.93l.26-.47a6.73,6.73,0,0,0,.63,1.06,7.6,7.6,0,0,1-.19,1l-.17-.33c0-.07-.17,0-.15.09l.18.46s0,.08,0,.13l-.34-.32c-.11-.1-.23,0-.26.15l-.3-.65s-.06,0,0,0c.12.25.24.51.35.77l.32.78ZM13,69.89c.06.08.12.17.19.25a.29.29,0,0,0-.15.2.25.25,0,0,0-.19.14h0s0,0,0,0v0h-.07s0,0,0,0a.66.66,0,0,0,0,.14.15.15,0,0,0-.06.1,5.24,5.24,0,0,0,0,1.31c-.15-.25-.29-.5-.42-.76L13,69.92A0,0,0,0,0,13,69.89Zm-.3,3.9,0-.14a.14.14,0,0,0,0-.13c0-.2.08-.39.11-.59a1.09,1.09,0,0,1,.05.17v.29c-.06.15-.11.29-.16.44C12.75,73.82,12.75,73.8,12.74,73.79Zm1.08-1.87a.09.09,0,0,0,0,0,1.59,1.59,0,0,0-.07-.2.36.36,0,0,0,.13-.26l0,0a.38.38,0,0,0,.1.27s0,0,0,.08A.24.24,0,0,0,13.82,71.92Zm-.1.49,0,0a.3.3,0,0,0,0-.13l.05,0,0,.2a1.89,1.89,0,0,1-.05.23Zm.94-1.24a.22.22,0,0,0-.23-.09l0,0-.06,0c0-.09,0-.17.05-.25s-.07-.07-.11,0a.12.12,0,0,0,0-.13,4.77,4.77,0,0,1-.93-2.06c0-.07-.12,0-.11,0a4.51,4.51,0,0,0,.82,2.21c0,.07.14,0,.19,0s0,.11,0,.16h-.06a9.34,9.34,0,0,0-.69-.84.14.14,0,0,0-.1,0,2.7,2.7,0,0,1-.35-.7A5.09,5.09,0,0,1,14,66.79c.14.75.29,1.49.49,2.23,0,.1.11.09.18,0a4.24,4.24,0,0,0-.06,1.49.44.44,0,0,0,0,.32v0a.45.45,0,0,0,.1.29Zm.69-1.6c-.08-.12-.16-.23-.24-.36a2.14,2.14,0,0,1,.76-1.61c-.09.2-.16.39-.23.58l-.05.12,0-.21c0-.08-.12,0-.13,0A7.15,7.15,0,0,0,15.35,69.57Zm-.39.89h0c0-.16.05-.33.07-.51.12.17.24.32.37.48a3,3,0,0,0,.29.66h0l-.13-.1Zm.09,3.71c-.11-.19-.2-.37-.29-.56.22.3.53,0,.46-.26l0,0a.4.4,0,0,0,.17.09,21.24,21.24,0,0,0-.44,3.2c-.17-.31-.33-.62-.49-.93a.23.23,0,0,0,.13-.24,12,12,0,0,1-.49-1.68l.45.69C14.81,74.86,15.24,74.51,15.05,74.17Zm0,6.17c-1.34-.94-1.44-3.67-1.42-5a8.93,8.93,0,0,1,.17-1.63,2.86,2.86,0,0,0,.16.94.15.15,0,0,0-.16.16,9.11,9.11,0,0,0,1.09,2.32.09.09,0,0,0,.11,0,14.34,14.34,0,0,0,0,1.47c-.07,0-.14.12-.06.16s.05,0,.07,0c0,.27.05.54.09.8a2.69,2.69,0,0,0,.34,1A3.45,3.45,0,0,1,15,80.34Zm.38-3.14a22.93,22.93,0,0,1,.32-3.8.29.29,0,0,0,0-.3c.08-.49.16-1,.26-1.45,0-.1-.13-.09-.15,0-.08.28-.16.58-.23.87a.41.41,0,0,0-.08-.19l-.16-.2a.35.35,0,0,0-.14-.25s0,0,0,0h0a.28.28,0,0,0,.16-.09l.13.11c.24.21.42-.26.24-.44a.5.5,0,0,0,0-.21,5.19,5.19,0,0,0,1.31,1.29c2.09,1.58,3.29,3.71,1.87,6.16-.13,0-.23.17-.2.33a4.74,4.74,0,0,1-2,1.56C15.29,81.18,15.41,77.69,15.4,77.2Zm2.23-5c.41.24.83.47,1.25.69s.78.44,1.15.69c-.47-.19-.93-.38-1.4-.54A8,8,0,0,0,17.63,72.15Zm-.92,8.9a3.74,3.74,0,0,0,.63-.23c.12.15.23.3.35.43C17.36,81.19,17,81.13,16.71,81.05Zm2.13.42-.19,0a.41.41,0,0,0,0-.09.14.14,0,0,0-.15,0,1.85,1.85,0,0,1-.43-.27,2.72,2.72,0,0,1-.38-.29.25.25,0,0,0-.08-.05l.14-.08a3.85,3.85,0,0,0,.8-.59,5.26,5.26,0,0,0,1.94,1.7A11.61,11.61,0,0,1,18.84,81.47Zm2.94.1c-.67-.33-1.5-.35-2.17-.67-.1-.05-.39.41-.28.47l.23.12s.12-.25.15-.23.14-.16.16-.19c.49.26,1,.43,1.51.69a3,3,0,0,1-.68,0c0-.06.05-.14,0-.17A16.88,16.88,0,0,1,18.55,80a4.85,4.85,0,0,0,.55-.65l1.23.94c-.06,0-.08.13,0,.15l.41.14c.41.31.83.61,1.26.88A1.43,1.43,0,0,1,21.78,81.57Zm1-1.7a2.07,2.07,0,0,1-.56,1.4.14.14,0,0,0,0-.14l-.58-.49a.08.08,0,0,0-.07-.08l-.06,0-.25-.19.67.19c.16,0,.29-.26.11-.31-.45-.13-.91-.23-1.37-.34l-1.28-1A5.68,5.68,0,0,0,20,77a5.68,5.68,0,0,1,1.24.54c.54.27,1.07.57,1.59.87A12.23,12.23,0,0,1,22.78,79.87Zm-.73-4.39a3.65,3.65,0,0,1,.3.55c-.61-.3-1.22-.59-1.85-.84-.19-.08-.34.3-.14.37.66.26,1.3.54,1.94.85a.12.12,0,0,0,.17,0,6.36,6.36,0,0,1,.32,1.56c-.47-.28-.94-.54-1.43-.79A5.13,5.13,0,0,0,20,76.55c0-.14,0-.29,0-.43a4.78,4.78,0,0,0-1-2.61c.58.26,1.2.47,1.76.66h.07a5.52,5.52,0,0,1,.65.63,1.09,1.09,0,0,1,0,.18c-.56-.29-1.14-.56-1.73-.8,0,0-.35,0-.3,0,.61.25,1.55.57,1.53.83v0c1,.2.35.13.43.08s.22.06.27.09a.21.21,0,0,0,.11,0A2.39,2.39,0,0,1,22.05,75.48ZM26,72.25c1.17.55,2.38,1,3.57,1.5a7.39,7.39,0,0,0-2.39,3.47,6.78,6.78,0,0,1-2.52-1A13.65,13.65,0,0,1,26,72.25Zm-.24-.12A12,12,0,0,0,24.32,76l-.3-.2c.09-.42.19-.84.31-1.25s.38-1.66.81-1.94c.14-.09.08-.36-.1-.25-.41.25-.55.92-.72,1.34a12.7,12.7,0,0,0-.57,1.91l-.37-.27a.15.15,0,0,0,0-.09,15.67,15.67,0,0,1,.84-3.93C24.73,71.64,25.21,71.89,25.71,72.13ZM23,70.52c.38.28.78.53,1.18.78a7.73,7.73,0,0,0-.58,1.84c-.17.68-.31,1.37-.42,2.06-.44-.34-.86-.69-1.28-1a12.34,12.34,0,0,1,1-3.7Zm-4.38-2.47a15.15,15.15,0,0,1,1.87.7,7.6,7.6,0,0,1,1.29.82.12.12,0,0,0-.1,0,9,9,0,0,0-1.17,3.26c0,.21.24.14.25,0a6.91,6.91,0,0,1,1.06-3.18,0,0,0,0,0,0,0c.35.26.68.54,1,.79A10.71,10.71,0,0,0,21.61,74l-.21-.18c-.08-.33-.17-.65-.25-1,0-.1-.19,0-.18.07l.15.69-.25-.19s-.1,0-.13.06a12.7,12.7,0,0,0-1.09-.71,3,3,0,0,1-.31-1.5A6.39,6.39,0,0,1,20,69.61c.11-.2-.14-.33-.26-.13a6.32,6.32,0,0,0-.89,2.78c-.49-.29-1-.57-1.45-.87a.13.13,0,0,0,0-.06c0-.12,0-.25,0-.38l.1.43c0,.15.26,0,.23-.11l-.19-.77s0-.06-.06-.06A8.39,8.39,0,0,1,18.59,68.05Zm-.2-.06a6.45,6.45,0,0,0-1.26,3,2.79,2.79,0,0,1-.12-.81s0-.05,0-.05a6.06,6.06,0,0,1,.74-1.79s-.05-.06-.07,0a5.27,5.27,0,0,0-1,2.47c0,.1.15.06.17,0l0-.15a2.66,2.66,0,0,0,.1.49c0,.07.12,0,.16,0v.16a8.06,8.06,0,0,1-1.07-.86.1.1,0,0,0,.05-.06,6.32,6.32,0,0,0,0-.87c0-.06-.12,0-.11,0a7.12,7.12,0,0,1,0,.8l-.17-.16s0-.07,0-.11a.3.3,0,0,0-.08-.14.33.33,0,0,0,.1-.29A2.37,2.37,0,0,1,16,68.09a4.24,4.24,0,0,1,.23-.59C17,67.63,17.68,67.79,18.39,68Zm-.7-.45c-.42-.06-.84-.12-1.26-.16a.28.28,0,0,0,.07-.33l.07-.09h0l.09-.13c.07-.09,0-.18-.12-.13a1.64,1.64,0,0,0-.25.21,4.76,4.76,0,0,1-.78-.55l.3-.66a6,6,0,0,0,.42.57c.08.09.27-.09.19-.19s-.33-.43-.49-.65l.09-.18a1.64,1.64,0,0,0,.34.36c.06,0,.16,0,.1-.1a2.4,2.4,0,0,1-.39-.39l.12-.25.16.3s.11,0,.09,0-.14-.24-.2-.36l.19-.4c.13.27.27.54.42.8,0,0,.13,0,.1-.06a7.48,7.48,0,0,1-.48-.83l.06-.12a6.94,6.94,0,0,0,.51,1c.07.12.28,0,.21-.16a6.55,6.55,0,0,1-.56-1,.09.09,0,0,0-.08,0l.13-.25.48.8c.05.07.18,0,.14-.09l-.49-.8a.06.06,0,0,0-.08,0c.05-.12.11-.23.17-.35l.53.91c0,.08.19,0,.15-.11l-.51-.9s-.07,0-.11,0l.2-.39.48.7c.05.07.18,0,.13-.09l-.51-.77h0l.5-1c.22.33.43.66.65,1,.07.1.25,0,.19-.12A8,8,0,0,0,18,61.33c.2-.39.4-.78.61-1.17.12.2.23.39.34.6,0,0,.1,0,.08,0-.12-.21-.25-.42-.38-.62.07-.15.16-.3.24-.45l.3.47c0,.05.13,0,.1,0l-.34-.54.5-.91c0,.07,0,.14,0,.19a5.2,5.2,0,0,0,.45,1.25c.1.21.37-.09.27-.27A4.82,4.82,0,0,1,19.8,59a3,3,0,0,1-.14-.45c0-.06,0-.12-.05-.18a.29.29,0,0,0,0-.09s0,0,0,0l.66-1.18a2.46,2.46,0,0,0,.34.44c.08.09.24-.08.19-.18s-.24-.39-.35-.59c.14-.23.27-.65.41-.88.08,0,.19-.35.1-.35h0c.7-1,1.46-2.29,2.22-3.52a4.09,4.09,0,0,0,1.6.92c.21,0,.43.13.64.16l0,0c-.09,0-.11.21,0,.17l.1,0A80.25,80.25,0,0,0,17.69,67.54Zm10.77-19.7a.21.21,0,0,0-.17-.1l0-.06.31-.13ZM26,52.7a2.39,2.39,0,0,0,.13-.21.41.41,0,0,0,.11-.07.57.57,0,0,0,0,.14.38.38,0,0,0,0,.21Zm4.1-7.46s0,.06,0,.07-.23.21-.34.33a.29.29,0,0,0,0,.32l-.32.21-.14,0,0,0,.89-1.35.13,0,.14.06C30.32,45,30.22,45.13,30.12,45.24Zm.66-.69h0c-.05-.18.3-.31.66-.46l-.62.42Zm-1.39,7.16h0l-.3.11,0,0,.27-.17a.37.37,0,0,0,0-.58l.55-.21s0,0,.05,0l.22-.08-.6.44c-.06,0,0,.12,0,.09l1.36-.38C30.41,51.15,29.9,51.42,29.39,51.71Z"/><path class="cls-1" d="M17.08,68.24s0,0,0,0S17.1,68.25,17.08,68.24Z"/><path class="cls-1" d="M18.78,70.24c.19.1.33-.29.14-.39S18.59,70.14,18.78,70.24Z"/><path class="cls-1" d="M20.05,71.46c.08,0,.21-.1.11-.15S20,71.41,20.05,71.46Z"/><path class="cls-1" d="M21.86,72.07c.18.09.33-.27.15-.36S21.68,72,21.86,72.07Z"/><path class="cls-1" d="M23.14,73c.08,0,.2-.09.11-.13S23.05,73,23.14,73Z"/><path class="cls-1" d="M25.73,76.51a19.07,19.07,0,0,1,.58-2.78c0-.13-.14-.14-.18,0a8.42,8.42,0,0,0-.63,2.83C25.5,76.69,25.71,76.63,25.73,76.51Z"/><path class="cls-1" d="M27.07,73.4c.09,0,.21-.1.12-.14S27,73.36,27.07,73.4Z"/><path class="cls-1" d="M26.87,74.84c.08,0,.21-.1.12-.15S26.77,74.79,26.87,74.84Z"/><path class="cls-1" d="M27.18,75.19c.09,0,.22-.1.13-.15S27.09,75.14,27.18,75.19Z"/><path class="cls-1" d="M20.86,76.78c.51.25,1,.52,1.48.81.23.14.39-.31.18-.44-.48-.29-1-.57-1.48-.82C20.79,76.2,20.64,76.67,20.86,76.78Z"/><path class="cls-1" d="M20.49,78.64l1.38,1c.2.14.39-.24.21-.37l-1.38-1C20.5,78.13,20.31,78.52,20.49,78.64Z"/><path class="cls-1" d="M7.61,67s.07,0,0,0S7.58,67,7.61,67Z"/><path class="cls-1" d="M6.05,66.41c-.15-.07-.32.19-.18.26S6.19,66.49,6.05,66.41Z"/><path class="cls-1" d="M9.06,81.67s.14,0,.1-.06c-.32-.5-.67-1-1-1.47,0,0-.09,0-.07,0C8.4,80.68,8.72,81.18,9.06,81.67Z"/><path class="cls-1" d="M8.23,83.25l-.36-.37c-.07-.08-.23.06-.15.14l.35.37C8.15,83.47,8.3,83.32,8.23,83.25Z"/><path class="cls-1" d="M5.84,85.9c-.08,0-.18.11-.08.14a2.14,2.14,0,0,1,.76.5c.1.11.29-.12.17-.22A2.26,2.26,0,0,0,5.84,85.9Z"/><path class="cls-1" d="M57.07,66.68a14.08,14.08,0,0,0-10.21,3.23q-4.05,3.5-4.63,7.09t7.57,4.37q8.16.8,5.29,5.83t-12,5.91c-1.14-.38-1.24-1.2-.3-2.47a14.64,14.64,0,0,0,8.76-3.38q3.93-3.18-4.58-3.87t-7.38-6.64a14.46,14.46,0,0,1,6.11-9.47,19,19,0,0,1,11-3.58C58.09,64.26,58.22,65.26,57.07,66.68Z"/><path class="cls-1" d="M64,72.59,65.44,69q2.25-1.68,2.3.38l-1.19,2.9a29.8,29.8,0,0,1,4.91.27q2.22,1.57-.11,2.52a55.57,55.57,0,0,0-5.83-.27l-3,7.26Q58.24,90.79,61,87.15l5.59-6.45c.39-.74.94-.81,1.62-.19q-.74,2.13-7.45,9.92c-2.53,1.5-3.62,1-3.28-1.6a5.58,5.58,0,0,1,.7-2.61L63,74.92c-.78.06-1.51.14-2.2.25-.92-.17-.67-.84.76-2A18.39,18.39,0,0,1,64,72.59Z"/><path class="cls-1" d="M71.19,76.22c3.47-1.1,5.24-.74,5.34,1.09s-1,3.61-3.24,5.35a9.72,9.72,0,0,1-7,2.29c-.29,1.83.18,3.09,1.42,3.8s3.16,0,5.78-2L79,80.7c.4-.74.94-.81,1.63-.19q-.74,2.13-5.25,7.42t-8.71,3.16q-4.2-2.13-2.44-7.67A10.35,10.35,0,0,1,71.19,76.22Zm1.19,4.16c1.82-1.61,2.13-2.41.91-2.38a7.13,7.13,0,0,0-3.77,1.33,6.4,6.4,0,0,0-2.62,3.24A7.29,7.29,0,0,0,72.38,80.38Z"/><path class="cls-1" d="M80.78,82a22.79,22.79,0,0,0-.92,7.67q5.44-2.33,6.21-6.34a8.84,8.84,0,0,1-1.28-3.85c-.09-2,.48-3.11,1.71-3.31a2.19,2.19,0,0,1,1.9,1.52,6.41,6.41,0,0,1,.19,4.44q.7,1.2,4.09-1.4c.4-.74.94-.81,1.63-.19-2,2.54-3.61,3.9-4.68,4.06S88,84.66,88,84.35a8.24,8.24,0,0,1-4.47,6.08c-2.62,1.5-4.25,2.12-4.87,1.87s-1-1.6-1.19-4a16.61,16.61,0,0,1,.91-6.89l1.35-4.22q2.25-1.68,2.74.78Z"/><path class="cls-1" d="M97.15,76.22q5.2-1.65,5.34,1.09c.09,1.82-1,3.61-3.24,5.35a9.72,9.72,0,0,1-7,2.29c-.29,1.83.18,3.09,1.42,3.8s3.17,0,5.79-2L105,80.7c.39-.74.94-.81,1.62-.19q-.73,2.13-5.24,7.42t-8.72,3.16q-4.2-2.13-2.44-7.67A10.35,10.35,0,0,1,97.15,76.22Zm1.19,4.16c1.83-1.61,2.13-2.41.91-2.38a7.16,7.16,0,0,0-3.77,1.33,6.33,6.33,0,0,0-2.61,3.24A7.27,7.27,0,0,0,98.34,80.38Z"/><path class="cls-1" d="M108.4,78.85q1.41-2.09,5.36-2.25t-1.11,10.49q-.89,2.88,1.68.06l5.59-6.45c.39-.74.94-.81,1.62-.19q-.72,2.13-7.45,9.92a3.57,3.57,0,0,1-2.4,1.23,2,2,0,0,1-2-.76,2.56,2.56,0,0,1,0-2.45q1-2.91,2.52-6.52t-1.57-1.46q-3,2.15-7.43,10a1.4,1.4,0,0,0-.22.17c-1.35.93-2,.75-2.06-.55l2-4.41,3.15-7.08c.54-1.64,1.23-2.47,2.06-2.49Q110.11,75.79,108.4,78.85Z"/><path class="cls-1" d="M90.76,25.88q-.39,11.46-2.07,16.56l2-.57c1,1,.77,1.92-.6,2.9L88,45.61a48.33,48.33,0,0,1-5.47,13q-3.31,5.2-7.79,4.9T70.54,57q.31-6.21,15.36-14.12a40.32,40.32,0,0,0,2.2-12.77q-.24-1.44-1.74-1.08Q80,32.89,80.05,34a5.06,5.06,0,0,0,1.17,2.75c-.31,1-1.15,1.46-2.53,1.28-.86-.62-1.3-2-1.3-4.16s3.7-5.08,11.09-8.74C90.07,24.64,90.83,24.88,90.76,25.88Zm-17.85,31q-.64,4.43,3.29,3.83t8.38-12L85.2,46Q73.55,52.47,72.91,56.9Z"/><path class="cls-1" d="M97.26,40.89q4.5-1.81,5.39.38a6.38,6.38,0,0,1,.19,4.45c.47.79,1.84.32,4.09-1.41.4-.74.94-.81,1.63-.19q-3.06,3.83-4.67,4.06c-1.08.17-1.69,0-1.83-.43q-2.48,8.05-7.67,7.82T91,49Q92.76,42.71,97.26,40.89Zm-4,8.89c-.81,2.39-.23,3.46,1.72,3.21s3.72-2.27,5.31-6.08Q98.37,45,100,42.41c-.71,0-1.8.61-3.28,1.88A12.21,12.21,0,0,0,93.29,49.78Z"/><path class="cls-1" d="M111.76,39.84q5.2-1.67,5.34,1.08c.09,1.82-1,3.61-3.24,5.35a9.67,9.67,0,0,1-7,2.29c-.29,1.83.18,3.09,1.42,3.8s3.17,0,5.79-2l5.44-6.07c.4-.74.94-.81,1.63-.19q-.73,2.15-5.24,7.42t-8.72,3.16Q103,52.57,104.79,47A10.34,10.34,0,0,1,111.76,39.84ZM113,44q2.74-2.43.91-2.39a7.13,7.13,0,0,0-3.77,1.33,6.37,6.37,0,0,0-2.61,3.24A7.29,7.29,0,0,0,113,44Z"/><path class="cls-1" d="M14.13,113.44h-.87v-5.61h2.45v.85H14.13v1.53h1.16v.85H14.13Z"/><path class="cls-1" d="M20.23,107.83a1.34,1.34,0,0,1,1.06.39,1.46,1.46,0,0,1,.29,1V110a1.28,1.28,0,0,1-.46,1l.64,2.45h-.93l-.52-2.11h-.58v2.11h-.86v-5.61Zm.51,1.36a.43.43,0,0,0-.49-.49h-.52v1.79h.52a.46.46,0,0,0,.35-.14.45.45,0,0,0,.14-.34Z"/><path class="cls-1" d="M25.06,113.44v-5.61h2.45v.85H25.92v1.53h1.16v.85H25.92v1.53h1.59v.85Z"/><path class="cls-1" d="M30.67,113.44v-5.61h2.45v.85H31.53v1.53h1.16v.85H31.53v1.53h1.59v.85Z"/><path class="cls-1" d="M38.62,113.44H36.28v-5.61h.86v4.77h1.48Z"/><path class="cls-1" d="M42.88,112.15l-.2,1.29h-.9l1-5.61h1.18l1,5.61H44l-.2-1.29Zm.46-3L43,111.33h.64Z"/><path class="cls-1" d="M49.14,107.83l1.15,3.77v-3.77h.86v5.61h-.93L49,109.85v3.59h-.86v-5.61Z"/><path class="cls-1" d="M55.84,113.51a1.33,1.33,0,0,1-1-.39,1.25,1.25,0,0,1-.4-.94v-3.07a1.27,1.27,0,0,1,.4-1,1.34,1.34,0,0,1,1-.39,1.28,1.28,0,0,1,1,.4,1.25,1.25,0,0,1,.4.94v.64h-.89v-.65a.47.47,0,0,0-.15-.35.52.52,0,0,0-.35-.14.5.5,0,0,0-.35.14.46.46,0,0,0-.14.35v3.07a.44.44,0,0,0,.14.34.5.5,0,0,0,.35.14.52.52,0,0,0,.35-.14.45.45,0,0,0,.15-.34v-.78h.89v.79a1.31,1.31,0,0,1-.4.95A1.37,1.37,0,0,1,55.84,113.51Z"/><path class="cls-1" d="M60.47,113.44v-5.61h2.45v.85H61.33v1.53h1.16v.85H61.33v1.53h1.59v.85Z"/><path class="cls-1" d="M72.77,107.83h.9l-.89,5.61H72l-.49-3.08L71,113.44h-.82l-1-5.61h.91l.45,3,.41-3h.9l.45,3Z"/><path class="cls-1" d="M78.32,107.83a1.34,1.34,0,0,1,1.06.39,1.46,1.46,0,0,1,.29,1V110a1.28,1.28,0,0,1-.46,1l.64,2.45h-.93l-.52-2.11h-.58v2.11H77v-5.61Zm.52,1.36a.44.44,0,0,0-.5-.49h-.52v1.79h.52a.45.45,0,0,0,.35-.14.46.46,0,0,0,.15-.34Z"/><path class="cls-1" d="M84,113.44h-.87v-5.61H84Z"/><path class="cls-1" d="M88.19,108.68h-.92v-.85H90v.85h-.91v4.76h-.86Z"/><path class="cls-1" d="M93.22,113.44v-5.61h2.45v.85H94.08v1.53h1.16v.85H94.08v1.53h1.59v.85Z"/><path class="cls-1" d="M100.18,107.83a1.34,1.34,0,0,1,1.06.39,1.46,1.46,0,0,1,.29,1V110a1.28,1.28,0,0,1-.46,1l.64,2.45h-.93l-.52-2.11h-.58v2.11h-.86v-5.61Zm.52,1.36a.44.44,0,0,0-.5-.49h-.52v1.79h.52a.45.45,0,0,0,.35-.14.46.46,0,0,0,.15-.34Z"/><path class="cls-1" d="M30.8,125.91a1.56,1.56,0,0,1,.44-1.21,1.34,1.34,0,0,1,1-.38,1.27,1.27,0,0,1,1,.42,1.35,1.35,0,0,1,.4,1,2.58,2.58,0,0,1-.26,1.11,7.66,7.66,0,0,1-.66,1l-.42.61-.15.23c-.1.15-.18.26-.23.35a.18.18,0,0,0,0,.08h1.69v.83H30.78v-.78a2.67,2.67,0,0,1,.19-.31l.2-.28.22-.32.62-.85a5.77,5.77,0,0,0,.59-1,1.67,1.67,0,0,0,.16-.68.72.72,0,0,0-.14-.44.54.54,0,0,0-.41-.18.52.52,0,0,0-.51.4.82.82,0,0,0-.05.33v.21H30.8Z"/><path class="cls-1" d="M39.59,128.66a1.25,1.25,0,0,1-.4,1,1.3,1.3,0,0,1-1,.39,1.34,1.34,0,0,1-1-.39,1.3,1.3,0,0,1-.39-1V125.6a1.27,1.27,0,0,1,.4-.95,1.32,1.32,0,0,1,1-.39,1.34,1.34,0,0,1,1,.39,1.3,1.3,0,0,1,.39.95Zm-.89-3.08a.48.48,0,0,0-.14-.34.49.49,0,0,0-.36-.15.51.51,0,0,0-.49.49v3.07a.51.51,0,0,0,.49.49.49.49,0,0,0,.36-.15.48.48,0,0,0,.14-.34Z"/><path class="cls-1" d="M78.51,128.66a1.25,1.25,0,0,1-.4,1,1.32,1.32,0,0,1-1,.39,1.34,1.34,0,0,1-1-.39,1.31,1.31,0,0,1-.4-1V125.6a1.28,1.28,0,0,1,.41-.95,1.3,1.3,0,0,1,1-.39,1.34,1.34,0,0,1,1,.39,1.3,1.3,0,0,1,.39.95Zm-.89-3.08a.45.45,0,0,0-.15-.34.45.45,0,0,0-.35-.15.51.51,0,0,0-.49.49v3.07a.51.51,0,0,0,.49.49.45.45,0,0,0,.35-.15.45.45,0,0,0,.15-.34Z"/><path class="cls-1" d="M84.61,128.66a1.29,1.29,0,0,1-.4,1,1.34,1.34,0,0,1-1,.39h-.07a1.3,1.3,0,0,1-1-.39,1.29,1.29,0,0,1-.4-1v-.51a1.32,1.32,0,0,1,.7-1.17,1.16,1.16,0,0,1-.53-.58,1.19,1.19,0,0,1-.1-.53v-.31a1.28,1.28,0,0,1,.33-.9,1.22,1.22,0,0,1,1-.4h.07a1.24,1.24,0,0,1,1,.4,1.28,1.28,0,0,1,.33.9v.31a1.24,1.24,0,0,1-.32.87,1.18,1.18,0,0,1-.31.24,1.42,1.42,0,0,1,.59.64,1.22,1.22,0,0,1,.11.53Zm-.84-2.86c0-.39-.13-.63-.36-.73a.6.6,0,0,0-.2,0,.52.52,0,0,0-.36.12.56.56,0,0,0-.17.25,1.41,1.41,0,0,0,0,.39,1,1,0,0,0,.12.52.48.48,0,0,0,.45.22.49.49,0,0,0,.45-.23A.88.88,0,0,0,83.77,125.8Zm0,2.46a.79.79,0,0,0-.24-.67.51.51,0,0,0-.3-.08.48.48,0,0,0-.47.29,1.44,1.44,0,0,0-.07.46v.27a.58.58,0,0,0,.18.45.46.46,0,0,0,.36.15.52.52,0,0,0,.49-.34.67.67,0,0,0,0-.26Z"/><path class="cls-1" d="M51.27,123.8c1.43-.46,2.16-.31,2.2.44a2.74,2.74,0,0,1-1.34,2.21,4,4,0,0,1-2.87,1,1.37,1.37,0,0,0,.59,1.56c.51.3,1.31,0,2.39-.81l2.25-2.51c.16-.3.38-.33.67-.08A12.72,12.72,0,0,1,53,128.63c-1.24,1.45-2.44,1.89-3.59,1.3s-1.49-1.64-1-3.16A4.25,4.25,0,0,1,51.27,123.8Zm.49,1.71c.75-.66.88-1,.37-1a2.87,2.87,0,0,0-1.55.55,2.56,2.56,0,0,0-1.08,1.33A3,3,0,0,0,51.76,125.51Z"/><path class="cls-1" d="M56.32,123.86c.51,0,.72.18.63.47a3.68,3.68,0,0,0-1.56,2.31c-.13.85,0,1.36.29,1.52l3.42-2.72q.43-.22.6,0-.5,1-3.58,3.43a2.94,2.94,0,0,1-.67,4.08c-1.32,1.11-2.23,1.13-2.71.05s.19-2.51,2.06-4.29a2.51,2.51,0,0,1-.42-1.74,6.31,6.31,0,0,1,.45-1.57A4.25,4.25,0,0,1,56.32,123.86Zm-2.78,8.51c.18.73.68.68,1.5-.17a2,2,0,0,0,.16-2.82C53.92,130.64,53.37,131.63,53.54,132.37Z"/><path class="cls-1" d="M60.48,122.3l.62-1.47c.61-.46.93-.41.95.16l-.5,1.2a11,11,0,0,1,2,.11c.61.43.59.78,0,1a23,23,0,0,0-2.4-.11l-1.24,3q-1.77,3.59-.62,2.08l2.31-2.66c.16-.3.38-.33.67-.08a20.26,20.26,0,0,1-3.08,4.1q-1.56.93-1.35-.66a2.24,2.24,0,0,1,.29-1.08l2-4.66c-.32,0-.63.06-.91.1s-.27-.35.31-.84A8.49,8.49,0,0,1,60.48,122.3Z"/><path class="cls-1" d="M65.62,124.24l1.77-4.84c.46-.54.82-.53,1.08,0s-.37,2.22-1.9,5l-.81,1.82c-1.18,2.39-1.38,3.08-.62,2.08l2.31-2.66c.16-.3.38-.33.67-.08a21.18,21.18,0,0,1-3.18,4.22c-.77.43-1.22.43-1.37,0s.07-1.1.67-2a4.26,4.26,0,0,1-3,2.24c-1.09.12-1.27-.79-.54-2.71s1.74-3,3.05-3.35S65.69,123.74,65.62,124.24Zm-3.12,4.08a6.83,6.83,0,0,0,2.14-2.22q.48-1,0-1.29c-.29-.19-.76-.07-1.39.35a5.24,5.24,0,0,0-1.69,2.51C61.1,128.92,61.4,129.14,62.5,128.32Z"/><line class="cls-2" x1="109.52" y1="110.43" x2="114.27" y2="110.43"/><line class="cls-2" x1="6.77" y1="110.43" x2="2.02" y2="110.43"/></g></g></svg>