<svg xmlns="http://www.w3.org/2000/svg" width="240.813" height="93.782" viewBox="0 0 240.813 93.782">
    <defs>
        <style>
            .cls-1 {
            fill: #000;
            fill-rule: evenodd;
            }
        </style>
    </defs>
    <path id="You" class="cls-1" d="M230.232,776.326H209.838l-23.985,41.195-23.985-41.195H139.806l34.76,59.607v33.115h20.778V836.2Zm33.573,93.781c21.933,0,37.838-15.232,37.838-36.691s-15.9-36.691-37.838-36.691-37.966,15.233-37.966,36.691S241.872,870.107,263.805,870.107Zm0-16.954c-10,0-17.7-7.418-17.7-19.737s7.7-19.736,17.7-19.736,17.572,7.417,17.572,19.736S273.81,853.153,263.805,853.153Zm96.807-55.369v35.235c0,13.113-6.67,19.206-15.905,19.206-8.85,0-13.981-5.3-13.981-17.219V797.784H310.717v40.268c0,21.988,12.185,32.055,29.5,32.055a27.518,27.518,0,0,0,21.42-9.537v8.478h18.983V797.784H360.612Z" transform="translate(-139.812 -776.312)"/>
</svg>